<svg width="320" height="87" viewBox="0 0 320 87" fill="none" xmlns="http://www.w3.org/2000/svg">
<g clip-path="url(#clip0_8_1380)">
<rect width="320" height="87" fill="white"/>
<g clip-path="url(#clip1_8_1380)">
<g opacity="0.08">
<path d="M327 -9.638H-33V98.85H327V-9.638Z" fill="black"/>
</g>
<path d="M324 -12.638H-36V95.85H324V-12.638Z" fill="#006960"/>
<mask id="mask0_8_1380" style="mask-type:luminance" maskUnits="userSpaceOnUse" x="-36" y="-13" width="360" height="109">
<path d="M324 -12.638H-36V95.85H324V-12.638Z" fill="white"/>
</mask>
<g mask="url(#mask0_8_1380)">
<path d="M-14.833 90.625C-14.833 90.625 7.95999 52.625 43.026 52.625C78.092 52.625 83.936 68.125 103.223 64.625C122.509 61.125 128.938 46.625 155.822 52.625C182.706 58.625 206.083 95.125 206.083 95.125L-14.833 90.625Z" fill="#084A49"/>
</g>
<mask id="mask1_8_1380" style="mask-type:luminance" maskUnits="userSpaceOnUse" x="-36" y="-13" width="360" height="109">
<path d="M324 -12.638H-36V95.85H324V-12.638Z" fill="white"/>
</mask>
<g mask="url(#mask1_8_1380)">
<path d="M15.5 -23.186C15.5 -23.186 24 20.814 57 15.814C90 10.814 103.5 13.314 109.5 28.814C115.5 44.314 141.5 44.814 152 35.814C162.5 26.814 187.01 24.393 193 28.314C220.5 46.314 268 38.314 237.5 -24.686L15.5 -23.186Z" fill="#084A49"/>
</g>
<mask id="mask2_8_1380" style="mask-type:luminance" maskUnits="userSpaceOnUse" x="-36" y="-13" width="360" height="109">
<path d="M324 -12.638H-36V95.85H324V-12.638Z" fill="white"/>
</mask>
<g mask="url(#mask2_8_1380)">
<path d="M20.833 -37.125C20.833 -37.125 -15.1 -8.84602 2.86603 9.28198C20.833 27.41 18.999 42.313 6.03703 54.964C-6.09297 66.802 -51.562 81.068 -45.749 99.921V-38.575L20.833 -37.125Z" fill="#252F2D"/>
</g>
<mask id="mask3_8_1380" style="mask-type:luminance" maskUnits="userSpaceOnUse" x="-36" y="-13" width="360" height="109">
<path d="M324 -12.638H-36V95.85H324V-12.638Z" fill="white"/>
</mask>
<g mask="url(#mask3_8_1380)">
<path opacity="0.4" d="M4.38898 -48.953C4.38898 -48.953 -31.545 -20.674 -13.578 -2.54599C4.38897 15.582 2.55498 30.485 -10.407 43.136C-22.537 54.974 -68.006 69.24 -62.194 88.092V-50.404L4.38898 -48.953Z" fill="#04837E"/>
</g>
<mask id="mask4_8_1380" style="mask-type:luminance" maskUnits="userSpaceOnUse" x="-36" y="-13" width="360" height="109">
<path d="M324 -12.638H-36V95.85H324V-12.638Z" fill="white"/>
</mask>
<g mask="url(#mask4_8_1380)">
<path d="M128.5 -29.686C120.5 -22.134 107.833 -0.107006 129.167 13.109C150.5 26.325 188.5 2.41 211.167 14.997C233.834 27.584 223.356 47.827 245.909 53.475C272.694 60.184 276.268 37.622 289.833 33.248C317.212 24.419 337.471 40.316 337.471 40.316L333.166 -27.798L128.5 -29.686Z" fill="#252F2D"/>
</g>
<mask id="mask5_8_1380" style="mask-type:luminance" maskUnits="userSpaceOnUse" x="-36" y="-13" width="360" height="109">
<path d="M324 -12.638H-36V95.85H324V-12.638Z" fill="white"/>
</mask>
<g mask="url(#mask5_8_1380)">
<path d="M96.356 -50.048C85.907 -42.496 69.362 -20.469 97.227 -7.25301C125.092 5.96299 174.726 -17.952 204.333 -5.36501C233.94 7.22199 220.254 27.465 249.713 33.113C284.699 39.821 289.367 17.26 307.086 12.886C342.848 4.057 369.31 19.954 369.31 19.954L363.687 -48.16L96.356 -50.048Z" fill="#04837E"/>
</g>
<mask id="mask6_8_1380" style="mask-type:luminance" maskUnits="userSpaceOnUse" x="-36" y="-13" width="360" height="109">
<path d="M324 -12.638H-36V95.85H324V-12.638Z" fill="white"/>
</mask>
<g mask="url(#mask6_8_1380)">
<path opacity="0.4" d="M109.943 -74.504C99.494 -66.952 82.949 -44.925 110.814 -31.709C138.679 -18.493 188.314 -42.408 217.92 -29.821C247.526 -17.234 233.841 3.008 263.299 8.657C298.285 15.365 302.953 -7.19601 320.672 -11.57C356.434 -20.399 382.896 -4.502 382.896 -4.502L377.273 -72.616L109.943 -74.504Z" fill="#006960"/>
</g>
<mask id="mask7_8_1380" style="mask-type:luminance" maskUnits="userSpaceOnUse" x="-36" y="-13" width="360" height="109">
<path d="M324 -12.638H-36V95.85H324V-12.638Z" fill="white"/>
</mask>
<g mask="url(#mask7_8_1380)">
<path d="M337.875 53.552C337.875 53.552 301.741 30.491 290.369 54.344C284.038 67.624 273.373 69.486 252.367 70.721C235.097 71.737 251.233 96.525 239.686 101.454H338.27L337.875 53.552Z" fill="#084A49"/>
</g>
<mask id="mask8_8_1380" style="mask-type:luminance" maskUnits="userSpaceOnUse" x="-36" y="-13" width="360" height="109">
<path d="M324 -12.638H-36V95.85H324V-12.638Z" fill="white"/>
</mask>
<g mask="url(#mask8_8_1380)">
<path opacity="0.4" d="M349.352 63.178C349.352 63.178 313.218 40.117 301.846 63.97C295.515 77.25 284.85 79.112 263.844 80.347C246.574 81.363 266.282 106.151 254.735 111.08H349.747L349.352 63.178Z" fill="#04837E"/>
</g>
<mask id="mask9_8_1380" style="mask-type:luminance" maskUnits="userSpaceOnUse" x="-36" y="-13" width="360" height="109">
<path d="M324 -12.638H-36V95.85H324V-12.638Z" fill="white"/>
</mask>
<g mask="url(#mask9_8_1380)">
<path d="M358.704 68.716C358.704 68.716 322.57 45.655 311.198 69.508C304.867 82.788 294.202 84.65 273.197 85.885C255.927 86.901 275.635 111.689 264.088 116.618H359.1L358.704 68.716Z" fill="#04837E"/>
</g>
<mask id="mask10_8_1380" style="mask-type:luminance" maskUnits="userSpaceOnUse" x="-36" y="-13" width="360" height="109">
<path d="M324 -12.638H-36V95.85H324V-12.638Z" fill="white"/>
</mask>
<g mask="url(#mask10_8_1380)">
<path d="M215.769 131.879C215.769 131.879 204.112 87.879 158.855 92.879C113.598 97.879 95.083 95.379 86.855 79.879C78.626 64.379 39.259 65.185 23.5 73.313C8.01602 81.299 -7.94198 84.032 -27.66 80.379C-80.323 70.621 -130.517 70.379 -88.689 133.379L215.769 131.879Z" fill="#3A6462"/>
</g>
<mask id="mask11_8_1380" style="mask-type:luminance" maskUnits="userSpaceOnUse" x="-36" y="-13" width="360" height="109">
<path d="M324 -12.638H-36V95.85H324V-12.638Z" fill="white"/>
</mask>
<g mask="url(#mask11_8_1380)">
<path d="M155.608 63.147C139.035 68.969 120.784 92.48 86.733 78.48C53.544 64.834 24.032 81.589 12.527 105.287C12.228 105.902 11.942 106.523 11.667 107.147L231.448 111.147C244.603 67.814 191.667 50.48 155.608 63.147Z" fill="#252F2D"/>
</g>
<mask id="mask12_8_1380" style="mask-type:luminance" maskUnits="userSpaceOnUse" x="-36" y="-13" width="360" height="109">
<path d="M324 -12.638H-36V95.85H324V-12.638Z" fill="white"/>
</mask>
<g mask="url(#mask12_8_1380)">
<path opacity="0.4" d="M151.779 76.407C136.626 80.835 119.937 98.719 88.803 88.07C58.457 77.69 31.472 90.435 20.952 108.461C20.679 108.929 20.417 109.401 20.166 109.876L221.123 112.919C233.153 79.956 184.75 66.772 151.779 76.407Z" fill="#04837E"/>
</g>
<path d="M20.4426 19.7954H19.4031L22.4095 11.608H23.4329L26.4392 19.7954H25.3998L22.9531 12.9033H22.8892L20.4426 19.7954ZM20.8263 16.5972H25.016V17.4767H20.8263V16.5972ZM27.7145 19.7954V11.608H30.5769C31.1472 11.608 31.6176 11.7066 31.9881 11.9038C32.3586 12.0984 32.6344 12.3609 32.8156 12.6914C32.9969 13.0192 33.0875 13.383 33.0875 13.7828C33.0875 14.1346 33.0248 14.4251 32.8996 14.6543C32.777 14.8835 32.6144 15.0647 32.4119 15.198C32.212 15.3312 31.9948 15.4299 31.7602 15.4938V15.5738C32.0107 15.5898 32.2626 15.6777 32.5158 15.8376C32.769 15.9975 32.9809 16.2267 33.1514 16.5252C33.322 16.8237 33.4073 17.1889 33.4073 17.6206C33.4073 18.0311 33.314 18.4002 33.1275 18.728C32.9409 19.0558 32.6464 19.3157 32.2439 19.5076C31.8415 19.6995 31.3178 19.7954 30.6728 19.7954H27.7145ZM28.7059 18.9159H30.6728C31.3205 18.9159 31.7802 18.7906 32.0521 18.5401C32.3266 18.2869 32.4638 17.9804 32.4638 17.6206C32.4638 17.3434 32.3932 17.0876 32.2519 16.8531C32.1107 16.6159 31.9095 16.4266 31.6483 16.2854C31.3871 16.1415 31.0779 16.0695 30.7208 16.0695H28.7059V18.9159ZM28.7059 15.206H30.5449C30.8434 15.206 31.1126 15.1473 31.3524 15.0301C31.595 14.9128 31.7869 14.7476 31.9281 14.5344C32.072 14.3211 32.144 14.0706 32.144 13.7828C32.144 13.423 32.0187 13.1178 31.7682 12.8673C31.5177 12.6141 31.1206 12.4875 30.5769 12.4875H28.7059V15.206ZM39.5139 13.6548C39.4659 13.2497 39.2713 12.9352 38.9302 12.7114C38.5891 12.4875 38.1706 12.3756 37.6749 12.3756C37.3124 12.3756 36.9953 12.4342 36.7234 12.5515C36.4543 12.6687 36.2437 12.83 36.0918 13.0352C35.9425 13.2404 35.8679 13.4736 35.8679 13.7348C35.8679 13.9533 35.9199 14.1412 36.0238 14.2985C36.1304 14.4531 36.2664 14.5823 36.4316 14.6863C36.5968 14.7875 36.7701 14.8715 36.9513 14.9381C37.1325 15.0021 37.2991 15.0541 37.451 15.094L38.2826 15.3179C38.4958 15.3739 38.733 15.4512 38.9942 15.5498C39.258 15.6484 39.5099 15.783 39.7497 15.9536C39.9923 16.1215 40.1922 16.3373 40.3494 16.6012C40.5067 16.865 40.5853 17.1889 40.5853 17.5727C40.5853 18.0151 40.4693 18.4148 40.2375 18.772C40.0083 19.1291 39.6725 19.413 39.23 19.6235C38.7903 19.8341 38.2559 19.9393 37.6269 19.9393C37.0406 19.9393 36.5329 19.8447 36.1038 19.6555C35.6774 19.4663 35.3415 19.2024 35.0964 18.8639C34.8538 18.5255 34.7166 18.1323 34.6846 17.6846H35.708C35.7347 17.9938 35.8386 18.2496 36.0198 18.4522C36.2037 18.652 36.4356 18.8013 36.7154 18.8999C36.998 18.9959 37.3018 19.0438 37.6269 19.0438C38.0054 19.0438 38.3452 18.9825 38.6464 18.8599C38.9475 18.7347 39.1861 18.5614 39.362 18.3402C39.5379 18.1163 39.6258 17.8552 39.6258 17.5567C39.6258 17.2848 39.5499 17.0636 39.3979 16.893C39.246 16.7225 39.0461 16.5839 38.7983 16.4773C38.5504 16.3707 38.2826 16.2774 37.9947 16.1974L36.9873 15.9096C36.3477 15.7257 35.8413 15.4632 35.4681 15.122C35.095 14.7809 34.9085 14.3345 34.9085 13.7828C34.9085 13.3244 35.0324 12.9246 35.2802 12.5834C35.5308 12.2396 35.8666 11.9731 36.2877 11.7839C36.7114 11.592 37.1845 11.4961 37.7069 11.4961C38.2346 11.4961 38.7037 11.5907 39.1141 11.7799C39.5245 11.9665 39.8497 12.2223 40.0896 12.5475C40.3321 12.8726 40.46 13.2417 40.4733 13.6548H39.5139ZM41.7676 12.4875V11.608H47.9082V12.4875H45.3336V19.7954H44.3422V12.4875H41.7676ZM49.4383 19.7954V11.608H52.2048C52.8444 11.608 53.3695 11.7173 53.7799 11.9358C54.1903 12.1517 54.4942 12.4489 54.6914 12.8273C54.8886 13.2058 54.9872 13.6362 54.9872 14.1186C54.9872 14.601 54.8886 15.0287 54.6914 15.4019C54.4942 15.775 54.1917 16.0682 53.7839 16.2814C53.3761 16.4919 52.8551 16.5972 52.2208 16.5972H49.982V15.7017H52.1888C52.6259 15.7017 52.9777 15.6377 53.2442 15.5098C53.5134 15.3819 53.7079 15.2006 53.8279 14.9661C53.9505 14.7289 54.0118 14.4464 54.0118 14.1186C54.0118 13.7908 53.9505 13.5043 53.8279 13.2591C53.7053 13.0139 53.5094 12.8246 53.2402 12.6914C52.971 12.5555 52.6152 12.4875 52.1728 12.4875H50.4298V19.7954H49.4383ZM53.2922 16.1175L55.307 19.7954H54.1557L52.1728 16.1175H53.2922ZM56.9751 19.7954H55.9357L58.942 11.608H59.9654L62.9718 19.7954H61.9323L59.4857 12.9033H59.4217L56.9751 19.7954ZM57.3589 16.5972H61.5485V17.4767H57.3589V16.5972ZM70.4506 14.1666H69.4591C69.4005 13.8814 69.2979 13.6309 69.1513 13.415C69.0074 13.1991 68.8315 13.0179 68.6236 12.8713C68.4184 12.722 68.1905 12.6101 67.94 12.5355C67.6894 12.4608 67.4283 12.4235 67.1564 12.4235C66.6607 12.4235 66.2116 12.5488 65.8092 12.7993C65.4094 13.0499 65.0909 13.419 64.8537 13.9067C64.6192 14.3944 64.5019 14.9928 64.5019 15.7017C64.5019 16.4106 64.6192 17.009 64.8537 17.4967C65.0909 17.9844 65.4094 18.3536 65.8092 18.6041C66.2116 18.8546 66.6607 18.9799 67.1564 18.9799C67.4283 18.9799 67.6894 18.9426 67.94 18.8679C68.1905 18.7933 68.4184 18.6827 68.6236 18.5361C68.8315 18.3869 69.0074 18.2043 69.1513 17.9884C69.2979 17.7699 69.4005 17.5194 69.4591 17.2368H70.4506C70.3759 17.6553 70.24 18.0297 70.0428 18.3602C69.8456 18.6907 69.6004 18.9719 69.3072 19.2037C69.014 19.4329 68.6849 19.6075 68.3198 19.7274C67.9573 19.8474 67.5695 19.9073 67.1564 19.9073C66.4581 19.9073 65.8372 19.7368 65.2935 19.3956C64.7498 19.0545 64.322 18.5694 64.0102 17.9404C63.6983 17.3115 63.5424 16.5652 63.5424 15.7017C63.5424 14.8382 63.6983 14.0919 64.0102 13.463C64.322 12.834 64.7498 12.3489 65.2935 12.0078C65.8372 11.6666 66.4581 11.4961 67.1564 11.4961C67.5695 11.4961 67.9573 11.556 68.3198 11.676C68.6849 11.7959 69.014 11.9718 69.3072 12.2037C69.6004 12.4329 69.8456 12.7127 70.0428 13.0432C70.24 13.371 70.3759 13.7455 70.4506 14.1666ZM71.6049 12.4875V11.608H77.7455V12.4875H75.1709V19.7954H74.1795V12.4875H71.6049ZM81.9941 12.4875V11.608H88.1347V12.4875H85.5601V19.7954H84.5687V12.4875H81.9941ZM89.6648 19.7954V11.608H94.6061V12.4875H90.6563V15.254H94.3502V16.1335H90.6563V18.9159H94.67V19.7954H89.6648ZM96.393 11.608H97.5764L100.359 18.4042H100.455L103.237 11.608H104.421V19.7954H103.493V13.5749H103.413L100.855 19.7954H99.9591L97.4005 13.5749H97.3205V19.7954H96.393V11.608ZM106.408 19.7954V11.608H109.175C109.817 11.608 110.342 11.7239 110.75 11.9558C111.16 12.185 111.464 12.4955 111.662 12.8873C111.859 13.2791 111.957 13.7161 111.957 14.1985C111.957 14.6809 111.859 15.1194 111.662 15.5138C111.467 15.9083 111.166 16.2227 110.758 16.4573C110.35 16.6891 109.828 16.8051 109.191 16.8051H107.208V15.9256H109.159C109.599 15.9256 109.952 15.8496 110.218 15.6977C110.485 15.5458 110.678 15.3406 110.798 15.082C110.921 14.8209 110.982 14.5264 110.982 14.1985C110.982 13.8707 110.921 13.5776 110.798 13.319C110.678 13.0605 110.483 12.858 110.214 12.7114C109.945 12.5621 109.588 12.4875 109.143 12.4875H107.4V19.7954H106.408ZM113.554 19.7954V11.608H114.546V18.9159H118.352V19.7954H113.554ZM120.739 19.7954H119.7L122.706 11.608H123.73L126.736 19.7954H125.697L123.25 12.9033H123.186L120.739 19.7954ZM121.123 16.5972H125.313V17.4767H121.123V16.5972ZM126.607 12.4875V11.608H132.748V12.4875H130.173V19.7954H129.182V12.4875H126.607ZM134.278 19.7954V11.608H139.219V12.4875H135.269V15.254H138.963V16.1335H135.269V18.9159H139.283V19.7954H134.278Z" fill="white"/>
<path d="M19.4583 47.1639V22.8672H27.9527C29.6452 22.8672 31.0412 23.1599 32.1405 23.7451C33.2399 24.3225 34.0585 25.1015 34.5963 26.0823C35.1341 27.0551 35.403 28.1347 35.403 29.321C35.403 30.365 35.2172 31.2271 34.8454 31.9073C34.4816 32.5875 33.9992 33.1253 33.3981 33.5207C32.8049 33.9162 32.1603 34.2088 31.4643 34.3986V34.6359C32.2078 34.6834 32.9552 34.9444 33.7065 35.4189C34.4579 35.8935 35.0867 36.5736 35.5928 37.4595C36.099 38.3453 36.3521 39.4288 36.3521 40.7101C36.3521 41.9281 36.0753 43.0235 35.5217 43.9963C34.968 44.9691 34.0941 45.7402 32.8998 46.3097C31.7055 46.8792 30.1514 47.1639 28.2374 47.1639H19.4583ZM22.4005 44.5539H28.2374C30.1593 44.5539 31.5236 44.1822 32.3304 43.4387C33.145 42.6873 33.5523 41.7778 33.5523 40.7101C33.5523 39.8875 33.3427 39.1283 32.9235 38.4323C32.5044 37.7284 31.9072 37.1668 31.1321 36.7476C30.357 36.3205 29.4396 36.107 28.3798 36.107H22.4005V44.5539ZM22.4005 33.5445H27.8578C28.7436 33.5445 29.5424 33.3705 30.2542 33.0225C30.974 32.6745 31.5434 32.1841 31.9626 31.5514C32.3897 30.9187 32.6032 30.1752 32.6032 29.321C32.6032 28.2533 32.2315 27.3477 31.488 26.6043C30.7446 25.8529 29.5661 25.4772 27.9527 25.4772H22.4005V33.5445ZM42.1831 47.1639H39.0985L48.02 22.8672H51.0571L59.9785 47.1639H56.8939L49.6334 26.711H49.4436L42.1831 47.1639ZM43.322 37.673H55.755V40.283H43.322V37.673ZM83.0295 22.8672V47.1639H80.1822L66.9424 28.0872H66.7051V47.1639H63.763V22.8672H66.6102L79.8975 41.9913H80.1347V22.8672H83.0295ZM108.183 22.8672V47.1639H105.336L92.0962 28.0872H91.8589V47.1639H88.9168V22.8672H91.764L105.051 41.9913H105.289V22.8672H108.183ZM114.071 47.1639V22.8672H128.734V25.4772H117.013V33.6868H127.975V36.2968H117.013V44.5539H128.924V47.1639H114.071ZM134.037 47.1639V22.8672H142.247C144.145 22.8672 145.703 23.1915 146.921 23.84C148.139 24.4807 149.041 25.3625 149.626 26.4856C150.211 27.6087 150.504 28.886 150.504 30.3176C150.504 31.7491 150.211 33.0185 149.626 34.1258C149.041 35.2331 148.143 36.103 146.933 36.7358C145.723 37.3606 144.176 37.673 142.294 37.673H135.65V35.0156H142.199C143.496 35.0156 144.54 34.8257 145.331 34.4461C146.13 34.0665 146.707 33.5286 147.063 32.8326C147.427 32.1287 147.609 31.2904 147.609 30.3176C147.609 29.3447 147.427 28.4945 147.063 27.7669C146.699 27.0393 146.118 26.4777 145.319 26.0823C144.52 25.6789 143.465 25.4772 142.152 25.4772H136.979V47.1639H134.037ZM145.474 36.2494L151.453 47.1639H148.036L142.152 36.2494H145.474Z" fill="white"/>
</g>
</g>
<defs>
<clipPath id="clip0_8_1380">
<rect width="320" height="87" fill="white"/>
</clipPath>
<clipPath id="clip1_8_1380">
<rect width="320" height="87" fill="white"/>
</clipPath>
</defs>
</svg>
