<svg width="800" height="90" viewBox="0 0 800 90" fill="none" xmlns="http://www.w3.org/2000/svg">
<g clip-path="url(#clip0_8_1384)">
<g opacity="0.08">
<path d="M817.5 -9.97034H-82.5V102.259H817.5V-9.97034Z" fill="black"/>
</g>
<path d="M810 -13.0738H-90V99.1552H810V-13.0738Z" fill="#006960"/>
<mask id="mask0_8_1384" style="mask-type:luminance" maskUnits="userSpaceOnUse" x="-90" y="-14" width="900" height="114">
<path d="M810 -13.0738H-90V99.1552H810V-13.0738Z" fill="white"/>
</mask>
<g mask="url(#mask0_8_1384)">
<path d="M-37.0825 93.75C-37.0825 93.75 19.9 54.4396 107.565 54.4396C195.23 54.4396 209.84 70.4741 258.058 66.8534C306.273 63.2327 322.345 48.2327 389.555 54.4396C456.765 60.6465 515.208 98.4052 515.208 98.4052L-37.0825 93.75Z" fill="#084A49"/>
</g>
<mask id="mask1_8_1384" style="mask-type:luminance" maskUnits="userSpaceOnUse" x="-90" y="-14" width="900" height="114">
<path d="M810 -13.0738H-90V99.1552H810V-13.0738Z" fill="white"/>
</mask>
<g mask="url(#mask1_8_1384)">
<path d="M38.75 -23.9855C38.75 -23.9855 60 21.5317 142.5 16.3593C225 11.1869 258.75 13.7731 273.75 29.8076C288.75 45.8421 353.75 46.3593 380 37.049C406.25 27.7386 467.525 25.2341 482.5 29.2903C551.25 47.911 670 39.6352 593.75 -25.5372L38.75 -23.9855Z" fill="#084A49"/>
</g>
<mask id="mask2_8_1384" style="mask-type:luminance" maskUnits="userSpaceOnUse" x="-90" y="-14" width="900" height="114">
<path d="M810 -13.0738H-90V99.1552H810V-13.0738Z" fill="white"/>
</mask>
<g mask="url(#mask2_8_1384)">
<path d="M52.0825 -38.4052C52.0825 -38.4052 -37.75 -9.15103 7.16501 9.60207C52.0825 28.3552 47.4975 43.7721 15.0925 56.8593C-15.2325 69.1055 -128.905 83.8634 -114.372 103.367V-39.9052L52.0825 -38.4052Z" fill="#252F2D"/>
</g>
<mask id="mask3_8_1384" style="mask-type:luminance" maskUnits="userSpaceOnUse" x="-90" y="-14" width="900" height="114">
<path d="M810 -13.0738H-90V99.1552H810V-13.0738Z" fill="white"/>
</mask>
<g mask="url(#mask3_8_1384)">
<path opacity="0.4" d="M10.9725 -50.641C10.9725 -50.641 -78.8625 -21.3869 -33.945 -2.6338C10.9725 16.1193 6.3875 31.5362 -26.0175 44.6234C-56.3425 56.8697 -170.015 71.6276 -155.485 91.1297V-52.1421L10.9725 -50.641Z" fill="#04837E"/>
</g>
<mask id="mask4_8_1384" style="mask-type:luminance" maskUnits="userSpaceOnUse" x="-90" y="-14" width="900" height="114">
<path d="M810 -13.0738H-90V99.1552H810V-13.0738Z" fill="white"/>
</mask>
<g mask="url(#mask4_8_1384)">
<path d="M321.25 -30.7097C301.25 -22.8972 269.583 -0.110693 322.918 13.561C376.25 27.2328 471.25 2.4931 527.917 15.5141C584.585 28.5352 558.39 49.4762 614.772 55.319C681.735 62.2593 690.67 38.9193 724.583 34.3945C793.03 25.261 843.678 41.7062 843.678 41.7062L832.915 -28.7566L321.25 -30.7097Z" fill="#252F2D"/>
</g>
<mask id="mask5_8_1384" style="mask-type:luminance" maskUnits="userSpaceOnUse" x="-90" y="-14" width="900" height="114">
<path d="M810 -13.0738H-90V99.1552H810V-13.0738Z" fill="white"/>
</mask>
<g mask="url(#mask5_8_1384)">
<path d="M240.89 -51.7738C214.767 -43.9614 173.405 -21.1748 243.067 -7.50311C312.73 6.16861 436.815 -18.571 510.833 -5.55001C584.85 7.47103 550.635 28.4121 624.283 34.2548C711.748 41.1941 723.417 17.8552 767.715 13.3303C857.12 4.1969 923.275 20.6421 923.275 20.6421L909.217 -49.8207L240.89 -51.7738Z" fill="#04837E"/>
</g>
<mask id="mask6_8_1384" style="mask-type:luminance" maskUnits="userSpaceOnUse" x="-90" y="-14" width="900" height="114">
<path d="M810 -13.0738H-90V99.1552H810V-13.0738Z" fill="white"/>
</mask>
<g mask="url(#mask6_8_1384)">
<path opacity="0.4" d="M274.858 -77.0731C248.735 -69.2607 207.373 -46.4741 277.035 -32.8024C346.698 -19.1307 470.785 -43.8703 544.8 -30.8493C618.815 -17.8283 584.603 3.11172 658.248 8.95552C745.713 15.8948 757.383 -7.44414 801.68 -11.969C891.085 -21.1024 957.24 -4.65724 957.24 -4.65724L943.183 -75.12L274.858 -77.0731Z" fill="#006960"/>
</g>
<mask id="mask7_8_1384" style="mask-type:luminance" maskUnits="userSpaceOnUse" x="-90" y="-14" width="900" height="114">
<path d="M810 -13.0738H-90V99.1552H810V-13.0738Z" fill="white"/>
</mask>
<g mask="url(#mask7_8_1384)">
<path d="M844.687 55.3986C844.687 55.3986 754.352 31.5424 725.922 56.2179C710.095 69.9559 683.432 71.8821 630.917 73.1597C587.742 74.2107 628.082 99.8535 599.215 104.952H845.675L844.687 55.3986Z" fill="#084A49"/>
</g>
<mask id="mask8_8_1384" style="mask-type:luminance" maskUnits="userSpaceOnUse" x="-90" y="-14" width="900" height="114">
<path d="M810 -13.0738H-90V99.1552H810V-13.0738Z" fill="white"/>
</mask>
<g mask="url(#mask8_8_1384)">
<path opacity="0.4" d="M873.38 65.3565C873.38 65.3565 783.045 41.5003 754.615 66.1758C738.788 79.9138 712.125 81.84 659.61 83.1176C616.435 84.1686 665.705 109.811 636.837 114.91H874.368L873.38 65.3565Z" fill="#04837E"/>
</g>
<mask id="mask9_8_1384" style="mask-type:luminance" maskUnits="userSpaceOnUse" x="-90" y="-14" width="900" height="114">
<path d="M810 -13.0738H-90V99.1552H810V-13.0738Z" fill="white"/>
</mask>
<g mask="url(#mask9_8_1384)">
<path d="M896.76 71.0855C896.76 71.0855 806.425 47.2293 777.995 71.9048C762.167 85.6427 735.505 87.569 682.992 88.8466C639.817 89.8976 689.087 115.54 660.22 120.639H897.75L896.76 71.0855Z" fill="#04837E"/>
</g>
<mask id="mask10_8_1384" style="mask-type:luminance" maskUnits="userSpaceOnUse" x="-90" y="-14" width="900" height="114">
<path d="M810 -13.0738H-90V99.1552H810V-13.0738Z" fill="white"/>
</mask>
<g mask="url(#mask10_8_1384)">
<path d="M539.423 136.427C539.423 136.427 510.28 90.9093 397.138 96.0817C283.995 101.254 237.708 98.6679 217.138 82.6334C196.565 66.599 98.1475 67.4327 58.75 75.841C20.04 84.1024 -19.855 86.9296 -69.15 83.1507C-200.808 73.0562 -326.292 72.8059 -221.722 137.978L539.423 136.427Z" fill="#3A6462"/>
</g>
<mask id="mask11_8_1384" style="mask-type:luminance" maskUnits="userSpaceOnUse" x="-90" y="-14" width="900" height="114">
<path d="M810 -13.0738H-90V99.1552H810V-13.0738Z" fill="white"/>
</mask>
<g mask="url(#mask11_8_1384)">
<path d="M389.02 65.3245C347.588 71.3473 301.96 95.669 216.832 81.1862C133.86 67.0697 60.08 84.4024 31.3175 108.918C30.57 109.554 29.855 110.196 29.1675 110.842L578.62 114.98C611.507 70.1524 479.167 52.2207 389.02 65.3245Z" fill="#252F2D"/>
</g>
<mask id="mask12_8_1384" style="mask-type:luminance" maskUnits="userSpaceOnUse" x="-90" y="-14" width="900" height="114">
<path d="M810 -13.0738H-90V99.1552H810V-13.0738Z" fill="white"/>
</mask>
<g mask="url(#mask12_8_1384)">
<path opacity="0.4" d="M379.447 79.0417C341.565 83.6224 299.842 102.123 222.007 91.1069C146.142 80.369 78.68 93.5534 52.38 112.201C51.6975 112.685 51.0425 113.173 50.415 113.665L552.807 116.813C582.882 82.7131 461.875 69.0745 379.447 79.0417Z" fill="#04837E"/>
</g>
<path d="M49.1155 20.0987H48.0761L51.0824 11.9113H52.1059L55.1122 20.0987H54.0728L51.6261 13.2066H51.5622L49.1155 20.0987ZM49.4993 16.9005H53.689V17.78H49.4993V16.9005ZM56.3875 20.0987V11.9113H59.2499C59.8202 11.9113 60.2906 12.0099 60.6611 12.2071C61.0315 12.4017 61.3074 12.6642 61.4886 12.9947C61.6698 13.3225 61.7605 13.6863 61.7605 14.0861C61.7605 14.4379 61.6978 14.7284 61.5726 14.9576C61.45 15.1868 61.2874 15.368 61.0848 15.5013C60.8849 15.6345 60.6677 15.7331 60.4332 15.7971V15.8771C60.6837 15.893 60.9356 15.981 61.1888 16.1409C61.442 16.3008 61.6538 16.53 61.8244 16.8285C61.995 17.127 62.0803 17.4922 62.0803 17.9239C62.0803 18.3343 61.987 18.7035 61.8004 19.0313C61.6139 19.3591 61.3194 19.619 60.9169 19.8109C60.5145 20.0027 59.9908 20.0987 59.3458 20.0987H56.3875ZM57.3789 19.2192H59.3458C59.9934 19.2192 60.4532 19.0939 60.725 18.8434C60.9995 18.5902 61.1368 18.2837 61.1368 17.9239C61.1368 17.6467 61.0662 17.3909 60.9249 17.1563C60.7837 16.9191 60.5824 16.7299 60.3213 16.5887C60.0601 16.4447 59.7509 16.3728 59.3938 16.3728H57.3789V19.2192ZM57.3789 15.5093H59.2179C59.5164 15.5093 59.7856 15.4506 60.0254 15.3334C60.268 15.2161 60.4598 15.0509 60.6011 14.8376C60.745 14.6244 60.817 14.3739 60.817 14.0861C60.817 13.7263 60.6917 13.4211 60.4412 13.1706C60.1907 12.9174 59.7936 12.7908 59.2499 12.7908H57.3789V15.5093ZM68.1869 13.9581C68.1389 13.553 67.9443 13.2385 67.6032 13.0147C67.262 12.7908 66.8436 12.6788 66.3479 12.6788C65.9854 12.6788 65.6683 12.7375 65.3964 12.8547C65.1272 12.972 64.9167 13.1333 64.7648 13.3385C64.6155 13.5437 64.5409 13.7769 64.5409 14.0381C64.5409 14.2566 64.5929 14.4445 64.6968 14.6018C64.8034 14.7563 64.9393 14.8856 65.1046 14.9896C65.2698 15.0908 65.4431 15.1748 65.6243 15.2414C65.8055 15.3054 65.9721 15.3573 66.124 15.3973L66.9555 15.6212C67.1688 15.6772 67.406 15.7545 67.6671 15.8531C67.931 15.9517 68.1829 16.0863 68.4227 16.2568C68.6653 16.4247 68.8651 16.6406 69.0224 16.9045C69.1796 17.1683 69.2583 17.4922 69.2583 17.8759C69.2583 18.3184 69.1423 18.7181 68.9104 19.0753C68.6812 19.4324 68.3454 19.7162 67.903 19.9268C67.4633 20.1373 66.9289 20.2426 66.2999 20.2426C65.7136 20.2426 65.2059 20.148 64.7768 19.9588C64.3503 19.7695 64.0145 19.5057 63.7693 19.1672C63.5268 18.8287 63.3895 18.4356 63.3576 17.9879H64.381C64.4076 18.297 64.5116 18.5529 64.6928 18.7554C64.8767 18.9553 65.1086 19.1046 65.3884 19.2032C65.6709 19.2991 65.9748 19.3471 66.2999 19.3471C66.6784 19.3471 67.0182 19.2858 67.3193 19.1632C67.6205 19.038 67.859 18.8647 68.0349 18.6435C68.2108 18.4196 68.2988 18.1584 68.2988 17.8599C68.2988 17.5881 68.2228 17.3669 68.0709 17.1963C67.919 17.0257 67.7191 16.8872 67.4713 16.7806C67.2234 16.6739 66.9555 16.5807 66.6677 16.5007L65.6603 16.2129C65.0206 16.029 64.5142 15.7665 64.1411 15.4253C63.768 15.0842 63.5814 14.6377 63.5814 14.0861C63.5814 13.6276 63.7054 13.2279 63.9532 12.8867C64.2037 12.5429 64.5396 12.2764 64.9607 12.0872C65.3844 11.8953 65.8575 11.7993 66.3799 11.7993C66.9076 11.7993 67.3766 11.894 67.7871 12.0832C68.1975 12.2697 68.5227 12.5256 68.7625 12.8507C69.0051 13.1759 69.133 13.545 69.1463 13.9581H68.1869ZM70.4406 12.7908V11.9113H76.5812V12.7908H74.0066V20.0987H73.0152V12.7908H70.4406ZM78.1113 20.0987V11.9113H80.8778C81.5174 11.9113 82.0424 12.0205 82.4529 12.2391C82.8633 12.455 83.1671 12.7521 83.3644 13.1306C83.5616 13.509 83.6602 13.9395 83.6602 14.4219C83.6602 14.9043 83.5616 15.332 83.3644 15.7052C83.1671 16.0783 82.8646 16.3714 82.4569 16.5847C82.0491 16.7952 81.5281 16.9005 80.8937 16.9005H78.655V16.005H80.8618C81.2989 16.005 81.6507 15.941 81.9172 15.8131C82.1864 15.6852 82.3809 15.5039 82.5008 15.2694C82.6234 15.0322 82.6847 14.7497 82.6847 14.4219C82.6847 14.0941 82.6234 13.8075 82.5008 13.5624C82.3782 13.3172 82.1824 13.1279 81.9132 12.9947C81.644 12.8587 81.2882 12.7908 80.8458 12.7908H79.1027V20.0987H78.1113ZM81.9651 16.4208L83.98 20.0987H82.8287L80.8458 16.4208H81.9651ZM85.6481 20.0987H84.6087L87.615 11.9113H88.6384L91.6447 20.0987H90.6053L88.1587 13.2066H88.0947L85.6481 20.0987ZM86.0319 16.9005H90.2215V17.78H86.0319V16.9005ZM99.1235 14.4698H98.1321C98.0735 14.1847 97.9709 13.9341 97.8243 13.7183C97.6804 13.5024 97.5044 13.3212 97.2966 13.1746C97.0913 13.0253 96.8635 12.9134 96.6129 12.8388C96.3624 12.7641 96.1012 12.7268 95.8294 12.7268C95.3337 12.7268 94.8846 12.8521 94.4821 13.1026C94.0824 13.3531 93.7639 13.7223 93.5267 14.21C93.2921 14.6977 93.1749 15.296 93.1749 16.005C93.1749 16.7139 93.2921 17.3123 93.5267 17.8C93.7639 18.2877 94.0824 18.6568 94.4821 18.9074C94.8846 19.1579 95.3337 19.2832 95.8294 19.2832C96.1012 19.2832 96.3624 19.2458 96.6129 19.1712C96.8635 19.0966 97.0913 18.986 97.2966 18.8394C97.5044 18.6901 97.6804 18.5076 97.8243 18.2917C97.9709 18.0732 98.0735 17.8226 98.1321 17.5401H99.1235C99.0489 17.9586 98.913 18.333 98.7158 18.6635C98.5185 18.994 98.2734 19.2752 97.9802 19.507C97.687 19.7362 97.3579 19.9108 96.9927 20.0307C96.6303 20.1507 96.2425 20.2106 95.8294 20.2106C95.1311 20.2106 94.5101 20.0401 93.9664 19.6989C93.4227 19.3578 92.995 18.8727 92.6831 18.2437C92.3713 17.6148 92.2154 16.8685 92.2154 16.005C92.2154 15.1415 92.3713 14.3952 92.6831 13.7662C92.995 13.1373 93.4227 12.6522 93.9664 12.3111C94.5101 11.9699 95.1311 11.7993 95.8294 11.7993C96.2425 11.7993 96.6303 11.8593 96.9927 11.9792C97.3579 12.0992 97.687 12.2751 97.9802 12.5069C98.2734 12.7361 98.5185 13.016 98.7158 13.3465C98.913 13.6743 99.0489 14.0487 99.1235 14.4698ZM100.278 12.7908V11.9113H106.418V12.7908H103.844V20.0987H102.852V12.7908H100.278ZM110.667 12.7908V11.9113H116.808V12.7908H114.233V20.0987H113.242V12.7908H110.667ZM118.338 20.0987V11.9113H123.279V12.7908H119.329V15.5572H123.023V16.4367H119.329V19.2192H123.343V20.0987H118.338ZM125.066 11.9113H126.249L129.032 18.7075H129.128L131.91 11.9113H133.094V20.0987H132.166V13.8782H132.086L129.528 20.0987H128.632L126.073 13.8782H125.994V20.0987H125.066V11.9113ZM135.081 20.0987V11.9113H137.848C138.49 11.9113 139.015 12.0272 139.423 12.2591C139.833 12.4883 140.137 12.7988 140.334 13.1906C140.532 13.5823 140.63 14.0194 140.63 14.5018C140.63 14.9842 140.532 15.4226 140.334 15.8171C140.14 16.2115 139.839 16.526 139.431 16.7606C139.023 16.9924 138.501 17.1084 137.864 17.1084H135.881V16.2289H137.832C138.272 16.2289 138.625 16.1529 138.891 16.001C139.158 15.8491 139.351 15.6439 139.471 15.3853C139.594 15.1241 139.655 14.8296 139.655 14.5018C139.655 14.174 139.594 13.8808 139.471 13.6223C139.351 13.3638 139.156 13.1612 138.887 13.0147C138.618 12.8654 138.261 12.7908 137.816 12.7908H136.073V20.0987H135.081ZM142.227 20.0987V11.9113H143.219V19.2192H147.025V20.0987H142.227ZM149.412 20.0987H148.373L151.379 11.9113H152.403L155.409 20.0987H154.37L151.923 13.2066H151.859L149.412 20.0987ZM149.796 16.9005H153.986V17.78H149.796V16.9005ZM155.28 12.7908V11.9113H161.421V12.7908H158.846V20.0987H157.855V12.7908H155.28ZM162.951 20.0987V11.9113H167.892V12.7908H163.942V15.5572H167.636V16.4367H163.942V19.2192H167.956V20.0987H162.951Z" fill="white"/>
<path d="M44.2327 47.6868V23.3901H52.727C54.4195 23.3901 55.8155 23.6828 56.9149 24.268C58.0142 24.8454 58.8328 25.6244 59.3706 26.6052C59.9084 27.578 60.1774 28.6576 60.1774 29.8439C60.1774 30.8879 59.9915 31.75 59.6198 32.4302C59.2559 33.1104 58.7735 33.6482 58.1724 34.0436C57.5792 34.4391 56.9346 34.7317 56.2386 34.9215V35.1588C56.9821 35.2063 57.7295 35.4673 58.4809 35.9418C59.2322 36.4164 59.861 37.0965 60.3672 37.9824C60.8733 38.8682 61.1264 39.9517 61.1264 41.233C61.1264 42.451 60.8496 43.5464 60.296 44.5192C59.7424 45.492 58.8684 46.2632 57.6741 46.8326C56.4799 47.4021 54.9257 47.6868 53.0117 47.6868H44.2327ZM47.1748 45.0768H53.0117C54.9336 45.0768 56.298 44.7051 57.1047 43.9616C57.9193 43.2103 58.3266 42.3007 58.3266 41.233C58.3266 40.4104 58.117 39.6512 57.6979 38.9552C57.2787 38.2513 56.6815 37.6897 55.9065 37.2705C55.1314 36.8435 54.2139 36.6299 53.1541 36.6299H47.1748V45.0768ZM47.1748 34.0674H52.6321C53.5179 34.0674 54.3167 33.8934 55.0285 33.5454C55.7483 33.1974 56.3177 32.707 56.7369 32.0743C57.164 31.4416 57.3775 30.6981 57.3775 29.8439C57.3775 28.7762 57.0058 27.8706 56.2624 27.1272C55.5189 26.3758 54.3405 26.0001 52.727 26.0001H47.1748V34.0674ZM66.9574 47.6868H63.8729L72.7943 23.3901H75.8314L84.7528 47.6868H81.6683L74.4077 27.2339H74.2179L66.9574 47.6868ZM68.0963 38.1959H80.5294V40.8059H68.0963V38.1959ZM107.804 23.3901V47.6868H104.957L91.7167 28.6101H91.4795V47.6868H88.5373V23.3901H91.3846L104.672 42.5143H104.909V23.3901H107.804ZM132.958 23.3901V47.6868H130.11L116.871 28.6101H116.633V47.6868H113.691V23.3901H116.538L129.826 42.5143H130.063V23.3901H132.958ZM138.845 47.6868V23.3901H153.508V26.0001H141.787V34.2097H152.749V36.8197H141.787V45.0768H153.698V47.6868H138.845ZM158.811 47.6868V23.3901H167.021C168.919 23.3901 170.477 23.7144 171.695 24.3629C172.913 25.0036 173.815 25.8854 174.4 27.0085C174.985 28.1316 175.278 29.4089 175.278 30.8405C175.278 32.272 174.985 33.5414 174.4 34.6487C173.815 35.756 172.917 36.626 171.707 37.2587C170.497 37.8835 168.951 38.1959 167.068 38.1959H160.425V35.5385H166.973C168.271 35.5385 169.315 35.3486 170.105 34.969C170.904 34.5894 171.482 34.0515 171.838 33.3556C172.201 32.6516 172.383 31.8133 172.383 30.8405C172.383 29.8677 172.201 29.0174 171.838 28.2898C171.474 27.5622 170.892 27.0006 170.094 26.6052C169.295 26.2018 168.239 26.0001 166.926 26.0001H161.754V47.6868H158.811ZM170.248 36.7723L176.227 47.6868H172.81L166.926 36.7723H170.248Z" fill="white"/>
</g>
<defs>
<clipPath id="clip0_8_1384">
<rect width="800" height="90" fill="white"/>
</clipPath>
</defs>
</svg>
