<svg width="229" height="90" viewBox="0 0 229 90" fill="none" xmlns="http://www.w3.org/2000/svg">
<path d="M136.85 82.0334L5.83621 50.0524L2.17322 40.0312C2.17322 40.0312 2.00548 33.4341 4.94992 27.2783C7.89436 21.1222 18.9135 22.8667 23.9579 28.057C29.0023 33.2469 32.8817 37.3992 32.8817 37.3992L92.7278 48.625C92.7278 48.625 100.642 38.6967 109.953 38.6967C119.264 38.6967 126.764 51.1527 130.126 61.2732C133.487 71.3937 136.85 82.0334 136.85 82.0334Z" fill="#0F1315" stroke="#0F1315" stroke-miterlimit="10" stroke-linecap="round" stroke-linejoin="round"/>
<path d="M23.9579 28.0566C30.2824 28.0566 35.9659 37.3515 35.9659 49.5001C35.9659 61.6487 30.8392 71.4969 24.5148 71.4969L12.2632 72.0503V28.0566H23.9579Z" fill="#0F1315" stroke="#0F1315" stroke-miterlimit="10" stroke-linecap="round" stroke-linejoin="round"/>
<path d="M12.2628 72.0507C5.93851 72.0507 0.81167 62.2023 0.81167 50.0538C0.81167 37.9053 5.93851 28.057 12.2628 28.057C18.5871 28.057 23.7139 37.9053 23.7139 50.0538C23.7139 62.2023 18.5871 72.0507 12.2628 72.0507Z" fill="#5E5E5E" stroke="#0F1315" stroke-miterlimit="10" stroke-linecap="round" stroke-linejoin="round"/>
<path d="M11.4673 69.9959C6.17312 69.9959 1.88135 61.335 1.88135 50.6513C1.88135 39.9676 6.17312 31.3068 11.4673 31.3068C16.7615 31.3068 21.0532 39.9676 21.0532 50.6513C21.0532 61.335 16.7615 69.9959 11.4673 69.9959Z" fill="#0F1315" stroke="#0F1315" stroke-miterlimit="10" stroke-linecap="round" stroke-linejoin="round"/>
<path d="M13.5797 31.7836C13.9557 31.9544 14.3238 32.1676 14.6817 32.4245L13.0754 34.8804C13.0754 34.8804 9.82805 37.4383 9.96353 38.7615C10.0987 40.0846 11.046 41.5842 11.4517 42.1134C11.8574 42.6425 14.0901 44.4069 14.0901 44.4069L14.699 46.877C14.699 46.877 11.8578 45.4656 11.3166 44.2308C10.7754 42.9959 8.06926 35.8508 8.20474 34.616C8.34023 33.3811 8.67821 32.8519 8.67821 32.8519L9.65603 31.6569C9.76101 31.6164 9.86599 31.5765 9.97204 31.5431L13.5797 31.7836ZM9.0836 36.2035L12.1486 32.9889C12.6228 33.1516 13.0073 33.2925 13.0073 33.2925L12.1954 32.9395L12.1486 32.9886C11.4957 32.7644 10.6718 32.4982 10.4366 32.4982C10.0306 32.4982 9.35421 33.1156 9.0836 34.2622C8.81298 35.4095 9.0836 36.2035 9.0836 36.2035Z" fill="#999999" stroke="#0F1315" stroke-miterlimit="10" stroke-linecap="round" stroke-linejoin="round"/>
<path d="M15.6456 66.9888C15.6456 66.9888 13.1428 66.0184 12.8044 65.754C12.466 65.4892 12.7367 67.0771 13.2101 67.7827C13.6836 68.4884 14.0897 68.7532 14.0897 68.7532L15.6456 66.9888Z" fill="white" stroke="#0F1315" stroke-miterlimit="10" stroke-linecap="round" stroke-linejoin="round"/>
<path d="M4.76797 36.8202L4.82153 36.9974C4.82153 36.9974 6.10683 36.38 6.10683 36.9092C6.10683 37.4383 6.9864 38.7615 7.18927 38.938C7.39214 39.1145 9.35416 41.9372 9.35416 41.9372L12.466 46.877L4.68604 39.5554C4.68604 39.5554 4.75379 38.3205 4.07709 41.5842C3.40074 44.8478 3.53586 46.7005 3.53586 46.9649C3.53586 47.2297 7.18893 48.7289 6.78319 49.0819C6.3771 49.4346 6.44483 50.1403 5.83587 50.0524C5.22691 49.9641 2.52115 49.3467 2.52115 49.3467L3.73872 52.7869V56.4918C3.73872 56.4918 7.45955 53.4043 9.55669 52.8751C11.6538 52.346 13.8187 52.7869 13.8187 52.7869L13.1424 57.021C13.1424 57.021 14.9689 54.1982 15.3073 53.8456C15.6456 53.4929 16.1868 53.9338 16.1868 53.9338L17.0664 54.9922C17.0664 54.9922 17.4048 58.6088 17.946 59.2263C18.2226 59.5419 18.6929 59.8106 19.0873 59.9989C19.4331 58.8491 19.9757 56.4918 19.9757 56.4918C20.2463 55.1687 20.1109 54.463 20.1109 54.463L17.8782 55.0804C17.8782 55.0804 16.2546 52.8751 16.1868 52.6104C16.1191 52.3456 16.1191 50.7581 16.3219 49.9641C16.5248 49.1702 17.1338 48.7293 17.1338 48.7293L16.1191 46.1713L16.5926 45.9065L17.7427 49.0819L17.675 52.3456L20.3134 51.3752C20.3811 46.2589 19.3664 42.8187 19.3664 42.8187L17.5399 42.5539C17.5399 42.5539 16.8635 42.4657 16.6603 42.6422C16.4574 42.8187 15.3073 46.3471 15.3073 46.3471L15.0366 45.4649C15.0366 45.4649 15.8485 42.3774 16.5248 40.2604C17.2012 38.1433 18.2162 38.849 18.2162 38.849C17.6073 36.9967 16.2542 35.1441 16.2542 35.1441L15.0366 37.0846L13.2101 36.0259L13.5484 34.6145L14.6813 32.4235C18.3943 35.0903 21.0529 42.2422 21.0529 50.6502C21.0529 54.1616 20.585 57.4491 19.7746 60.2878L19.7764 60.291C19.7654 60.3298 19.7534 60.3675 19.7424 60.406C19.7317 60.4426 19.7225 60.4811 19.7119 60.5177H19.7094C18.0385 66.1899 14.9746 69.9952 11.4673 69.9952C6.17316 69.9952 1.88133 61.3341 1.88133 50.6506C1.88133 45.2297 2.9879 40.3322 4.76797 36.8202ZM16.728 65.4892C16.9987 65.1365 18.2162 62.6664 18.2162 62.6664C18.2162 62.6664 16.6603 60.9021 16.2542 60.2846C15.8485 59.6672 15.713 55.5214 15.713 55.5214C15.713 55.5214 13.3452 59.7554 12.9391 61.1668C12.5334 62.5782 12.804 63.1074 13.2098 63.7248C13.6162 64.3426 16.4574 65.8422 16.728 65.4892ZM3.53621 59.932C3.53621 59.932 4.82152 57.5501 5.56561 57.9914C6.3097 58.4323 6.51257 59.0498 7.18927 59.6676C7.86598 60.285 9.62477 59.7558 9.62477 59.7558C9.62477 59.7558 7.79825 65.0483 7.52764 65.8422C7.25703 66.6361 7.93338 67.6945 8.33947 68.0475C8.74521 68.4005 9.28643 68.1358 9.76026 68.1358C10.2337 68.1358 11.2484 68.4005 11.2484 68.4005L12.8044 68.9297C12.8044 68.9297 11.6542 66.46 11.519 65.666C11.3839 64.8721 11.3839 62.0494 11.3839 62.0494L9.48965 66.5482L8.20433 65.9308C8.20433 65.9308 11.7897 56.9334 11.9929 56.6687C12.1958 56.4039 12.5341 54.9046 12.5341 54.4634C12.5341 54.0224 12.8725 53.3168 12.8725 53.3168C12.8725 53.3168 10.3692 53.405 8.61043 54.7281C6.85164 56.0512 3.87492 57.6391 3.67205 57.9918C3.46847 58.3441 3.53621 59.932 3.53621 59.932Z" fill="#999999" stroke="#0F1315" stroke-miterlimit="10" stroke-linecap="round" stroke-linejoin="round"/>
<path d="M8.33948 50.0524L11.9925 48.1118L13.4807 48.8175C13.4807 48.8175 11.7219 49.8762 10.504 50.3171C9.28642 50.7581 8.33948 50.0524 8.33948 50.0524Z" fill="#999999" stroke="#0F1315" stroke-miterlimit="10" stroke-linecap="round" stroke-linejoin="round"/>
<path d="M125.665 43.745C134.108 43.745 140.953 53.8623 140.953 66.3429C140.953 78.8232 134.109 88.9408 125.665 88.9408H110.053V43.745H125.665Z" fill="#0F1315" stroke="#0F1315" stroke-miterlimit="10" stroke-linecap="round" stroke-linejoin="round"/>
<path d="M110.053 88.9408C101.609 88.9408 94.765 78.8234 94.765 66.3429C94.765 53.8624 101.609 43.745 110.053 43.745C118.496 43.745 125.34 53.8624 125.34 66.3429C125.34 78.8234 118.496 88.9408 110.053 88.9408Z" fill="#5E5E5E" stroke="#0F1315" stroke-miterlimit="10" stroke-linecap="round" stroke-linejoin="round"/>
<path d="M108.99 86.8298C101.923 86.8298 96.1932 77.9323 96.1932 66.9568C96.1932 55.9812 101.923 47.0838 108.99 47.0838C116.058 47.0838 121.787 55.9812 121.787 66.9568C121.787 77.9323 116.058 86.8298 108.99 86.8298Z" fill="#0F1315" stroke="#0F1315" stroke-miterlimit="10" stroke-linecap="round" stroke-linejoin="round"/>
<path d="M111.81 47.5738C112.312 47.7492 112.803 47.9681 113.281 48.2321L111.136 50.7549C111.136 50.7549 106.801 53.383 106.982 54.742C107.162 56.1014 108.427 57.642 108.969 58.1857C109.511 58.7295 112.491 60.5419 112.491 60.5419L113.304 63.0793C113.304 63.0793 109.511 61.6295 108.788 60.3608C108.066 59.0921 104.453 51.752 104.634 50.4834C104.814 49.2147 105.266 48.6709 105.266 48.6709L106.571 47.4432C106.711 47.4016 106.851 47.3606 106.993 47.3261L111.81 47.5738ZM105.808 52.1143L109.9 48.8119C110.533 48.9791 111.046 49.1239 111.046 49.1239L109.962 48.7613L109.9 48.8119C109.029 48.5816 107.928 48.3083 107.615 48.3083C107.073 48.3083 106.17 48.9428 105.808 50.1207C105.447 51.2986 105.808 52.1143 105.808 52.1143Z" fill="#999999"/>
<path d="M109.9 48.8119L105.808 52.1143C105.808 52.1143 105.447 51.2986 105.808 50.1207C106.17 48.9428 107.073 48.3083 107.615 48.3083C107.928 48.3083 109.029 48.5816 109.9 48.8119ZM109.9 48.8119C110.533 48.9791 111.046 49.1239 111.046 49.1239L109.962 48.7613L109.9 48.8119ZM111.81 47.5738C112.312 47.7492 112.803 47.9681 113.281 48.2321L111.136 50.7549C111.136 50.7549 106.801 53.383 106.982 54.742C107.162 56.1014 108.427 57.642 108.969 58.1857C109.511 58.7295 112.491 60.5419 112.491 60.5419L113.304 63.0793C113.304 63.0793 109.511 61.6295 108.788 60.3608C108.066 59.0921 104.453 51.752 104.634 50.4834C104.814 49.2147 105.266 48.6709 105.266 48.6709L106.571 47.4432C106.711 47.4016 106.851 47.3606 106.993 47.3261L111.81 47.5738Z" stroke="#0F1315" stroke-miterlimit="10" stroke-linecap="round" stroke-linejoin="round"/>
<path d="M114.569 83.7405C114.569 83.7405 111.227 82.7437 110.775 82.4718C110.324 82.2 110.685 83.8313 111.317 84.5562C111.95 85.2811 112.491 85.5529 112.491 85.5529L114.569 83.7405Z" fill="white" stroke="#0F1315" stroke-miterlimit="10" stroke-linecap="round" stroke-linejoin="round"/>
<path d="M100.047 52.7477L100.118 52.9299C100.118 52.9299 101.834 52.2954 101.834 52.8392C101.834 53.383 103.008 54.7424 103.279 54.9235C103.55 55.1046 106.169 58.0046 106.169 58.0046L110.324 63.0792L99.9378 55.5577C99.9378 55.5577 100.028 54.289 99.1249 57.642C98.2219 60.9949 98.4025 62.8978 98.4025 63.1696C98.4025 63.4415 103.279 64.9821 102.738 65.3447C102.196 65.707 102.286 66.4322 101.473 66.3415C100.66 66.2507 97.0476 65.6166 97.0476 65.6166L98.6734 69.1507V72.9567C98.6734 72.9567 103.641 69.7848 106.441 69.2414C109.24 68.6977 112.131 69.1507 112.131 69.1507L111.227 73.5005C111.227 73.5005 113.666 70.6005 114.117 70.2382C114.569 69.8756 115.291 70.329 115.291 70.329L116.465 71.4165C116.465 71.4165 116.917 75.1317 117.639 75.7663C118.008 76.0904 118.636 76.3666 119.163 76.5598C119.625 75.3784 120.349 72.957 120.349 72.957C120.71 71.5976 120.529 70.8727 120.529 70.8727L117.549 71.5069C117.549 71.5069 115.381 69.2414 115.291 68.9696C115.201 68.6977 115.201 67.0664 115.471 66.2511C115.742 65.4354 116.555 64.9824 116.555 64.9824L115.201 62.3544L115.833 62.0825L117.368 65.3447L117.278 68.6977L120.8 67.7009C120.89 62.4447 119.536 58.9106 119.536 58.9106L117.097 58.6387C117.097 58.6387 116.194 58.548 115.923 58.7295C115.652 58.9106 114.117 62.5355 114.117 62.5355L113.756 61.6295C113.756 61.6295 114.839 58.4576 115.742 56.2829C116.646 54.1079 118 54.8331 118 54.8331C117.187 52.9299 115.381 51.0271 115.381 51.0271L113.755 53.0207L111.317 51.9332L111.768 50.4834L113.281 48.2325C118.237 50.9723 121.787 58.3195 121.787 66.9571C121.787 70.5645 121.162 73.9417 120.08 76.8581L120.083 76.8613C120.068 76.9011 120.052 76.9399 120.037 76.9794C120.023 77.0171 120.011 77.0566 119.996 77.094H119.993C117.762 82.921 113.672 86.8302 108.99 86.8302C101.922 86.8302 96.1925 77.9328 96.1925 66.9571C96.1929 61.3875 97.6701 56.3559 100.047 52.7477ZM116.014 82.2C116.375 81.8373 118.001 79.3 118.001 79.3C118.001 79.3 115.923 77.4876 115.381 76.8531C114.839 76.2189 114.659 71.9595 114.659 71.9595C114.659 71.9595 111.498 76.3093 110.956 77.7591C110.414 79.2089 110.776 79.7527 111.318 80.3872C111.859 81.0221 115.652 82.5626 116.014 82.2ZM98.4025 76.4912C98.4025 76.4912 100.118 74.0446 101.112 74.4976C102.105 74.9506 102.376 75.5851 103.279 76.2193C104.182 76.8534 106.531 76.31 106.531 76.31C106.531 76.31 104.092 81.7473 103.731 82.563C103.37 83.3786 104.273 84.4661 104.815 84.8284C105.357 85.191 106.079 84.9191 106.712 84.9191C107.344 84.9191 108.698 85.191 108.698 85.191L110.776 85.7348C110.776 85.7348 109.24 83.1975 109.06 82.3818C108.879 81.5662 108.879 78.6666 108.879 78.6666L106.351 83.2882L104.635 82.6537C104.635 82.6537 109.421 73.4104 109.692 73.1385C109.963 72.8667 110.415 71.3261 110.415 70.8731C110.415 70.4201 110.866 69.6952 110.866 69.6952C110.866 69.6952 107.524 69.7859 105.176 71.145C102.828 72.5044 98.8543 74.1353 98.5833 74.4979C98.312 74.8599 98.4025 76.4912 98.4025 76.4912Z" fill="#999999" stroke="#0F1315" stroke-miterlimit="10" stroke-linecap="round" stroke-linejoin="round"/>
<path d="M104.815 66.3415L109.692 64.3479L111.679 65.0728C111.679 65.0728 109.33 66.1603 107.705 66.6134C106.079 67.0667 104.815 66.3415 104.815 66.3415Z" fill="#999999" stroke="#0F1315" stroke-miterlimit="10" stroke-linecap="round" stroke-linejoin="round"/>
<path d="M134.081 3.63508C135.99 3.98169 137.841 4.59307 139.591 5.43683C140.806 6.0233 142.64 6.84677 145.363 7.95352C152.01 10.6549 171.275 23.486 172.958 24.1611C174.641 24.8365 177.08 25.2586 177.417 25.3429C177.753 25.4273 188.27 25.765 193.738 26.7782C199.207 27.7909 205.264 31.0834 208.377 32.856C211.49 34.6286 216.033 38.3431 216.622 38.7652C217.211 39.1872 220.744 39.947 221.586 41.6352C222.427 43.3235 222.511 45.9405 222.343 47.0377C222.175 48.1351 222.343 49.992 222.343 49.992C222.343 49.992 226.55 70.8426 226.802 71.9401C227.054 73.0376 228.821 76.9205 228.148 77.7646C227.475 78.6087 225.371 80.3813 222.763 80.8033C220.155 81.2254 212.247 80.6347 212.247 80.6347L186.84 83.8424C186.84 83.8424 179.352 87.8943 175.987 88.0634C172.622 88.2321 149.57 89.0762 147.971 88.7388C146.373 88.4011 127.023 85.8687 127.023 85.8687C127.023 85.8687 128.537 73.6287 127.276 66.7911C126.014 59.9535 121.975 49.9081 118.105 46.2782C114.235 42.6484 109.86 40.116 103.887 42.2263C97.9137 44.3366 94.4642 51.0899 94.5487 60.2068C94.6327 69.3238 98.0822 81.9016 98.0822 81.9016L82.0974 78.6094L37.8449 68.564C37.8449 68.564 22.1967 66.8758 22.1967 66.6224C22.1967 66.369 24.2998 57.3368 24.6364 50.6678C24.973 43.9989 20.2616 34.7133 16.8965 30.6614C13.5314 26.6095 8.90411 27.5379 6.12778 29.8173C3.35144 32.0966 2.1736 40.0317 2.1736 40.0317L1.24828 41.5512C1.24828 41.5512 1.50081 34.3759 2.76271 29.8176C4.02461 25.2593 5.11839 21.2918 7.97878 18.3374C10.8392 15.3829 14.2887 14.7075 16.7284 14.6232C19.1682 14.5388 24.3842 13.4413 25.0574 13.188C25.7306 12.9346 60.14 4.15536 60.14 4.15536C60.14 4.15536 76.6295 0.609854 96.9891 0.778891C116.082 0.93654 118.453 0.798108 134.081 3.63508Z" fill="#37B07D" fill-opacity="0.5"/>
<path d="M144.132 86.6511C143.517 85.7259 140.443 75.8545 140.443 75.8545L147.053 76.7798L214.073 73.541L226.22 69.1325C226.533 70.6631 226.75 71.7154 226.801 71.94C227.054 73.0375 228.82 76.9203 228.147 77.7648C227.474 78.6089 225.371 80.3815 222.763 80.8035C220.155 81.2256 212.247 80.6349 212.247 80.6349L186.84 83.8426C186.84 83.8426 179.352 87.8945 175.987 88.0636C172.716 88.2276 150.854 89.0294 148.159 88.7646C146.222 87.9276 144.406 87.0618 144.132 86.6511Z" fill="#5E5E5E" stroke="#0F1315" stroke-miterlimit="10" stroke-linecap="round" stroke-linejoin="round"/>
<path d="M218.273 72.0168L225.09 70.7364L226.468 73.1556L227.272 76.3812C227.272 76.3812 227.272 76.3812 226.124 76.957C224.976 77.5331 224.517 78.8004 223.483 79.4915C222.45 80.1826 220.384 80.6434 217.973 80.2979C215.562 79.9523 212.347 79.7217 212.347 79.7217L187.548 82.832L185.251 82.3711L182.152 78.8L208.8 73.7955L214.073 73.5407L218.273 72.0168Z" fill="#0F1315" stroke="#0F1315" stroke-miterlimit="10" stroke-linecap="round" stroke-linejoin="round"/>
<path d="M70.1405 2.50718C76.8604 1.60684 86.4002 0.690129 96.988 0.778028C116.082 0.936388 118.453 0.7976 134.08 3.63493C135.99 3.98154 137.841 4.59292 139.59 5.43668C140.806 6.02315 142.639 6.84662 145.363 7.95336C151.223 10.3352 166.89 20.5895 171.67 23.446C171.989 23.6919 173.686 24.9702 174.977 25.4271C176.407 25.9335 177.08 26.3556 176.491 26.609C175.902 26.8623 127.695 29.9011 125.929 29.9011C124.162 29.9011 103.634 29.6477 103.634 29.6477C103.634 29.6477 102.12 29.7321 100.521 28.4659C98.9228 27.1997 90.5938 13.7775 86.9762 9.47256C83.3586 5.16728 76.4599 3.22568 71.412 2.63494C70.9633 2.58263 70.5448 2.54241 70.1405 2.50718Z" fill="#0F1315" stroke="#0F1315" stroke-miterlimit="10" stroke-linecap="round" stroke-linejoin="round"/>
<path d="M138.212 5.16764C138.212 5.16764 131.482 3.31038 112.805 4.07015C94.128 4.82993 84.7897 5.75839 84.7056 6.0961C84.6215 6.43382 92.2774 15.2131 96.2316 20.3621C100.186 25.5115 101.532 27.7908 102.625 28.3815C103.719 28.9723 122.649 28.9723 125.004 28.9723C127.36 28.9723 170.687 26.5243 171.36 26.2709C172.033 26.0175 172.538 25.5111 171.949 24.7514C171.36 23.9916 149.739 10.5697 145.364 8.45941C140.988 6.34948 138.212 5.16764 138.212 5.16764Z" fill="#0F1315" stroke="#696969" stroke-miterlimit="10" stroke-linecap="round" stroke-linejoin="round"/>
<path d="M25.0567 13.1871C25.3709 13.069 33.0346 11.0932 41.1189 9.01991C43.7998 9.02098 48.1991 8.84909 51.7262 7.86903C57.1948 6.34948 67.9636 3.98581 75.5353 6.1808C83.1071 8.37579 88.996 17.9144 88.996 17.9144L96.1472 29.7324C96.1472 29.7324 88.4913 31.252 76.7128 29.3947C64.9344 27.5374 42.0509 21.2066 38.0127 19.0116C33.9744 16.8169 33.6379 14.3686 33.6379 14.3686C33.6379 14.3686 22.5258 14.2853 21.6296 13.9533C23.2912 13.6415 24.7251 13.312 25.0567 13.1871Z" fill="#5E5E5E" stroke="#0F1315" stroke-miterlimit="10" stroke-linecap="round" stroke-linejoin="round"/>
<path d="M40.7049 16.3105C40.7049 16.3105 39.9477 16.3949 40.5368 15.2977C41.1259 14.2003 47.0989 9.81064 57.5314 8.29144C67.9636 6.77189 72.9271 6.7719 76.7972 8.46013C80.6674 10.1484 87.3975 18.2522 87.3975 18.2522L94.2961 29.1417C94.2961 29.1417 84.9578 29.5637 75.619 28.2132C66.2807 26.8627 46.0051 20.4471 43.4813 18.9276C40.9575 17.408 40.7049 16.3105 40.7049 16.3105Z" fill="#0F1315" stroke="#0F1315" stroke-miterlimit="10" stroke-linecap="round" stroke-linejoin="round"/>
<path d="M90.747 23.5393L94.2961 29.1413C94.2961 29.1413 92.2873 29.2317 89.2038 29.1947L90.747 23.5393Z" fill="#5E5E5E" stroke="#0F1315" stroke-miterlimit="10" stroke-linecap="round" stroke-linejoin="round"/>
<path d="M49.3705 9.64196C49.3705 9.64196 40.8734 11.4145 34.2269 14.3693" stroke="#0F1315" stroke-miterlimit="10" stroke-linecap="round" stroke-linejoin="round"/>
<path d="M5.06275 22.793C5.80223 21.1354 6.71904 19.6375 7.97847 18.3365C8.14693 18.1625 8.31788 17.9977 8.49025 17.839C9.71846 18.3304 11.5961 19.1959 11.5961 19.4336C11.5961 19.7713 10.0816 20.1091 7.89441 21.1219C6.78217 21.6372 5.78024 22.2823 5.06275 22.793Z" fill="#0F1315" stroke="#0F1315" stroke-miterlimit="10" stroke-linecap="round" stroke-linejoin="round"/>
<path d="M83.5104 33.9395C83.5104 33.9395 84.9425 34.5274 84.9425 35.2459C84.9425 35.9643 84.9425 36.1604 84.2264 36.291C83.5104 36.4216 78.8231 36.2256 77.9116 36.0298C77.0001 35.8337 76.284 35.1807 76.4794 34.5928C76.6749 34.005 76.6096 33.7437 77.1955 33.4825C77.7814 33.2213 79.3437 33.4825 80.7759 33.6131C82.2084 33.7434 83.5104 33.9395 83.5104 33.9395Z" fill="#0F1315" stroke="#0F1315" stroke-miterlimit="10" stroke-linecap="round" stroke-linejoin="round"/>
<path d="M190.898 37.154C190.898 37.154 196.25 38.5583 200.037 42.1931C203.824 45.8279 204.812 49.1321 202.754 49.6278C200.696 50.1236 190.651 51.5278 187.44 49.8755C184.23 48.2232 176.573 43.1016 173.115 41.8625C169.657 40.6233 168.093 39.4668 168.669 39.0536C169.246 38.6412 186.535 36.5757 190.898 37.154Z" fill="#0F1315"/>
<path d="M221.586 41.6351C222.427 43.3233 222.511 45.9404 222.343 47.0375C222.175 48.135 222.343 49.9919 222.343 49.9919C222.343 49.9919 225.739 66.8279 226.611 71.0371C225.861 73.0371 223.038 75.3196 222.102 75.8972C221.032 76.5581 197.238 81.1843 182.254 80.9363C167.27 80.6886 143.477 79.8623 142.983 79.7797C142.489 79.6972 142.406 79.6972 141.501 78.8712C140.595 78.0452 133.597 58.9626 130.88 53.1797C128.164 47.3973 126.599 45.1667 128.987 43.1842C131.374 41.2016 141.419 44.3407 143.806 45.0841C146.194 45.8275 168.341 53.0146 170.975 53.2623C173.61 53.51 186.289 53.51 186.289 53.51L213.293 51.61C213.293 51.61 217.904 48.3884 218.727 45.1663C219.55 41.9447 216.622 38.7643 216.622 38.7643C217.211 39.1871 220.744 39.9469 221.586 41.6351Z" fill="#A6A6A6" stroke="#0F1315" stroke-miterlimit="10" stroke-linecap="round" stroke-linejoin="round"/>
<path d="M128.986 43.1845C131.374 41.202 141.418 44.3411 143.805 45.0845C146.193 45.8279 168.34 53.015 170.975 53.2627C173.609 53.5103 186.956 53.8804 186.956 53.8804L213.292 51.6107C213.292 51.6107 217.903 48.3891 218.726 45.1671C219.55 41.9454 216.622 38.765 216.622 38.765C217.21 39.1871 220.744 39.9468 221.585 41.6351C222.427 43.3233 222.511 45.9404 222.343 47.0375C222.286 47.4083 222.268 47.8656 222.268 48.309L222.184 48.3887C222.184 48.3887 219.549 54.0886 215.186 54.915C210.822 55.7409 182.336 59.0455 175.008 58.3017C167.681 57.5583 135.901 51.2801 135.901 51.2801C135.901 51.2801 135.243 50.4542 134.255 50.2061C133.38 49.9866 130.315 49.6374 128.937 49.1015C127.598 46.1742 127.264 44.6144 128.986 43.1845Z" fill="#D9D9D9" stroke="#0F1315" stroke-miterlimit="10" stroke-linecap="round" stroke-linejoin="round"/>
<path d="M217.35 54.0655C216.687 54.463 215.965 54.7676 215.186 54.915C210.949 55.7171 183.97 58.8555 175.7 58.3562C175.104 57.4445 173.576 55.3271 171.058 53.2694C173.855 53.5104 186.956 53.8801 186.956 53.8801L209.539 51.8744C212.796 51.6453 215.829 50.0076 217.685 47.3129C217.834 47.0976 217.972 46.8791 218.099 46.6578C217.769 47.9368 217.101 50.7488 217.184 52.2424C217.221 52.9168 217.284 53.5374 217.35 54.0655Z" fill="#0F1315" stroke="#0F1315" stroke-miterlimit="10" stroke-linecap="round" stroke-linejoin="round"/>
<path d="M173.801 55.9004C174.318 55.953 174.99 55.9879 175.866 55.9879C179.479 55.9879 213.251 53.1218 214.596 52.7004C215.712 52.3502 216.884 51.2463 217.25 50.8819C217.191 51.3897 217.162 51.8598 217.183 52.2428C217.183 52.2428 216.444 53.1217 215.268 53.5434C214.199 53.9264 180.846 56.5334 174.727 57.0092C174.461 56.6694 174.154 56.2972 173.801 55.9004Z" fill="#BABABA" stroke="#0F1315" stroke-miterlimit="10" stroke-linecap="round" stroke-linejoin="round"/>
<path d="M129.076 49.1019L134.393 50.2065L136.04 51.2805C136.04 51.2805 135.803 53.1072 137.552 54.3132C139.3 55.5192 138.431 56.0801 146.625 57.5053C154.821 58.9306 176.674 66.2764 176.674 66.2764C176.674 66.2764 183.777 74.4994 185.088 75.2666C186.399 76.0342 186.727 76.1438 187.273 76.1438C187.82 76.1438 216.12 72.6353 217.65 72.4161C219.18 72.1969 218.852 73.0738 219.18 72.1969C219.507 71.3197 220.382 57.2861 220.709 55.532C220.922 54.3918 221.763 52.146 222.403 50.4823C222.61 52.2979 225.76 67.5731 226.438 71.192C225.688 73.1919 223.176 75.32 222.24 75.8979C221.17 76.5588 197.376 81.185 182.392 80.937C167.408 80.6893 143.615 79.863 143.121 79.7804C142.627 79.6979 142.544 79.6979 141.639 78.8719C140.733 78.0459 133.735 58.9633 131.018 53.1805C130.26 51.5684 129.593 50.2332 129.076 49.1019Z" fill="#37B07D" fill-opacity="0.5"/>
<path d="M130.023 49.3271L134.255 50.2061L135.902 51.2801C135.902 51.2801 135.86 52.525 136.819 53.6253C138.074 55.0641 138.384 55.7064 144.246 57.0566C145.138 60.4466 147.225 68.8471 146.269 69.8941C145.067 71.2097 141.679 74.3894 141.679 74.3894L130.023 49.3271Z" fill="#0F1315" stroke="#0F1315" stroke-miterlimit="10" stroke-linecap="round" stroke-linejoin="round"/>
<path d="M134.525 58.6476L145.561 62.1561L135.618 60.2925L134.525 58.6476Z" fill="#999999" stroke="#0F1315" stroke-miterlimit="10" stroke-linecap="round" stroke-linejoin="round"/>
<path d="M137.038 64.349L145.902 66.8621L138.022 65.9934L137.038 64.349Z" fill="#999999" stroke="#0F1315" stroke-miterlimit="10" stroke-linecap="round" stroke-linejoin="round"/>
<path d="M130.331 49.3912L134.255 50.2061L134.392 50.2442C134.903 50.3862 135.362 50.6727 135.714 51.0695L135.902 51.2801C135.902 51.2801 135.951 52.525 136.819 53.6253C138.002 55.1242 138.384 55.7064 144.246 57.0566C144.372 57.5356 144.522 58.117 144.684 58.7615C143.231 58.4402 136.3 56.8217 134.249 54.7644C132.662 53.1712 131.127 50.7392 130.331 49.3912Z" fill="#BABABA" stroke="#0F1315" stroke-miterlimit="10" stroke-linecap="round" stroke-linejoin="round"/>
<path d="M222.319 52.6812C222.319 52.6812 221.117 55.3125 221.008 57.2861C220.899 59.2597 220.68 64.6319 220.68 64.6319L225.051 67.2632L222.319 52.6812Z" fill="#0F1315" stroke="#0F1315" stroke-miterlimit="10" stroke-linecap="round" stroke-linejoin="round"/>
<path d="M217.73 55.3125L218.495 70.3329" stroke="white" stroke-miterlimit="10" stroke-linecap="round" stroke-linejoin="round"/>
<path d="M178.175 59.5882L186.261 75.047" stroke="white" stroke-miterlimit="10" stroke-linecap="round" stroke-linejoin="round"/>
<path opacity="0.49" d="M184.195 63.5999C196.323 63.3807 216.45 60.9736 216.45 60.9736L216.419 61.8907L216.855 67.0436L216.965 68.3592C216.965 68.3592 195.938 71.5759 187.196 71.2468L186.588 69.8941L184.731 64.6315L184.195 63.5999Z" fill="white"/>
<path opacity="0.3" d="M1.24796 41.5508C1.24796 41.5508 1.42421 36.5519 2.21654 32.2484C3.30891 30.3143 5.00777 28.2598 7.60854 27.0261C13.6184 24.1756 20.2836 31.4114 22.3595 34.1526C24.4357 36.8935 26.0746 36.7839 26.0746 31.7406C26.0746 26.6972 20.0648 22.2023 20.0648 22.2023C20.0648 22.2023 88.0292 43.5817 88.7942 43.6913C89.5592 43.8009 89.8869 48.0766 92.7278 48.625C95.5687 49.1734 95.5687 42.1564 106.168 39.5252C116.767 36.8939 125.727 51.9143 127.584 54.7648C129.442 57.6153 130.207 56.5188 130.207 56.5188L131.409 54.7648C131.409 54.7648 142.773 82.0644 144.412 84.9149C145.138 86.1775 147.728 87.6113 150.39 88.818C149.111 88.8191 148.24 88.7956 147.972 88.7394C146.374 88.4017 127.024 85.8693 127.024 85.8693C127.024 85.8693 128.538 73.6289 127.276 66.7917C126.014 59.9544 121.976 49.9086 118.106 46.2788C114.236 42.6489 109.861 40.1166 103.888 42.2269C97.9145 44.3372 94.465 51.0905 94.5494 60.2074C94.6334 69.3244 98.0829 81.9021 98.0829 81.9021L82.0981 78.61L37.8456 68.5646C37.8456 68.5646 22.1974 66.8764 22.1974 66.623C22.1974 66.3696 24.3006 57.3373 24.6371 50.6684C24.9737 43.9995 20.2623 34.7138 16.8973 30.6619C13.5322 26.61 8.90485 27.5385 6.12852 29.8178C3.35219 32.0972 2.17435 40.0319 2.17435 40.0319L1.24796 41.5508Z" fill="black"/>
<path opacity="0.35" d="M32.9583 32.5078C32.9583 32.5078 42.1368 57.9437 43.011 58.6014C43.8853 59.2594 59.1827 63.2063 59.1827 63.2063C59.1827 63.2063 45.1965 59.2594 43.776 57.0665C42.3552 54.874 32.9583 32.5078 32.9583 32.5078Z" fill="white"/>
<path d="M37.8446 68.5635C37.8446 68.5635 22.1963 66.8753 22.1963 66.6219C22.1963 66.3685 24.2995 57.3363 24.6361 50.6673C24.6396 50.5994 24.6393 50.5296 24.6417 50.4613C26.6811 50.8883 30.1824 51.7011 31.3194 52.4616C32.9583 53.558 36.2365 56.7374 44.978 59.8074C53.7194 62.8771 87.9203 70.4421 87.9203 70.4421L90.7612 67.7013L95.2906 68.5208C96.3273 75.4997 98.0822 81.901 98.0822 81.901L82.0974 78.6089L37.8446 68.5635Z" fill="#5E5E5E" stroke="#0F1315" stroke-miterlimit="10" stroke-linecap="round" stroke-linejoin="round"/>
<path d="M84.751 77.3495C83.8768 77.6783 82.784 77.3495 82.784 77.3495C82.784 77.3495 44.4311 68.5785 42.3549 67.482C40.2787 66.3856 32.958 53.6676 31.3187 52.4616C32.9576 53.558 36.2358 56.7373 44.9773 59.8074C53.7188 62.8771 87.9196 70.4421 87.9196 70.4421L90.7605 67.7012C90.7605 67.7012 85.6253 77.0207 84.751 77.3495Z" fill="#0F1315" stroke="#0F1315" stroke-miterlimit="10" stroke-linecap="round" stroke-linejoin="round"/>
<path d="M127.766 75.0627L140.786 76.9289C142.501 80.8886 143.91 84.0437 144.411 84.9145C145.137 86.1771 147.728 87.6109 150.389 88.8177C150.234 88.8177 150.085 88.8177 149.942 88.817C149.935 88.817 149.928 88.817 149.921 88.817C149.637 88.8155 149.378 88.8127 149.147 88.8084C149.134 88.8081 149.123 88.8081 149.111 88.8077C149.013 88.8056 148.922 88.8034 148.835 88.801C148.817 88.8006 148.8 88.7999 148.783 88.7995C148.595 88.7935 148.434 88.786 148.303 88.7767C148.286 88.7757 148.271 88.7743 148.256 88.7732C148.209 88.7696 148.167 88.7657 148.129 88.7614C148.115 88.76 148.1 88.7586 148.088 88.7568C148.042 88.7511 148.002 88.7454 147.972 88.739C146.373 88.4013 127.023 85.869 127.023 85.869C127.023 85.869 127.673 80.611 127.766 75.0627Z" fill="#0F1315" stroke="#0F1315" stroke-miterlimit="10" stroke-linecap="round" stroke-linejoin="round"/>
<path d="M90.3536 61.9504C90.5065 63.9707 90.6516 65.1796 90.6516 65.1796" stroke="#0F1315" stroke-miterlimit="10" stroke-linecap="round" stroke-linejoin="round"/>
<path d="M94.6944 31.0826C94.6944 31.0826 90.87 36.1259 90.2143 46.103C89.878 51.2175 90.0014 56.1018 90.2015 59.6476" stroke="#0F1315" stroke-miterlimit="10" stroke-linecap="round" stroke-linejoin="round"/>
<path d="M40.5808 24.9759C39.7047 26.5289 38.9677 28.6545 38.9677 31.4114C38.9677 38.2088 46.2888 56.4089 48.3646 59.0402" stroke="#0F1315" stroke-miterlimit="10" stroke-linecap="round" stroke-linejoin="round"/>
<path d="M43.4479 21.6539C43.4479 21.6539 42.5574 22.2421 41.5707 23.4966" stroke="#0F1315" stroke-miterlimit="10" stroke-linecap="round" stroke-linejoin="round"/>
<path d="M114.519 31.3481C112.79 30.9922 110.963 30.6683 109.034 30.3844" stroke="#0F1315" stroke-miterlimit="10" stroke-linecap="round" stroke-linejoin="round"/>
<path d="M141.856 44.4012C141.856 44.4012 135.747 36.3683 117.215 31.9463" stroke="#0F1315" stroke-miterlimit="10" stroke-linecap="round" stroke-linejoin="round"/>
<path opacity="0.3" d="M192.17 26.5239C193.118 26.8289 193.958 27.2022 194.616 27.6623C199.092 30.7925 208.993 42.0877 210.485 44.8094C210.485 44.8094 199.499 35.1473 193.396 31.8811C187.292 28.615 177.417 25.3432 177.417 25.3432C177.724 25.42 186.479 25.7072 192.17 26.5239Z" fill="black"/>
<path opacity="0.61" d="M168.033 49.1645C168.033 49.1645 143.891 32.6979 120.969 31.0648C120.969 31.0648 133.854 31.473 148.773 36.5085C163.693 41.5436 168.033 49.1645 168.033 49.1645Z" fill="white"/>
<path opacity="0.3" d="M144.246 57.0566C144.566 57.2196 145.366 57.3103 146.487 57.5053C154.682 58.9306 176.536 66.2764 176.536 66.2764C176.536 66.2764 183.638 74.4994 184.95 75.2666C186.261 76.0342 186.589 76.1438 187.135 76.1438C187.681 76.1438 215.982 72.6353 217.512 72.4161C219.041 72.1969 218.714 73.0738 219.041 72.1969C219.369 71.3197 220.243 57.2861 220.571 55.532C220.784 54.3918 221.735 51.8171 222.375 50.1531C222.471 50.6236 222.77 52.1097 223.172 54.0961L220.649 75.2503L187.406 79.7516L146.736 68.3888L144.246 57.0566Z" fill="black"/>
<path opacity="0.24" d="M112.805 4.07051C131.482 3.31073 138.212 5.168 138.212 5.168C138.212 5.168 140.988 6.34984 145.363 8.46013C149.738 10.5704 171.36 23.9926 171.948 24.7521C172.537 25.5118 172.032 26.0182 171.36 26.2716C171.221 26.3239 169.273 26.4688 166.251 26.6666C144.84 21.0806 108.534 11.6095 86.1892 5.78507C89.4979 5.347 98.3535 4.6584 112.805 4.07051Z" fill="white" stroke="#0F1315" stroke-miterlimit="10" stroke-linecap="round" stroke-linejoin="round"/>
<path d="M157.581 81.3349L173.425 87.786L151.152 88.1315C151.152 88.1315 146.215 86.0579 145.297 85.0213C144.378 83.9846 143.23 80.9893 143.23 80.9893L157.581 81.3349Z" fill="#0F1315" stroke="#0F1315" stroke-miterlimit="10" stroke-linecap="round" stroke-linejoin="round"/>
<path opacity="0.24" d="M190.898 37.154C190.898 37.154 196.25 38.5583 200.037 42.1931C202.716 44.7639 203.987 47.1642 203.777 48.5275L172.522 38.401C178.019 37.6814 187.774 36.7398 190.898 37.154Z" fill="white" stroke="#0F1315" stroke-miterlimit="10" stroke-linecap="round" stroke-linejoin="round"/>
<path d="M133.46 49.2115C133.46 49.2115 131.745 46.309 134.424 45.5564C137.102 44.8037 165.387 52.8666 165.387 52.8666L144.602 46.0941C144.602 46.0941 132.174 42.6539 130.138 43.4066C128.103 44.1592 128.21 45.8791 129.603 48.6741L133.46 49.2115Z" fill="white"/>
<path d="M135.709 46.0937C135.709 46.0937 141.494 46.9539 142.03 47.4912C142.566 48.0286 142.78 50.7161 142.03 50.9314C141.28 51.1463 138.173 51.1463 136.888 50.609C135.602 50.0716 135.174 49.104 135.174 48.3513C135.174 47.599 135.174 45.7713 135.709 46.0937Z" fill="white"/>
<path d="M220.992 42.3315L219.706 50.1791L222.343 47.0378C222.343 47.0378 221 49.6659 219.891 51.0257C218.782 52.3855 217.673 53.4983 217.673 53.4983C217.673 53.4983 217.858 51.2111 217.981 49.604C218.104 47.9969 219.706 44.5354 219.459 42.9283C219.213 41.3212 218.289 40.023 218.289 40.023C218.289 40.023 221.168 40.6839 220.992 42.3315Z" fill="white"/>
<path d="M144.246 57.0566C144.246 57.0566 149.691 58.1309 153.837 59.1953" stroke="#0F1315" stroke-miterlimit="10" stroke-linecap="round" stroke-linejoin="round"/>
<path d="M158.659 60.5498L176.536 66.2764C176.536 66.2764 184.983 76.2239 186.43 76.1271" stroke="#0F1315" stroke-miterlimit="10" stroke-linecap="round" stroke-linejoin="round"/>
<path d="M216.515 72.3535L189.804 75.7396" stroke="#0F1315" stroke-miterlimit="10" stroke-linecap="round" stroke-linejoin="round"/>
<path d="M221.92 51.246C221.92 51.246 220.819 54.3776 220.571 55.5317C220.323 56.6857 219.258 70.4307 219.258 70.4307" stroke="#0F1315" stroke-miterlimit="10" stroke-linecap="round" stroke-linejoin="round"/>
<path d="M134.081 3.63508C135.99 3.98169 137.841 4.59307 139.591 5.43683C140.806 6.0233 142.64 6.84677 145.363 7.95352C152.01 10.6549 171.275 23.486 172.958 24.1611C174.641 24.8365 177.08 25.2586 177.417 25.3429C177.753 25.4273 188.27 25.765 193.738 26.7782C199.207 27.7909 205.264 31.0834 208.377 32.856C211.49 34.6286 216.033 38.3431 216.622 38.7652C217.211 39.1872 220.744 39.947 221.586 41.6352C222.427 43.3235 222.511 45.9405 222.343 47.0376C222.175 48.1351 222.343 49.992 222.343 49.992C222.343 49.992 226.55 70.8426 226.802 71.9401C227.054 73.0376 228.821 76.9205 228.148 77.7646C227.475 78.6087 225.371 80.3813 222.763 80.8033C220.155 81.2254 212.247 80.6347 212.247 80.6347L186.84 83.8424C186.84 83.8424 179.352 87.8943 175.987 88.0634C172.622 88.2321 149.57 89.0762 147.971 88.7388C146.373 88.4011 127.023 85.8687 127.023 85.8687C127.023 85.8687 128.537 73.6287 127.276 66.7911C126.014 59.9535 121.975 49.9081 118.105 46.2782C114.235 42.6484 109.86 40.116 103.887 42.2263C97.9137 44.3366 94.4643 51.0899 94.5487 60.2068C94.6327 69.3238 98.0822 81.9015 98.0822 81.9015L82.0974 78.6094L37.8449 68.564C37.8449 68.564 22.1967 66.8758 22.1967 66.6224C22.1967 66.369 24.2998 57.3368 24.6364 50.6678C24.973 43.9989 20.2616 34.7133 16.8965 30.6614C13.5314 26.6095 8.90411 27.5379 6.12778 29.8173C3.35145 32.0966 2.1736 40.0317 2.1736 40.0317L1.24827 41.5512C1.24827 41.5512 1.5008 34.3759 2.76271 29.8176C4.02461 25.2593 5.11839 21.2918 7.97878 18.3374C10.8392 15.3829 14.2886 14.7075 16.7284 14.6232C19.1682 14.5388 24.3842 13.4413 25.0574 13.188C25.7306 12.9346 60.14 4.15536 60.14 4.15536C60.14 4.15536 76.6295 0.609854 96.9891 0.778891C116.082 0.93654 118.453 0.798108 134.081 3.63508Z" stroke="#0F1315" stroke-miterlimit="10" stroke-linecap="round" stroke-linejoin="round"/>
</svg>
