<svg width="114" height="52" viewBox="0 0 114 52" fill="none" xmlns="http://www.w3.org/2000/svg">
<path d="M66.7928 42.4011L10.6441 28.4262L9.07425 24.0472C9.07425 24.0472 9.00235 21.1645 10.2643 18.4746C11.5262 15.7845 16.2486 16.5468 18.4105 18.8148C20.5724 21.0827 22.235 22.8971 22.235 22.8971L47.8833 27.8025C47.8833 27.8025 51.2752 23.4641 55.2655 23.4641C59.2558 23.4641 62.4702 28.9071 63.9111 33.3295C65.3518 37.7519 66.7928 42.4011 66.7928 42.4011Z" fill="#263238" stroke="#263238" stroke-miterlimit="10" stroke-linecap="round" stroke-linejoin="round"/>
<path d="M18.4105 18.8147C21.121 18.8147 23.5568 22.8763 23.5568 28.1849C23.5568 33.4935 21.3596 37.797 18.6492 37.797L13.3985 38.0388V18.8147H18.4105Z" fill="#263238" stroke="#263238" stroke-miterlimit="10" stroke-linecap="round" stroke-linejoin="round"/>
<path d="M13.3983 38.0389C10.6879 38.0389 8.49072 33.7355 8.49072 28.4269C8.49072 23.1183 10.6879 18.8148 13.3983 18.8148C16.1087 18.8148 18.306 23.1183 18.306 28.4269C18.306 33.7355 16.1087 38.0389 13.3983 38.0389Z" fill="#5E5E5E" stroke="#263238" stroke-miterlimit="10" stroke-linecap="round" stroke-linejoin="round"/>
<path d="M13.0574 37.1411C10.7885 37.1411 8.94915 33.3565 8.94915 28.688C8.94915 24.0195 10.7885 20.2349 13.0574 20.2349C15.3263 20.2349 17.1657 24.0195 17.1657 28.688C17.1657 33.3565 15.3263 37.1411 13.0574 37.1411Z" fill="#263238" stroke="#263238" stroke-miterlimit="10" stroke-linecap="round" stroke-linejoin="round"/>
<path d="M13.9627 20.4433C14.1238 20.5179 14.2816 20.611 14.435 20.7233L13.7466 21.7965C13.7466 21.7965 12.3549 22.9142 12.4129 23.4924C12.4708 24.0706 12.8768 24.7259 13.0507 24.9571C13.2246 25.1883 14.1814 25.9593 14.1814 25.9593L14.4424 27.0387C14.4424 27.0387 13.2248 26.4219 12.9928 25.8823C12.7609 25.3427 11.6011 22.2205 11.6592 21.6809C11.7172 21.1413 11.8621 20.9101 11.8621 20.9101L12.2811 20.3879C12.3261 20.3702 12.3711 20.3528 12.4166 20.3381L13.9627 20.4433ZM12.0358 22.3746L13.3494 20.9699C13.5526 21.041 13.7174 21.1026 13.7174 21.1026L13.3695 20.9483L13.3494 20.9698C13.0696 20.8718 12.7165 20.7555 12.6157 20.7555C12.4417 20.7555 12.1518 21.0253 12.0358 21.5263C11.9198 22.0277 12.0358 22.3746 12.0358 22.3746Z" fill="#999999" stroke="#263238" stroke-miterlimit="10" stroke-linecap="round" stroke-linejoin="round"/>
<path d="M14.8481 35.827C14.8481 35.827 13.7755 35.403 13.6304 35.2874C13.4854 35.1717 13.6014 35.8656 13.8043 36.174C14.0072 36.4823 14.1813 36.598 14.1813 36.598L14.8481 35.827Z" fill="white" stroke="#263238" stroke-miterlimit="10" stroke-linecap="round" stroke-linejoin="round"/>
<path d="M10.1863 22.6441L10.2092 22.7216C10.2092 22.7216 10.7601 22.4518 10.7601 22.683C10.7601 22.9142 11.137 23.4924 11.224 23.5695C11.3109 23.6467 12.1518 24.8801 12.1518 24.8801L13.4854 27.0387L10.1512 23.8393C10.1512 23.8393 10.1802 23.2997 9.89018 24.7259C9.60032 26.152 9.65823 26.9616 9.65823 27.0771C9.65823 27.1928 11.2238 27.8479 11.0499 28.0022C10.8759 28.1563 10.9049 28.4647 10.6439 28.4263C10.383 28.3877 9.22335 28.1179 9.22335 28.1179L9.74517 29.6212V31.2401C9.74517 31.2401 11.3398 29.891 12.2386 29.6597C13.1374 29.4285 14.0652 29.6212 14.0652 29.6212L13.7753 31.4714C13.7753 31.4714 14.5581 30.2379 14.7031 30.0838C14.8481 29.9297 15.0801 30.1224 15.0801 30.1224L15.457 30.5848C15.457 30.5848 15.602 32.1652 15.834 32.435C15.9526 32.573 16.1541 32.6904 16.3231 32.7726C16.4713 32.2702 16.7039 31.2401 16.7039 31.2401C16.8199 30.662 16.7618 30.3536 16.7618 30.3536L15.805 30.6234C15.805 30.6234 15.1091 29.6597 15.0801 29.544C15.051 29.4283 15.051 28.7346 15.138 28.3877C15.2249 28.0408 15.4859 27.8481 15.4859 27.8481L15.051 26.7303L15.254 26.6146L15.7469 28.0022L15.7179 29.4283L16.8486 29.0043C16.8776 26.7686 16.4428 25.2653 16.4428 25.2653L15.6599 25.1496C15.6599 25.1496 15.3701 25.1111 15.283 25.1882C15.196 25.2653 14.7031 26.8071 14.7031 26.8071L14.5871 26.4217C14.5871 26.4217 14.9351 25.0725 15.2249 24.1474C15.5148 23.2223 15.9498 23.5307 15.9498 23.5307C15.6888 22.7213 15.1089 21.9117 15.1089 21.9117L14.5871 22.7597L13.8043 22.297L13.9493 21.6803L14.4348 20.7229C16.0261 21.8882 17.1655 25.0134 17.1655 28.6875C17.1655 30.2219 16.965 31.6584 16.6177 32.8989L16.6185 32.9003C16.6137 32.9172 16.6086 32.9337 16.6039 32.9505C16.5993 32.9665 16.5954 32.9833 16.5908 32.9993H16.5897C15.8737 35.4779 14.5605 37.1408 13.0574 37.1408C10.7885 37.1408 8.94914 33.3561 8.94914 28.6877C8.94914 26.3189 9.42339 24.1788 10.1863 22.6441ZM15.312 35.1717C15.428 35.0176 15.9498 33.9383 15.9498 33.9383C15.9498 33.9383 15.283 33.1673 15.1089 32.8975C14.9351 32.6277 14.877 30.8161 14.877 30.8161C14.877 30.8161 13.8622 32.6663 13.6882 33.283C13.5143 33.8997 13.6303 34.131 13.8042 34.4008C13.9784 34.6707 15.196 35.326 15.312 35.1717ZM9.65838 32.7434C9.65838 32.7434 10.2092 31.7026 10.5281 31.8954C10.847 32.0881 10.934 32.3579 11.224 32.6278C11.514 32.8976 12.2678 32.6664 12.2678 32.6664C12.2678 32.6664 11.485 34.9791 11.369 35.326C11.253 35.6729 11.5429 36.1354 11.7169 36.2897C11.8908 36.4439 12.1228 36.3282 12.3258 36.3282C12.5287 36.3282 12.9636 36.4439 12.9636 36.4439L13.6304 36.6752C13.6304 36.6752 13.1375 35.596 13.0796 35.249C13.0217 34.9021 13.0217 33.6686 13.0217 33.6686L12.2099 35.6345L11.659 35.3647C11.659 35.3647 13.1956 31.4331 13.2827 31.3174C13.3696 31.2017 13.5146 30.5466 13.5146 30.3537C13.5146 30.1611 13.6596 29.8527 13.6596 29.8527C13.6596 29.8527 12.5868 29.8913 11.833 30.4694C11.0793 31.0476 9.80354 31.7415 9.71659 31.8956C9.62934 32.0495 9.65838 32.7434 9.65838 32.7434Z" fill="#999999" stroke="#263238" stroke-miterlimit="10" stroke-linecap="round" stroke-linejoin="round"/>
<path d="M11.7169 28.4263L13.2825 27.5783L13.9203 27.8867C13.9203 27.8867 13.1665 28.3493 12.6446 28.542C12.1228 28.7346 11.7169 28.4263 11.7169 28.4263Z" fill="#999999" stroke="#263238" stroke-miterlimit="10" stroke-linecap="round" stroke-linejoin="round"/>
<path d="M61.9994 25.6701C65.6178 25.6701 68.5512 30.0911 68.5512 35.5448C68.5512 40.9983 65.6179 45.4195 61.9994 45.4195H55.3082V25.6701H61.9994Z" fill="#263238" stroke="#263238" stroke-miterlimit="10" stroke-linecap="round" stroke-linejoin="round"/>
<path d="M55.3082 45.4195C51.6898 45.4195 48.7564 40.9984 48.7564 35.5448C48.7564 30.0911 51.6898 25.6701 55.3082 25.6701C58.9267 25.6701 61.86 30.0911 61.86 35.5448C61.86 40.9984 58.9267 45.4195 55.3082 45.4195Z" fill="#5E5E5E" stroke="#263238" stroke-miterlimit="10" stroke-linecap="round" stroke-linejoin="round"/>
<path d="M54.853 44.497C51.824 44.497 49.3685 40.6091 49.3685 35.813C49.3685 31.017 51.824 27.129 54.853 27.129C57.882 27.129 60.3375 31.017 60.3375 35.813C60.3375 40.6091 57.882 44.497 54.853 44.497Z" fill="#263238" stroke="#263238" stroke-miterlimit="10" stroke-linecap="round" stroke-linejoin="round"/>
<path d="M56.0615 27.3432C56.2766 27.4198 56.4871 27.5155 56.6919 27.6308L55.7727 28.7332C55.7727 28.7332 53.9148 29.8816 53.9922 30.4755C54.0696 31.0695 54.6115 31.7427 54.8437 31.9803C55.076 32.2179 56.3532 33.0099 56.3532 33.0099L56.7016 34.1187C56.7016 34.1187 55.076 33.4851 54.7664 32.9308C54.4567 32.3764 52.9085 29.1689 52.9858 28.6146C53.0632 28.0602 53.2568 27.8226 53.2568 27.8226L53.8162 27.2861C53.8762 27.2679 53.9363 27.25 53.9969 27.2349L56.0615 27.3432ZM53.4893 29.3272L55.2429 27.8842C55.5142 27.9572 55.7341 28.0205 55.7341 28.0205L55.2696 27.8621L55.2429 27.8842C54.8694 27.7835 54.3979 27.6641 54.2634 27.6641C54.0311 27.6641 53.6441 27.9414 53.4893 28.4561C53.3344 28.9708 53.4893 29.3272 53.4893 29.3272Z" fill="#999999"/>
<path d="M55.2429 27.8842L53.4893 29.3272C53.4893 29.3272 53.3344 28.9708 53.4893 28.4561C53.6441 27.9414 54.0311 27.6641 54.2634 27.6641C54.3979 27.6641 54.8694 27.7835 55.2429 27.8842ZM55.2429 27.8842C55.5142 27.9572 55.7341 28.0205 55.7341 28.0205L55.2696 27.8621L55.2429 27.8842ZM56.0615 27.3432C56.2766 27.4198 56.4871 27.5155 56.6919 27.6308L55.7727 28.7332C55.7727 28.7332 53.9148 29.8816 53.9922 30.4755C54.0696 31.0695 54.6115 31.7427 54.8437 31.9803C55.076 32.2179 56.3532 33.0099 56.3532 33.0099L56.7016 34.1187C56.7016 34.1187 55.076 33.4851 54.7664 32.9308C54.4567 32.3764 52.9085 29.1689 52.9858 28.6146C53.0632 28.0602 53.2568 27.8226 53.2568 27.8226L53.8162 27.2861C53.8762 27.2679 53.9363 27.25 53.9969 27.2349L56.0615 27.3432Z" stroke="#263238" stroke-miterlimit="10" stroke-linecap="round" stroke-linejoin="round"/>
<path d="M57.2437 43.1471C57.2437 43.1471 55.8115 42.7116 55.618 42.5927C55.4245 42.4739 55.5793 43.1868 55.8503 43.5035C56.1213 43.8203 56.3534 43.9391 56.3534 43.9391L57.2437 43.1471Z" fill="white" stroke="#263238" stroke-miterlimit="10" stroke-linecap="round" stroke-linejoin="round"/>
<path d="M51.0202 29.6041L51.0507 29.6837C51.0507 29.6837 51.7861 29.4064 51.7861 29.644C51.7861 29.8816 52.2892 30.4757 52.4053 30.5548C52.5215 30.634 53.644 31.9012 53.644 31.9012L55.4245 34.1187L50.9733 30.8319C50.9733 30.8319 51.0121 30.2775 50.625 31.7427C50.238 33.2079 50.3153 34.0394 50.3153 34.1582C50.3153 34.277 52.4055 34.9502 52.1732 35.1086C51.941 35.2669 51.9797 35.5838 51.6313 35.5442C51.283 35.5045 49.7347 35.2274 49.7347 35.2274L50.4315 36.7717V38.4349C50.4315 38.4349 52.5604 37.0488 53.7603 36.8114C54.9601 36.5738 56.1988 36.7717 56.1988 36.7717L55.8117 38.6725C55.8117 38.6725 56.8568 37.4053 57.0503 37.247C57.2438 37.0885 57.5534 37.2866 57.5534 37.2866L58.0565 37.7618C58.0565 37.7618 58.25 39.3853 58.5597 39.6626C58.7179 39.8042 58.9869 39.9249 59.2127 40.0093C59.4106 39.4931 59.7208 38.435 59.7208 38.435C59.8757 37.841 59.7982 37.5242 59.7982 37.5242L58.5209 37.8013C58.5209 37.8013 57.592 36.8114 57.5533 36.6926C57.5145 36.5738 57.5145 35.861 57.6306 35.5047C57.7468 35.1483 58.0951 34.9503 58.0951 34.9503L57.5145 33.8019L57.7855 33.6831L58.4435 35.1086L58.4048 36.5738L59.9143 36.1382C59.953 33.8414 59.3724 32.2971 59.3724 32.2971L58.3274 32.1783C58.3274 32.1783 57.9403 32.1386 57.8243 32.2179C57.7082 32.2971 57.0501 33.8811 57.0501 33.8811L56.8953 33.4851C56.8953 33.4851 57.3598 32.0991 57.7468 31.1488C58.1339 30.1984 58.7144 30.5153 58.7144 30.5153C58.366 29.6837 57.5919 28.8522 57.5919 28.8522L56.8951 29.7233L55.8501 29.2481L56.0436 28.6146L56.6917 27.631C58.8159 28.8282 60.3371 32.0388 60.3371 35.8132C60.3371 37.3896 60.0695 38.8653 59.6057 40.1397L59.6068 40.1411C59.6004 40.1585 59.5937 40.1754 59.5873 40.1927C59.5812 40.2092 59.5761 40.2264 59.5699 40.2428H59.5683C58.6122 42.789 56.8592 44.4972 54.8527 44.4972C51.8236 44.4972 49.3682 40.6093 49.3682 35.8132C49.3684 33.3794 50.0014 31.1807 51.0202 29.6041ZM57.863 42.4739C58.0178 42.3155 58.7145 41.2067 58.7145 41.2067C58.7145 41.2067 57.8243 40.4148 57.592 40.1375C57.3598 39.8604 57.2824 37.9991 57.2824 37.9991C57.2824 37.9991 55.9276 39.8999 55.6955 40.5334C55.4633 41.1669 55.6182 41.4045 55.8504 41.6818C56.0825 41.9592 57.7082 42.6324 57.863 42.4739ZM50.3153 39.9793C50.3153 39.9793 51.0507 38.9102 51.4765 39.1082C51.9022 39.3062 52.0183 39.5834 52.4055 39.8605C52.7925 40.1376 53.7989 39.9002 53.7989 39.9002C53.7989 39.9002 52.7537 42.2761 52.599 42.6326C52.4441 42.989 52.8312 43.4642 53.0635 43.6225C53.2957 43.781 53.6054 43.6622 53.8764 43.6622C54.1474 43.6622 54.7279 43.781 54.7279 43.781L55.6182 44.0186C55.6182 44.0186 54.9601 42.9098 54.8828 42.5534C54.8054 42.197 54.8054 40.9299 54.8054 40.9299L53.7217 42.9495L52.9863 42.6722C52.9863 42.6722 55.0377 38.6331 55.1538 38.5143C55.2699 38.3955 55.4634 37.7223 55.4634 37.5244C55.4634 37.3264 55.6569 37.0097 55.6569 37.0097C55.6569 37.0097 54.2248 37.0493 53.2184 37.6432C52.212 38.2372 50.509 38.9499 50.3929 39.1084C50.2766 39.2665 50.3153 39.9793 50.3153 39.9793Z" fill="#999999" stroke="#263238" stroke-miterlimit="10" stroke-linecap="round" stroke-linejoin="round"/>
<path d="M53.0635 35.5442L55.1537 34.673L56.0052 34.9898C56.0052 34.9898 54.9988 35.465 54.3022 35.663C53.6054 35.8611 53.0635 35.5442 53.0635 35.5442Z" fill="#999999" stroke="#263238" stroke-miterlimit="10" stroke-linecap="round" stroke-linejoin="round"/>
<path d="M65.6059 8.14331C66.4245 8.29477 67.2177 8.56193 67.9674 8.93063C68.4883 9.1869 69.2742 9.54674 70.4414 10.0304C73.2898 11.2108 81.5466 16.8177 82.2677 17.1127C82.9888 17.4078 84.0344 17.5922 84.1787 17.6291C84.3229 17.666 88.8299 17.8135 91.1736 18.2563C93.5172 18.6988 96.1132 20.1375 97.4474 20.9121C98.7815 21.6867 100.728 23.3098 100.981 23.4943C101.233 23.6787 102.748 24.0107 103.108 24.7484C103.469 25.4861 103.505 26.6297 103.433 27.1091C103.361 27.5887 103.433 28.4001 103.433 28.4001C103.433 28.4001 105.236 37.5113 105.344 37.9909C105.452 38.4705 106.209 40.1672 105.92 40.536C105.632 40.9049 104.731 41.6795 103.613 41.8639C102.495 42.0483 99.1058 41.7902 99.1058 41.7902L88.217 43.1919C88.217 43.1919 85.008 44.9625 83.5658 45.0364C82.1236 45.1101 72.2442 45.4789 71.5592 45.3315C70.8741 45.1839 62.5813 44.0774 62.5813 44.0774C62.5813 44.0774 63.2303 38.7288 62.6895 35.7409C62.1487 32.753 60.418 28.3634 58.7594 26.7773C57.1008 25.1911 55.2259 24.0846 52.6659 25.0067C50.1059 25.9289 48.6275 28.8799 48.6637 32.8637C48.6997 36.8476 50.1781 42.3438 50.1781 42.3438L43.3274 40.9052L24.3621 36.5156C24.3621 36.5156 17.6557 35.7779 17.6557 35.6672C17.6557 35.5565 18.5571 31.6096 18.7013 28.6954C18.8456 25.7813 16.8264 21.7237 15.3842 19.9531C13.942 18.1825 11.9589 18.5883 10.769 19.5843C9.57919 20.5803 9.0744 24.0477 9.0744 24.0477L8.67783 24.7117C8.67783 24.7117 8.78606 21.5763 9.32687 19.5844C9.86769 17.5926 10.3364 15.8588 11.5623 14.5678C12.7882 13.2768 14.2666 12.9817 15.3122 12.9448C16.3578 12.908 18.5932 12.4284 18.8817 12.3177C19.1702 12.207 33.9171 8.37066 33.9171 8.37066C33.9171 8.37066 40.9841 6.82136 49.7096 6.89523C57.8924 6.96412 58.9085 6.90363 65.6059 8.14331Z" fill="#E0B32D" fill-opacity="0.83"/>
<path d="M69.9139 44.419C69.6503 44.0147 68.3328 39.7011 68.3328 39.7011L71.1656 40.1054L99.8883 38.6902L105.094 36.7638C105.228 37.4326 105.321 37.8924 105.343 37.9906C105.452 38.4701 106.209 40.1669 105.92 40.5359C105.632 40.9047 104.73 41.6793 103.613 41.8637C102.495 42.0482 99.1058 41.79 99.1058 41.79L88.217 43.1917C88.217 43.1917 85.008 44.9623 83.5658 45.0362C82.1642 45.1079 72.7946 45.4582 71.6394 45.3425C70.8095 44.9768 70.031 44.5984 69.9139 44.419Z" fill="#5E5E5E" stroke="#263238" stroke-miterlimit="10" stroke-linecap="round" stroke-linejoin="round"/>
<path d="M101.688 38.0242L104.61 37.4647L105.201 38.5218L105.545 39.9313C105.545 39.9313 105.545 39.9313 105.053 40.1829C104.561 40.4346 104.364 40.9884 103.922 41.2904C103.479 41.5924 102.593 41.7938 101.56 41.6428C100.526 41.4918 99.1487 41.391 99.1487 41.391L88.5204 42.7501L87.5364 42.5487L86.2079 40.9882L97.6286 38.8014L99.8886 38.69L101.688 38.0242Z" fill="#263238" stroke="#263238" stroke-miterlimit="10" stroke-linecap="round" stroke-linejoin="round"/>
<path d="M38.2031 7.65018C41.083 7.25676 45.1715 6.85618 49.7092 6.89459C57.8924 6.96379 58.9084 6.90314 65.6058 8.14298C66.4243 8.29444 67.2176 8.5616 67.9673 8.9303C68.4882 9.18657 69.274 9.54641 70.4412 10.03C72.9526 11.0708 79.6672 15.5517 81.7155 16.7999C81.8526 16.9074 82.5798 17.466 83.1329 17.6656C83.7459 17.8869 84.0343 18.0713 83.782 18.1821C83.5296 18.2928 62.8695 19.6206 62.1124 19.6206C61.3553 19.6206 52.5575 19.5099 52.5575 19.5099C52.5575 19.5099 51.9085 19.5468 51.2234 18.9935C50.5383 18.4402 46.9688 12.575 45.4184 10.6939C43.868 8.81258 40.9114 7.96415 38.748 7.70601C38.5557 7.68315 38.3764 7.66558 38.2031 7.65018Z" fill="#263238" stroke="#263238" stroke-miterlimit="10" stroke-linecap="round" stroke-linejoin="round"/>
<path d="M67.3767 8.81274C67.3767 8.81274 64.4922 8.00116 56.4879 8.33317C48.4834 8.66517 44.4813 9.07088 44.4453 9.21846C44.4092 9.36603 47.6903 13.2023 49.385 15.4523C51.0796 17.7025 51.6564 18.6985 52.1252 18.9566C52.594 19.2148 60.7065 19.2148 61.7161 19.2148C62.7257 19.2148 81.2945 18.1451 81.583 18.0343C81.8715 17.9236 82.0878 17.7023 81.8353 17.3703C81.583 17.0383 72.3166 11.1733 70.4417 10.2512C68.5664 9.32917 67.3767 8.81274 67.3767 8.81274Z" fill="#263238" stroke="#696969" stroke-miterlimit="10" stroke-linecap="round" stroke-linejoin="round"/>
<path d="M18.8814 12.317C19.0161 12.2654 22.3005 11.402 25.7652 10.4961C26.9142 10.4965 28.7996 10.4214 30.3112 9.99317C32.6549 9.32917 37.2701 8.2963 40.5151 9.25546C43.7602 10.2146 46.284 14.3828 46.284 14.3828L49.3488 19.5469C49.3488 19.5469 46.0677 20.2109 41.0198 19.3993C35.9719 18.5878 26.1647 15.8213 24.434 14.8622C22.7033 13.9032 22.5591 12.8333 22.5591 12.8333C22.5591 12.8333 17.7968 12.7969 17.4127 12.6518C18.1248 12.5156 18.7393 12.3716 18.8814 12.317Z" fill="#5E5E5E" stroke="#263238" stroke-miterlimit="10" stroke-linecap="round" stroke-linejoin="round"/>
<path d="M25.5878 13.6819C25.5878 13.6819 25.2633 13.7188 25.5158 13.2393C25.7682 12.7598 28.3281 10.8416 32.7992 10.1778C37.2701 9.51375 39.3973 9.51375 41.056 10.2515C42.7146 10.9892 45.5989 14.5303 45.5989 14.5303L48.5555 19.2888C48.5555 19.2888 44.5533 19.4732 40.551 18.8831C36.5488 18.2929 27.8593 15.4895 26.7777 14.8255C25.696 14.1615 25.5878 13.6819 25.5878 13.6819Z" fill="#263238" stroke="#263238" stroke-miterlimit="10" stroke-linecap="round" stroke-linejoin="round"/>
<path d="M47.0344 16.8407L48.5555 19.2886C48.5555 19.2886 47.6946 19.3281 46.3731 19.3119L47.0344 16.8407Z" fill="#5E5E5E" stroke="#263238" stroke-miterlimit="10" stroke-linecap="round" stroke-linejoin="round"/>
<path d="M29.3017 10.7679C29.3017 10.7679 25.66 11.5425 22.8116 12.8336" stroke="#263238" stroke-miterlimit="10" stroke-linecap="round" stroke-linejoin="round"/>
<path d="M10.3126 16.5146C10.6295 15.7902 11.0224 15.1357 11.5622 14.5672C11.6344 14.4911 11.7076 14.4191 11.7815 14.3498C12.3079 14.5645 13.1126 14.9427 13.1126 15.0466C13.1126 15.1942 12.4635 15.3418 11.5262 15.7843C11.0495 16.0095 10.6201 16.2914 10.3126 16.5146Z" fill="#263238" stroke="#263238" stroke-miterlimit="10" stroke-linecap="round" stroke-linejoin="round"/>
<path d="M43.933 21.3853C43.933 21.3853 44.5468 21.6422 44.5468 21.9561C44.5468 22.2701 44.5468 22.3558 44.2399 22.4129C43.933 22.4699 41.9242 22.3843 41.5335 22.2987C41.1429 22.213 40.836 21.9277 40.9198 21.6708C41.0035 21.4139 40.9756 21.2998 41.2267 21.1856C41.4778 21.0715 42.1473 21.1856 42.7611 21.2427C43.375 21.2996 43.933 21.3853 43.933 21.3853Z" fill="#263238" stroke="#263238" stroke-miterlimit="10" stroke-linecap="round" stroke-linejoin="round"/>
<path d="M89.9565 22.79C89.9565 22.79 92.25 23.4036 93.8731 24.9919C95.4961 26.5803 95.9196 28.0241 95.0374 28.2407C94.1553 28.4574 89.8505 29.071 88.4745 28.349C87.0984 27.627 83.8169 25.3889 82.335 24.8475C80.853 24.306 80.1827 23.8006 80.4297 23.6201C80.6767 23.4398 88.0864 22.5373 89.9565 22.79Z" fill="#263238"/>
<path d="M103.108 24.7481C103.469 25.4858 103.505 26.6294 103.433 27.1088C103.361 27.5884 103.433 28.3998 103.433 28.3998C103.433 28.3998 104.888 35.7567 105.262 37.596C104.94 38.47 103.73 39.4674 103.329 39.7198C102.871 40.0085 92.6735 42.0301 86.2518 41.9217C79.8301 41.8135 69.6329 41.4524 69.4211 41.4163C69.2094 41.3802 69.1741 41.3802 68.7861 41.0193C68.398 40.6584 65.3987 32.3198 64.2344 29.7928C63.0701 27.266 62.3996 26.2913 63.4229 25.425C64.4462 24.5587 68.7508 25.9304 69.7741 26.2552C70.7973 26.5801 80.2888 29.7207 81.418 29.8289C82.5471 29.9371 87.9809 29.9371 87.9809 29.9371L99.5542 29.1069C99.5542 29.1069 101.53 27.6991 101.883 26.2912C102.236 24.8834 100.981 23.4936 100.981 23.4936C101.233 23.6784 102.748 24.0104 103.108 24.7481Z" fill="#A6A6A6" stroke="#263238" stroke-miterlimit="10" stroke-linecap="round" stroke-linejoin="round"/>
<path d="M63.4226 25.4252C64.4459 24.5589 68.7505 25.9306 69.7738 26.2554C70.797 26.5803 80.2885 29.7208 81.4177 29.8291C82.5468 29.9373 88.2667 30.099 88.2667 30.099L99.5539 29.1072C99.5539 29.1072 101.53 27.6994 101.883 26.2915C102.235 24.8837 100.981 23.494 100.981 23.494C101.233 23.6784 102.747 24.0104 103.108 24.7481C103.469 25.4858 103.505 26.6294 103.432 27.1088C103.408 27.2709 103.4 27.4707 103.401 27.6644L103.364 27.6993C103.364 27.6993 102.235 30.19 100.365 30.5511C98.4952 30.912 86.2867 32.356 83.1464 32.031C80.0061 31.7062 66.3863 28.9627 66.3863 28.9627C66.3863 28.9627 66.104 28.6018 65.6806 28.4934C65.3057 28.3975 63.992 28.2449 63.4016 28.0107C62.8278 26.7316 62.6846 26.05 63.4226 25.4252Z" fill="#D9D9D9" stroke="#263238" stroke-miterlimit="10" stroke-linecap="round" stroke-linejoin="round"/>
<path d="M101.293 30.1799C101.009 30.3536 100.699 30.4867 100.365 30.551C98.5497 30.9016 86.987 32.273 83.443 32.0548C83.1875 31.6564 82.5324 30.7311 81.4536 29.832C82.652 29.9373 88.2667 30.0988 88.2667 30.0988L97.9453 29.2224C99.341 29.1223 100.641 28.4066 101.437 27.2292C101.5 27.1351 101.56 27.0396 101.614 26.9429C101.472 27.5018 101.186 28.7306 101.222 29.3832C101.237 29.6779 101.264 29.9491 101.293 30.1799Z" fill="#263238" stroke="#263238" stroke-miterlimit="10" stroke-linecap="round" stroke-linejoin="round"/>
<path d="M82.6289 30.9817C82.8506 31.0047 83.1387 31.0199 83.514 31.0199C85.0622 31.0199 99.5363 29.7675 100.112 29.5834C100.591 29.4303 101.093 28.948 101.25 28.7887C101.225 29.0106 101.212 29.2161 101.221 29.3834C101.221 29.3834 100.904 29.7675 100.4 29.9517C99.9426 30.1191 85.6482 31.2583 83.0259 31.4662C82.9117 31.3177 82.7803 31.155 82.6289 30.9817Z" fill="#BABABA" stroke="#263238" stroke-miterlimit="10" stroke-linecap="round" stroke-linejoin="round"/>
<path d="M63.4611 28.0109L65.74 28.4936L66.4457 28.9629C66.4457 28.9629 66.3442 29.7611 67.0936 30.2881C67.8428 30.8151 67.4702 31.0602 70.9823 31.683C74.4946 32.3058 83.8604 35.5157 83.8604 35.5157C83.8604 35.5157 86.9043 39.109 87.4663 39.4442C88.0282 39.7796 88.1687 39.8275 88.4029 39.8275C88.637 39.8275 100.766 38.2944 101.421 38.1986C102.077 38.1028 101.937 38.486 102.077 38.1028C102.217 37.7195 102.592 31.5872 102.733 30.8207C102.824 30.3225 103.184 29.3411 103.459 28.6141C103.547 29.4075 104.897 36.0824 105.188 37.6637C104.866 38.5376 103.79 39.4676 103.389 39.7201C102.93 40.0089 92.7326 42.0304 86.3109 41.922C79.8892 41.8138 69.692 41.4527 69.4803 41.4166C69.2685 41.3806 69.2333 41.3806 68.8452 41.0196C68.4572 40.6587 65.4579 32.3201 64.2936 29.7931C63.9688 29.0887 63.6828 28.5052 63.4611 28.0109Z" fill="#E0B32D" fill-opacity="0.83"/>
<path d="M63.8671 28.1093L65.6807 28.4934L66.3865 28.9627C66.3865 28.9627 66.3684 29.5067 66.7797 29.9875C67.3173 30.6162 67.4502 30.8969 69.9624 31.4869C70.345 32.9682 71.2394 36.6391 70.8294 37.0966C70.3143 37.6715 68.8625 39.0609 68.8625 39.0609L63.8671 28.1093Z" fill="#263238" stroke="#263238" stroke-miterlimit="10" stroke-linecap="round" stroke-linejoin="round"/>
<path d="M65.7966 32.1821L70.5263 33.7152L66.2649 32.9009L65.7966 32.1821Z" fill="#999999" stroke="#263238" stroke-miterlimit="10" stroke-linecap="round" stroke-linejoin="round"/>
<path d="M66.8736 34.6735L70.6724 35.7717L67.2951 35.3921L66.8736 34.6735Z" fill="#999999" stroke="#263238" stroke-miterlimit="10" stroke-linecap="round" stroke-linejoin="round"/>
<path d="M63.9991 28.1373L65.6807 28.4934L65.7394 28.51C65.9583 28.5721 66.155 28.6973 66.3062 28.8707L66.3864 28.9627C66.3864 28.9627 66.4076 29.5067 66.7797 29.9875C67.2864 30.6425 67.4501 30.8969 69.9624 31.4869C70.0165 31.6962 70.081 31.9503 70.1504 32.2319C69.5275 32.0915 66.557 31.3842 65.6783 30.4853C64.9978 29.7891 64.3401 28.7264 63.9991 28.1373Z" fill="#BABABA" stroke="#263238" stroke-miterlimit="10" stroke-linecap="round" stroke-linejoin="round"/>
<path d="M103.422 29.575C103.422 29.575 102.907 30.7248 102.861 31.5872C102.814 32.4496 102.72 34.7971 102.72 34.7971L104.593 35.9469L103.422 29.575Z" fill="#263238" stroke="#263238" stroke-miterlimit="10" stroke-linecap="round" stroke-linejoin="round"/>
<path d="M101.456 30.7248L101.783 37.2883" stroke="white" stroke-miterlimit="10" stroke-linecap="round" stroke-linejoin="round"/>
<path d="M84.5035 32.5931L87.9689 39.3483" stroke="white" stroke-miterlimit="10" stroke-linecap="round" stroke-linejoin="round"/>
<path opacity="0.49" d="M87.0834 34.3462C92.2815 34.2504 100.907 33.1985 100.907 33.1985L100.894 33.5993L101.081 35.851L101.128 36.4259C101.128 36.4259 92.1162 37.8315 88.3699 37.6877L88.1092 37.0966L87.3132 34.797L87.0834 34.3462Z" fill="white"/>
<path opacity="0.3" d="M8.67771 24.7112C8.67771 24.7112 8.75325 22.5269 9.09282 20.6463C9.56097 19.8012 10.2891 18.9034 11.4037 18.3643C13.9793 17.1187 16.8358 20.2806 17.7255 21.4784C18.6153 22.6761 19.3177 22.6282 19.3177 20.4244C19.3177 18.2206 16.7421 16.2564 16.7421 16.2564C16.7421 16.2564 45.8697 25.5987 46.1975 25.6466C46.5254 25.6945 46.6658 27.5629 47.8834 27.8025C49.1009 28.0421 49.1009 24.9759 53.6434 23.8261C58.1858 22.6763 62.0257 29.2398 62.8219 30.4854C63.6179 31.731 63.9458 31.2519 63.9458 31.2519L64.4609 30.4854C64.4609 30.4854 69.3312 42.4147 70.0336 43.6603C70.3447 44.212 71.4549 44.8385 72.5955 45.3658C72.0477 45.3663 71.6741 45.3561 71.5595 45.3315C70.8744 45.1839 62.5816 44.0773 62.5816 44.0773C62.5816 44.0773 63.2307 38.7286 62.6898 35.7409C62.149 32.7532 60.4183 28.3634 58.7597 26.7773C57.1011 25.1911 55.2262 24.0846 52.6662 25.0067C50.1062 25.9288 48.6279 28.8799 48.664 32.8637C48.7001 36.8476 50.1784 42.3438 50.1784 42.3438L43.3278 40.9052L24.3624 36.5156C24.3624 36.5156 17.656 35.7779 17.656 35.6672C17.656 35.5564 18.5574 31.6096 18.7016 28.6954C18.8459 25.7813 16.8267 21.7237 15.3846 19.9531C13.9424 18.1825 11.9592 18.5882 10.7694 19.5842C9.57952 20.5803 9.07473 24.0475 9.07473 24.0475L8.67771 24.7112Z" fill="black"/>
<path opacity="0.35" d="M22.2679 20.7597C22.2679 20.7597 26.2015 31.8746 26.5762 32.1619C26.9508 32.4495 33.5069 34.1742 33.5069 34.1742C33.5069 34.1742 27.5128 32.4495 26.904 31.4912C26.2951 30.5332 22.2679 20.7597 22.2679 20.7597Z" fill="white"/>
<path d="M24.362 36.5151C24.362 36.5151 17.6556 35.7774 17.6556 35.6667C17.6556 35.556 18.5569 31.6091 18.7012 28.695C18.7027 28.6653 18.7025 28.6348 18.7036 28.6049C19.5776 28.7915 21.0782 29.1467 21.5655 29.479C22.2679 29.9581 23.6728 31.3474 27.4191 32.6889C31.1655 34.0303 45.823 37.336 45.823 37.336L47.0405 36.1383L48.9817 36.4965C49.426 39.5461 50.1781 42.3433 50.1781 42.3433L43.3275 40.9047L24.362 36.5151Z" fill="#5E5E5E" stroke="#263238" stroke-miterlimit="10" stroke-linecap="round" stroke-linejoin="round"/>
<path d="M44.4647 40.3544C44.09 40.4981 43.6217 40.3544 43.6217 40.3544C43.6217 40.3544 27.1847 36.5217 26.2949 36.0426C25.4051 35.5634 22.2677 30.006 21.5651 29.479C22.2675 29.9581 23.6725 31.3474 27.4188 32.6889C31.1652 34.0303 45.8227 37.336 45.8227 37.336L47.0402 36.1383C47.0402 36.1383 44.8394 40.2107 44.4647 40.3544Z" fill="#263238" stroke="#263238" stroke-miterlimit="10" stroke-linecap="round" stroke-linejoin="round"/>
<path d="M62.8999 39.3551L68.4798 40.1706C69.2147 41.9009 69.8188 43.2796 70.0334 43.6601C70.3445 44.2119 71.4547 44.8384 72.5953 45.3657C72.5288 45.3657 72.4651 45.3657 72.4038 45.3654C72.4008 45.3654 72.3977 45.3654 72.3948 45.3654C72.2728 45.3648 72.1618 45.3635 72.0629 45.3617C72.0576 45.3615 72.0527 45.3615 72.0475 45.3613C72.0057 45.3604 71.9664 45.3595 71.9291 45.3584C71.9217 45.3582 71.9141 45.3579 71.9068 45.3578C71.8262 45.3551 71.7575 45.3519 71.7011 45.3478C71.694 45.3474 71.6877 45.3467 71.6811 45.3463C71.661 45.3447 71.6429 45.343 71.6265 45.3411C71.6206 45.3405 71.6143 45.3399 71.609 45.3391C71.5896 45.3366 71.5722 45.3341 71.5593 45.3313C70.8742 45.1838 62.5814 44.0772 62.5814 44.0772C62.5814 44.0772 62.8599 41.7796 62.8999 39.3551Z" fill="#263238" stroke="#263238" stroke-miterlimit="10" stroke-linecap="round" stroke-linejoin="round"/>
<path d="M46.8659 33.6254C46.9314 34.5082 46.9935 35.0364 46.9935 35.0364" stroke="#263238" stroke-miterlimit="10" stroke-linecap="round" stroke-linejoin="round"/>
<path d="M48.7262 20.1369C48.7262 20.1369 47.0872 22.3407 46.8061 26.7004C46.662 28.9354 46.7149 31.0697 46.8006 32.6191" stroke="#263238" stroke-miterlimit="10" stroke-linecap="round" stroke-linejoin="round"/>
<path d="M25.5346 17.4684C25.1592 18.1471 24.8433 19.0759 24.8433 20.2806C24.8433 23.2509 27.9809 31.2039 28.8706 32.3537" stroke="#263238" stroke-miterlimit="10" stroke-linecap="round" stroke-linejoin="round"/>
<path d="M26.7634 16.0168C26.7634 16.0168 26.3817 16.2739 25.9589 16.822" stroke="#263238" stroke-miterlimit="10" stroke-linecap="round" stroke-linejoin="round"/>
<path d="M57.2225 20.2529C56.4814 20.0974 55.6984 19.9559 54.8716 19.8318" stroke="#263238" stroke-miterlimit="10" stroke-linecap="round" stroke-linejoin="round"/>
<path d="M68.9384 25.9568C68.9384 25.9568 66.32 22.4466 58.3777 20.5143" stroke="#263238" stroke-miterlimit="10" stroke-linecap="round" stroke-linejoin="round"/>
<path opacity="0.3" d="M90.5012 18.1449C90.9077 18.2782 91.2676 18.4413 91.5497 18.6424C93.468 20.0102 97.7112 24.9459 98.3507 26.1352C98.3507 26.1352 93.6423 21.9131 91.0267 20.4859C88.4109 19.0586 84.1788 17.6289 84.1788 17.6289C84.3101 17.6625 88.0626 17.788 90.5012 18.1449Z" fill="black"/>
<path opacity="0.61" d="M80.1569 28.0383C80.1569 28.0383 69.8102 20.8428 59.9868 20.1292C59.9868 20.1292 65.5088 20.3075 71.9028 22.5079C78.2969 24.7081 80.1569 28.0383 80.1569 28.0383Z" fill="white"/>
<path opacity="0.3" d="M69.9624 31.4869C70.0995 31.5581 70.4424 31.5978 70.923 31.683C74.4351 32.3058 83.8011 35.5157 83.8011 35.5157C83.8011 35.5157 86.845 39.1089 87.407 39.4442C87.9689 39.7796 88.1094 39.8275 88.3436 39.8275C88.5777 39.8275 100.707 38.2944 101.362 38.1986C102.018 38.1028 101.877 38.486 102.018 38.1028C102.158 37.7195 102.533 31.5872 102.673 30.8207C102.765 30.3225 103.172 29.1974 103.447 28.4702C103.487 28.6758 103.616 29.3252 103.788 30.1932L102.707 39.4371L88.4596 41.404L71.0296 36.4388L69.9624 31.4869Z" fill="black"/>
<path opacity="0.24" d="M56.4878 8.33332C64.4922 8.00132 67.3766 8.8129 67.3766 8.8129C67.3766 8.8129 68.5664 9.32933 70.4414 10.2515C72.3163 11.1736 81.5827 17.0388 81.835 17.3706C82.0874 17.7026 81.871 17.9239 81.5827 18.0346C81.5232 18.0575 80.6886 18.1208 79.3932 18.2072C70.217 15.7663 54.6575 11.6277 45.0811 9.08254C46.4991 8.89111 50.2944 8.59021 56.4878 8.33332Z" fill="white" stroke="#263238" stroke-miterlimit="10" stroke-linecap="round" stroke-linejoin="round"/>
<path d="M75.6778 42.0959L82.468 44.9149L72.9223 45.0659C72.9223 45.0659 70.8065 44.1597 70.4128 43.7068C70.0191 43.2538 69.5271 41.9449 69.5271 41.9449L75.6778 42.0959Z" fill="#263238" stroke="#263238" stroke-miterlimit="10" stroke-linecap="round" stroke-linejoin="round"/>
<path opacity="0.24" d="M89.9565 22.79C89.9565 22.79 92.25 23.4036 93.8731 24.9919C95.0211 26.1153 95.5658 27.1642 95.4759 27.7599L82.0809 23.3349C84.4369 23.0204 88.6172 22.609 89.9565 22.79Z" fill="white" stroke="#263238" stroke-miterlimit="10" stroke-linecap="round" stroke-linejoin="round"/>
<path d="M65.3398 28.0588C65.3398 28.0588 64.6052 26.7905 65.7531 26.4616C66.901 26.1327 79.023 29.656 79.023 29.656L70.1152 26.6966C70.1152 26.6966 64.7888 25.1933 63.9165 25.5222C63.044 25.8511 63.0899 26.6027 63.6869 27.824L65.3398 28.0588Z" fill="white"/>
<path d="M66.3039 26.6964C66.3039 26.6964 68.7834 27.0723 69.013 27.3071C69.2425 27.5419 69.3345 28.7162 69.013 28.8103C68.6915 28.9043 67.36 28.9043 66.809 28.6694C66.258 28.4346 66.0744 28.0118 66.0744 27.6829C66.0744 27.3542 66.0744 26.5555 66.3039 26.6964Z" fill="white"/>
<path d="M102.854 25.0524L102.303 28.4816L103.433 27.109C103.433 27.109 102.857 28.2574 102.382 28.8515C101.907 29.4457 101.431 29.932 101.431 29.932C101.431 29.932 101.51 28.9326 101.563 28.2303C101.616 27.528 102.303 26.0154 102.197 25.3132C102.091 24.6109 101.695 24.0436 101.695 24.0436C101.695 24.0436 102.929 24.3324 102.854 25.0524Z" fill="white"/>
<path d="M69.9624 31.4869C69.9624 31.4869 72.2962 31.9563 74.0731 32.4215" stroke="#263238" stroke-miterlimit="10" stroke-linecap="round" stroke-linejoin="round"/>
<path d="M76.1395 33.0133L83.8011 35.5157C83.8011 35.5157 87.4213 39.8625 88.0413 39.8202" stroke="#263238" stroke-miterlimit="10" stroke-linecap="round" stroke-linejoin="round"/>
<path d="M100.935 38.1713L89.4876 39.6509" stroke="#263238" stroke-miterlimit="10" stroke-linecap="round" stroke-linejoin="round"/>
<path d="M103.251 28.9478C103.251 28.9478 102.78 30.3163 102.673 30.8206C102.567 31.3249 102.11 37.3311 102.11 37.3311" stroke="#263238" stroke-miterlimit="10" stroke-linecap="round" stroke-linejoin="round"/>
<path d="M65.6059 8.14331C66.4245 8.29477 67.2177 8.56193 67.9674 8.93063C68.4883 9.1869 69.2742 9.54674 70.4414 10.0304C73.2898 11.2108 81.5466 16.8177 82.2677 17.1127C82.9888 17.4078 84.0344 17.5922 84.1787 17.6291C84.3229 17.666 88.8299 17.8135 91.1736 18.2563C93.5172 18.6988 96.1132 20.1375 97.4474 20.9121C98.7815 21.6867 100.728 23.3098 100.981 23.4943C101.233 23.6787 102.748 24.0107 103.108 24.7484C103.469 25.4861 103.505 26.6297 103.433 27.1091C103.361 27.5887 103.433 28.4001 103.433 28.4001C103.433 28.4001 105.236 37.5113 105.344 37.9909C105.452 38.4705 106.209 40.1672 105.92 40.536C105.632 40.9049 104.731 41.6795 103.613 41.8639C102.495 42.0483 99.1058 41.7902 99.1058 41.7902L88.217 43.1919C88.217 43.1919 85.008 44.9625 83.5658 45.0364C82.1236 45.1101 72.2442 45.4789 71.5592 45.3315C70.8741 45.1839 62.5813 44.0773 62.5813 44.0773C62.5813 44.0773 63.2303 38.7288 62.6895 35.7409C62.1487 32.753 60.418 28.3634 58.7594 26.7773C57.1008 25.1911 55.2259 24.0846 52.6659 25.0067C50.1059 25.9289 48.6275 28.8799 48.6637 32.8637C48.6997 36.8476 50.1781 42.3438 50.1781 42.3438L43.3274 40.9052L24.3621 36.5156C24.3621 36.5156 17.6557 35.7779 17.6557 35.6672C17.6557 35.5565 18.5571 31.6096 18.7013 28.6954C18.8456 25.7813 16.8264 21.7237 15.3842 19.9531C13.942 18.1825 11.9589 18.5883 10.769 19.5843C9.57919 20.5803 9.0744 24.0477 9.0744 24.0477L8.67783 24.7117C8.67783 24.7117 8.78606 21.5763 9.32687 19.5844C9.86769 17.5926 10.3365 15.8588 11.5623 14.5678C12.7882 13.2768 14.2666 12.9817 15.3122 12.9448C16.3578 12.908 18.5932 12.4284 18.8817 12.3177C19.1702 12.207 33.9171 8.37066 33.9171 8.37066C33.9171 8.37066 40.9841 6.82136 49.7096 6.89523C57.8924 6.96412 58.9085 6.90363 65.6059 8.14331Z" stroke="#263238" stroke-miterlimit="10" stroke-linecap="round" stroke-linejoin="round"/>
</svg>
