<svg width="266" height="103" viewBox="0 0 266 103" fill="none" xmlns="http://www.w3.org/2000/svg">
<g clip-path="url(#clip0_55_130)">
<path d="M158.538 94.0024L6.19716 56.9098L1.93786 45.2869C1.93786 45.2869 1.74281 37.6354 5.16658 30.4957C8.59035 23.3557 21.4033 25.3789 27.2689 31.3988C33.1345 37.4183 37.6454 42.2342 37.6454 42.2342L107.234 55.2543C107.234 55.2543 116.437 43.7391 127.263 43.7391C138.089 43.7391 146.811 58.186 150.72 69.9241C154.629 81.6622 158.538 94.0024 158.538 94.0024Z" fill="#0F1315" stroke="#0F1315" stroke-miterlimit="10" stroke-linecap="round" stroke-linejoin="round"/>
<path d="M27.2689 31.3984C34.6229 31.3984 41.2316 42.1789 41.2316 56.2692C41.2316 70.3595 35.2703 81.7819 27.9164 81.7819L13.6703 82.4237L13.6703 31.3984L27.2689 31.3984Z" fill="#0F1315" stroke="#0F1315" stroke-miterlimit="10" stroke-linecap="round" stroke-linejoin="round"/>
<path d="M13.6699 82.4241C6.31607 82.4241 0.354635 71.0017 0.354635 56.9115C0.354635 42.8212 6.31607 31.3988 13.6699 31.3988C21.0237 31.3988 26.9852 42.8212 26.9852 56.9115C26.9852 71.0017 21.0237 82.4241 13.6699 82.4241Z" fill="#5E5E5E" stroke="#0F1315" stroke-miterlimit="10" stroke-linecap="round" stroke-linejoin="round"/>
<path d="M12.7449 80.0409C6.58886 80.0409 1.59842 69.9958 1.59842 57.6045C1.59842 45.2132 6.58886 35.168 12.7449 35.168C18.9009 35.168 23.8913 45.2132 23.8913 57.6045C23.8913 69.9958 18.9009 80.0409 12.7449 80.0409Z" fill="#0F1315" stroke="#0F1315" stroke-miterlimit="10" stroke-linecap="round" stroke-linejoin="round"/>
<path d="M15.2011 35.7211C15.6383 35.9192 16.0664 36.1665 16.4825 36.4645L14.6147 39.3128C14.6147 39.3128 10.8387 42.2796 10.9963 43.8142C11.1534 45.3488 12.2549 47.0881 12.7267 47.7019C13.1985 48.3156 15.7946 50.362 15.7946 50.362L16.5027 53.2269C16.5027 53.2269 13.1989 51.5899 12.5696 50.1577C11.9403 48.7255 8.79364 40.4384 8.95118 39.0062C9.10872 37.5739 9.50172 36.9602 9.50172 36.9602L10.6387 35.5742C10.7608 35.5271 10.8829 35.4809 11.0062 35.4421L15.2011 35.7211ZM9.9731 40.8474L13.5371 37.1191C14.0885 37.3077 14.5355 37.4712 14.5355 37.4712L13.5915 37.0617L13.5371 37.1187C12.7779 36.8586 11.8198 36.5499 11.5464 36.5499C11.0742 36.5499 10.2878 37.266 9.9731 38.5959C9.65844 39.9266 9.9731 40.8474 9.9731 40.8474Z" fill="#999999" stroke="#0F1315" stroke-miterlimit="10" stroke-linecap="round" stroke-linejoin="round"/>
<path d="M17.6034 76.5532C17.6034 76.5532 14.6931 75.4276 14.2996 75.121C13.9062 74.8139 14.2209 76.6555 14.7714 77.474C15.322 78.2925 15.7942 78.5996 15.7942 78.5996L17.6034 76.5532Z" fill="white" stroke="#0F1315" stroke-miterlimit="10" stroke-linecap="round" stroke-linejoin="round"/>
<path d="M4.95508 41.5627L5.01736 41.7682C5.01736 41.7682 6.51189 41.0521 6.51189 41.6659C6.51189 42.2796 7.53465 43.8142 7.77055 44.0189C8.00644 44.2237 10.2879 47.4976 10.2879 47.4976L13.9063 53.2269L4.85981 44.7351C4.85981 44.7351 4.93859 43.3028 4.15172 47.0881C3.36527 50.8734 3.5224 53.0222 3.5224 53.3288C3.5224 53.6359 7.77015 55.3748 7.29836 55.7843C6.82616 56.1933 6.90492 57.0118 6.19682 56.9098C5.48873 56.8075 2.3425 56.0913 2.3425 56.0913L3.75827 60.0813L3.75827 64.3784C3.75827 64.3784 8.08482 60.7975 10.5234 60.1837C12.9619 59.57 15.4792 60.0813 15.4792 60.0813L14.6927 64.9922C14.6927 64.9922 16.8166 61.7183 17.2101 61.3093C17.6035 60.9002 18.2328 61.4116 18.2328 61.4116L19.2556 62.6391C19.2556 62.6391 19.649 66.8339 20.2783 67.55C20.6 67.9161 21.1468 68.2277 21.6054 68.4461C22.0075 67.1125 22.6385 64.3784 22.6385 64.3784C22.9532 62.8439 22.7956 62.0254 22.7956 62.0254L20.1996 62.7415C20.1996 62.7415 18.3116 60.1837 18.2328 59.8766C18.154 59.5695 18.154 57.7283 18.3899 56.8075C18.6258 55.8866 19.3339 55.3752 19.3339 55.3752L18.154 52.4084L18.7046 52.1013L20.042 55.7843L19.9632 59.5695L23.0311 58.444C23.1099 52.5099 21.93 48.5199 21.93 48.5199L19.8061 48.2129C19.8061 48.2129 19.0197 48.1105 18.7834 48.3152C18.5475 48.5199 17.2101 52.6123 17.2101 52.6123L16.8954 51.5891C16.8954 51.5891 17.8394 48.0081 18.6258 45.5527C19.4123 43.0973 20.5926 43.9158 20.5926 43.9158C19.8845 41.7674 18.3112 39.6187 18.3112 39.6187L16.8954 41.8694L14.7715 40.6414L15.1649 39.0045L16.4822 36.4632C20.7996 39.5563 23.891 47.8513 23.891 57.6032C23.891 61.6758 23.347 65.4887 22.4047 68.7812L22.4067 68.7849C22.3939 68.8299 22.3799 68.8737 22.3672 68.9182C22.3548 68.9607 22.3441 69.0053 22.3317 69.0478H22.3288C20.386 75.6266 16.8232 80.0401 12.745 80.0401C6.58902 80.0401 1.59852 69.9947 1.59852 57.6036C1.59852 51.3163 2.88523 45.6361 4.95508 41.5627ZM18.8621 74.8139C19.1768 74.4049 20.5926 71.54 20.5926 71.54C20.5926 71.54 18.7834 69.4936 18.3112 68.7775C17.8394 68.0614 17.6818 63.2529 17.6818 63.2529C17.6818 63.2529 14.9286 68.1637 14.4564 69.8007C13.9847 71.4376 14.2993 72.0514 14.7711 72.7675C15.2437 73.484 18.5475 75.2233 18.8621 74.8139ZM3.5228 68.3685C3.5228 68.3685 5.01734 65.6059 5.88256 66.1177C6.74778 66.6291 6.98368 67.3453 7.77055 68.0618C8.55741 68.7779 10.6025 68.1641 10.6025 68.1641C10.6025 68.1641 8.47866 74.3025 8.16399 75.2233C7.84933 76.1442 8.63578 77.3717 9.10799 77.7811C9.57978 78.1906 10.2091 77.8835 10.7601 77.8835C11.3106 77.8835 12.4905 78.1906 12.4905 78.1906L14.2997 78.8043C14.2997 78.8043 12.9623 75.9399 12.8052 75.019C12.648 74.0982 12.648 70.8243 12.648 70.8243L10.4454 76.0422L8.95084 75.3261C8.95084 75.3261 13.1198 64.8907 13.3561 64.5836C13.592 64.2765 13.9855 62.5376 13.9855 62.0258C13.9855 61.5144 14.3789 60.6959 14.3789 60.6959C14.3789 60.6959 11.4682 60.7983 9.42305 62.3329C7.37795 63.8675 3.91664 65.7091 3.68075 66.1182C3.44403 66.5268 3.5228 68.3685 3.5228 68.3685Z" fill="#999999" stroke="#0F1315" stroke-miterlimit="10" stroke-linecap="round" stroke-linejoin="round"/>
<path d="M9.10788 56.9098L13.3556 54.6591L15.0861 55.4776C15.0861 55.4776 13.041 56.7055 11.6248 57.2169C10.209 57.7283 9.10788 56.9098 9.10788 56.9098Z" fill="#999999" stroke="#0F1315" stroke-miterlimit="10" stroke-linecap="round" stroke-linejoin="round"/>
<path d="M145.533 49.5943C155.351 49.5943 163.31 61.3287 163.31 75.8041C163.31 90.2791 155.351 102.014 145.533 102.014H127.379V49.5943L145.533 49.5943Z" fill="#0F1315" stroke="#0F1315" stroke-miterlimit="10" stroke-linecap="round" stroke-linejoin="round"/>
<path d="M127.379 102.014C117.561 102.014 109.603 90.2793 109.603 75.8041C109.603 61.3288 117.561 49.5943 127.379 49.5943C137.196 49.5943 145.155 61.3288 145.155 75.8041C145.155 90.2793 137.196 102.014 127.379 102.014Z" fill="#5E5E5E" stroke="#0F1315" stroke-miterlimit="10" stroke-linecap="round" stroke-linejoin="round"/>
<path d="M126.144 99.5654C117.926 99.5654 111.263 89.2459 111.263 76.5161C111.263 63.7863 117.926 53.4667 126.144 53.4667C134.362 53.4667 141.024 63.7863 141.024 76.5161C141.024 89.2459 134.362 99.5654 126.144 99.5654Z" fill="#0F1315" stroke="#0F1315" stroke-miterlimit="10" stroke-linecap="round" stroke-linejoin="round"/>
<path d="M129.423 54.035C130.006 54.2385 130.578 54.4924 131.133 54.7986L128.639 57.7246C128.639 57.7246 123.598 60.7727 123.808 62.349C124.018 63.9257 125.488 65.7124 126.119 66.3431C126.749 66.9738 130.214 69.0759 130.214 69.0759L131.159 72.0188C131.159 72.0188 126.749 70.3373 125.909 68.8658C125.069 67.3944 120.868 58.8811 121.078 57.4097C121.288 55.9382 121.813 55.3075 121.813 55.3075L123.331 53.8836C123.494 53.8353 123.657 53.7878 123.821 53.7478L129.423 54.035ZM122.444 59.3013L127.202 55.471C127.938 55.665 128.534 55.833 128.534 55.833L127.274 55.4124L127.202 55.471C126.188 55.2039 124.909 54.887 124.544 54.887C123.914 54.887 122.864 55.6229 122.444 56.9891C122.023 58.3552 122.444 59.3013 122.444 59.3013Z" fill="#999999"/>
<path d="M127.202 55.471L122.444 59.3013C122.444 59.3013 122.023 58.3552 122.444 56.9891C122.864 55.6229 123.914 54.887 124.544 54.887C124.909 54.887 126.188 55.2039 127.202 55.471ZM127.202 55.471C127.938 55.665 128.534 55.833 128.534 55.833L127.274 55.4124L127.202 55.471ZM129.423 54.035C130.006 54.2385 130.578 54.4924 131.133 54.7986L128.639 57.7246C128.639 57.7246 123.598 60.7727 123.808 62.349C124.018 63.9257 125.488 65.7124 126.119 66.3431C126.749 66.9738 130.214 69.0759 130.214 69.0759L131.159 72.0188C131.159 72.0188 126.749 70.3373 125.909 68.8658C125.069 67.3944 120.868 58.8811 121.078 57.4097C121.288 55.9382 121.813 55.3075 121.813 55.3075L123.331 53.8836C123.494 53.8353 123.657 53.7878 123.821 53.7478L129.423 54.035Z" stroke="#0F1315" stroke-miterlimit="10" stroke-linecap="round" stroke-linejoin="round"/>
<path d="M132.63 95.9824C132.63 95.9824 128.744 94.8263 128.219 94.511C127.694 94.1956 128.114 96.0876 128.85 96.9284C129.585 97.7692 130.215 98.0845 130.215 98.0845L132.63 95.9824Z" fill="white" stroke="#0F1315" stroke-miterlimit="10" stroke-linecap="round" stroke-linejoin="round"/>
<path d="M115.745 60.036L115.828 60.2473C115.828 60.2473 117.823 59.5114 117.823 60.142C117.823 60.7727 119.188 62.3494 119.503 62.5595C119.818 62.7696 122.864 66.133 122.864 66.133L127.695 72.0188L115.618 63.295C115.618 63.295 115.723 61.8236 114.673 65.7124C113.623 69.6013 113.832 71.8083 113.832 72.1236C113.832 72.439 119.503 74.2257 118.873 74.6463C118.243 75.0665 118.348 75.9077 117.403 75.8024C116.458 75.6972 112.257 74.9617 112.257 74.9617L114.148 79.0606V83.475C114.148 83.475 119.924 79.7962 123.179 79.1659C126.435 78.5352 129.795 79.0606 129.795 79.0606L128.745 84.1056C128.745 84.1056 131.581 80.7422 132.106 80.322C132.631 79.9014 133.471 80.4272 133.471 80.4272L134.836 81.6886C134.836 81.6886 135.361 85.9976 136.201 86.7336C136.63 87.1096 137.36 87.4299 137.972 87.654C138.509 86.2837 139.351 83.4754 139.351 83.4754C139.771 81.8987 139.561 81.0579 139.561 81.0579L136.096 81.7934C136.096 81.7934 133.575 79.1659 133.47 78.8505C133.365 78.5352 133.365 76.6432 133.68 75.6976C133.995 74.7516 134.94 74.2262 134.94 74.2262L133.365 71.178L134.1 70.8627L135.886 74.6463L135.781 78.5352L139.876 77.3791C139.981 71.2829 138.406 67.1839 138.406 67.1839L135.571 66.8685C135.571 66.8685 134.52 66.7633 134.206 66.9738C133.891 67.1839 132.105 71.3881 132.105 71.3881L131.685 70.3373C131.685 70.3373 132.945 66.6585 133.995 64.1362C135.046 61.6135 136.621 62.4546 136.621 62.4546C135.675 60.2473 133.575 58.0403 133.575 58.0403L131.685 60.3525L128.849 59.0912L129.374 57.4097L131.133 54.799C136.896 57.9768 141.023 66.4983 141.023 76.5165C141.023 80.7005 140.297 84.6174 139.039 87.9999L139.042 88.0036C139.025 88.0498 139.006 88.0948 138.989 88.1406C138.973 88.1844 138.959 88.2302 138.942 88.2735H138.938C136.343 95.0318 131.587 99.5658 126.143 99.5658C117.925 99.5658 111.263 89.2464 111.263 76.5165C111.263 70.0566 112.981 64.2208 115.745 60.036ZM134.311 94.1956C134.731 93.775 136.621 90.8321 136.621 90.8321C136.621 90.8321 134.206 88.73 133.575 87.9941C132.945 87.2586 132.735 82.3184 132.735 82.3184C132.735 82.3184 129.06 87.3634 128.43 89.045C127.8 90.7265 128.22 91.3572 128.85 92.0931C129.48 92.8294 133.891 94.6162 134.311 94.1956ZM113.832 87.5743C113.832 87.5743 115.828 84.7367 116.983 85.2621C118.138 85.7876 118.453 86.5235 119.503 87.259C120.553 87.9945 123.284 87.3643 123.284 87.3643C123.284 87.3643 120.448 93.6706 120.028 94.6166C119.608 95.5626 120.659 96.824 121.289 97.2442C121.919 97.6647 122.759 97.3494 123.494 97.3494C124.23 97.3494 125.805 97.6647 125.805 97.6647L128.22 98.2954C128.22 98.2954 126.435 95.3525 126.225 94.4065C126.015 93.4605 126.015 90.0975 126.015 90.0975L123.074 95.4578L121.079 94.7219C121.079 94.7219 126.645 84.0012 126.96 83.6859C127.275 83.3705 127.8 81.5837 127.8 81.0583C127.8 80.5329 128.325 79.6921 128.325 79.6921C128.325 79.6921 124.439 79.7974 121.709 81.3737C118.978 82.9504 114.358 84.842 114.043 85.2626C113.727 85.6823 113.832 87.5743 113.832 87.5743Z" fill="#999999" stroke="#0F1315" stroke-miterlimit="10" stroke-linecap="round" stroke-linejoin="round"/>
<path d="M121.289 75.8024L126.959 73.4902L129.27 74.331C129.27 74.331 126.539 75.5923 124.649 76.1178C122.759 76.6436 121.289 75.8024 121.289 75.8024Z" fill="#999999" stroke="#0F1315" stroke-miterlimit="10" stroke-linecap="round" stroke-linejoin="round"/>
<path d="M155.318 3.07349C157.539 3.4755 159.692 4.1846 161.726 5.16322C163.139 5.84342 165.271 6.79851 168.438 8.08215C176.166 11.2153 198.568 26.0973 200.525 26.8802C202.481 27.6636 205.318 28.1531 205.71 28.251C206.101 28.3488 218.329 28.7405 224.688 29.9156C231.047 31.0902 238.09 34.909 241.71 36.9649C245.33 39.0207 250.612 43.329 251.297 43.8185C251.982 44.308 256.09 45.1892 257.069 47.1473C258.047 49.1054 258.145 52.1407 257.949 53.4132C257.754 54.6861 257.949 56.8398 257.949 56.8398C257.949 56.8398 262.841 81.023 263.134 82.2959C263.427 83.5688 265.482 88.0722 264.699 89.0513C263.916 90.0303 261.471 92.0862 258.438 92.5757C255.405 93.0652 246.21 92.3801 246.21 92.3801L216.666 96.1005C216.666 96.1005 207.96 100.8 204.047 100.996C200.134 101.192 173.329 102.171 171.471 101.78C169.612 101.388 147.112 98.4507 147.112 98.4507C147.112 98.4507 148.873 84.2543 147.406 76.3239C145.938 68.3934 141.243 56.7424 136.743 52.5324C132.242 48.3224 127.155 45.3853 120.21 47.8329C113.264 50.2804 109.253 58.1131 109.351 68.6872C109.449 79.2614 113.46 93.8494 113.46 93.8494L94.8729 90.0311L43.4166 78.3802C43.4166 78.3802 25.2209 76.4221 25.2209 76.1282C25.2209 75.8343 27.6665 65.3584 28.0578 57.6236C28.4492 49.8887 22.9708 39.119 19.058 34.4195C15.1451 29.7199 9.76447 30.7968 6.53618 33.4404C3.30789 36.0841 1.93831 45.2875 1.93831 45.2875L0.862344 47.0499C0.862344 47.0499 1.15598 38.7277 2.62331 33.4408C4.09064 28.154 5.36248 23.5523 8.68851 20.1257C12.0145 16.699 16.0256 15.9157 18.8625 15.8178C21.6994 15.72 27.7646 14.4471 28.5474 14.1532C29.3301 13.8594 69.341 3.67692 69.341 3.67692C69.341 3.67692 88.5149 -0.435262 112.189 -0.239208C134.39 -0.0563619 137.147 -0.21692 155.318 3.07349Z" fill="white"/>
<path d="M167.007 99.3582C166.292 98.2851 162.717 86.8359 162.717 86.8359L170.403 87.9091L248.333 84.1527L262.457 79.0396C262.821 80.8148 263.074 82.0353 263.133 82.2957C263.427 83.5686 265.481 88.0721 264.699 89.0516C263.916 90.0306 261.47 92.0865 258.438 92.576C255.405 93.0655 246.21 92.3803 246.21 92.3803L216.666 96.1008C216.666 96.1008 207.96 100.8 204.047 100.996C200.244 101.187 174.823 102.117 171.688 101.81C169.437 100.839 167.324 99.8345 167.007 99.3582Z" fill="#5E5E5E" stroke="#0F1315" stroke-miterlimit="10" stroke-linecap="round" stroke-linejoin="round"/>
<path d="M253.216 82.3849L261.144 80.8998L262.746 83.7057L263.681 87.4468C263.681 87.4468 263.681 87.4468 262.346 88.1146C261.011 88.7829 260.477 90.2527 259.275 91.0542C258.074 91.8558 255.671 92.3903 252.867 91.9895C250.064 91.5887 246.326 91.3212 246.326 91.3212L217.489 94.9286L214.82 94.3941L211.215 90.2522L242.201 84.4478L248.333 84.1523L253.216 82.3849Z" fill="#0F1315" stroke="#0F1315" stroke-miterlimit="10" stroke-linecap="round" stroke-linejoin="round"/>
<path d="M80.9695 1.76537C88.7833 0.721126 99.8762 -0.342104 112.188 -0.240156C134.39 -0.0564838 137.147 -0.217455 155.318 3.07337C157.539 3.47538 159.691 4.18448 161.725 5.1631C163.138 5.8433 165.271 6.79839 168.437 8.08203C175.251 10.8445 193.469 22.7378 199.027 26.0509C199.399 26.3361 201.371 27.8187 202.872 28.3487C204.535 28.936 205.318 29.4255 204.633 29.7194C203.949 30.0133 147.894 33.5377 145.84 33.5377C143.786 33.5377 119.916 33.2438 119.916 33.2438C119.916 33.2438 118.155 33.3416 116.296 31.8731C114.437 30.4045 104.752 14.837 100.546 9.84404C96.3394 4.85064 88.3177 2.59871 82.448 1.91355C81.9263 1.85288 81.4397 1.80623 80.9695 1.76537Z" fill="#0F1315" stroke="#0F1315" stroke-miterlimit="10" stroke-linecap="round" stroke-linejoin="round"/>
<path d="M160.123 4.85105C160.123 4.85105 152.297 2.69693 130.58 3.57814C108.862 4.45936 98.0035 5.53621 97.9057 5.92791C97.808 6.3196 106.71 16.502 111.308 22.4741C115.906 28.4465 117.471 31.0901 118.743 31.7753C120.015 32.4604 142.025 32.4604 144.765 32.4604C147.504 32.4604 197.884 29.6212 198.667 29.3273C199.45 29.0334 200.037 28.4461 199.352 27.5649C198.667 26.6836 173.526 11.1165 168.439 8.66895C163.351 6.22178 160.123 4.85105 160.123 4.85105Z" fill="#0F1315" stroke="#696969" stroke-miterlimit="10" stroke-linecap="round" stroke-linejoin="round"/>
<path d="M28.5465 14.1523C28.9119 14.0153 37.8231 11.7237 47.2234 9.31904C50.3408 9.32028 55.4563 9.12092 59.5576 7.98421C65.9164 6.22179 78.4382 3.48033 87.2426 6.02615C96.047 8.57196 102.895 19.6352 102.895 19.6352L111.21 33.3421C111.21 33.3421 102.308 35.1045 88.6118 32.9504C74.9159 30.7962 48.3072 23.4535 43.6116 20.9077C38.916 18.3623 38.5246 15.5226 38.5246 15.5226C38.5246 15.5226 25.6036 15.426 24.5615 15.0409C26.4936 14.6794 28.1609 14.2972 28.5465 14.1523Z" fill="#5E5E5E" stroke="#0F1315" stroke-miterlimit="10" stroke-linecap="round" stroke-linejoin="round"/>
<path d="M46.7421 17.7749C46.7421 17.7749 45.8617 17.8728 46.5467 16.6003C47.2317 15.3274 54.1769 10.2361 66.3078 8.47414C78.4382 6.71171 84.2098 6.71172 88.7099 8.66978C93.2101 10.6278 101.036 20.0269 101.036 20.0269L109.057 32.6569C109.057 32.6569 98.1989 33.1464 87.3399 31.58C76.4814 30.0137 52.9051 22.5727 49.9704 20.8103C47.0358 19.0479 46.7421 17.7749 46.7421 17.7749Z" fill="#0F1315" stroke="#0F1315" stroke-miterlimit="10" stroke-linecap="round" stroke-linejoin="round"/>
<path d="M104.931 26.1591L109.057 32.6565C109.057 32.6565 106.722 32.7613 103.136 32.7184L104.931 26.1591Z" fill="#5E5E5E" stroke="#0F1315" stroke-miterlimit="10" stroke-linecap="round" stroke-linejoin="round"/>
<path d="M56.8184 10.0405C56.8184 10.0405 46.9381 12.0964 39.2096 15.5234" stroke="#0F1315" stroke-miterlimit="10" stroke-linecap="round" stroke-linejoin="round"/>
<path d="M5.29777 25.2935C6.15763 23.371 7.22369 21.6337 8.68814 20.1247C8.88403 19.9229 9.0828 19.7318 9.28323 19.5477C10.7114 20.1177 12.8947 21.1215 12.8947 21.3972C12.8947 21.7889 11.1337 22.1806 8.5904 23.3553C7.2971 23.9529 6.13206 24.7012 5.29777 25.2935Z" fill="#0F1315" stroke="#0F1315" stroke-miterlimit="10" stroke-linecap="round" stroke-linejoin="round"/>
<path d="M96.5159 38.2216C96.5159 38.2216 98.1812 38.9034 98.1812 39.7367C98.1812 40.5701 98.1812 40.7975 97.3486 40.949C96.5159 41.1004 91.0656 40.873 90.0057 40.646C88.9459 40.4186 88.1132 39.6612 88.3405 38.9794C88.5677 38.2975 88.4918 37.9945 89.1731 37.6916C89.8544 37.3886 91.671 37.6916 93.3363 37.8431C95.002 37.9941 96.5159 38.2216 96.5159 38.2216Z" fill="#0F1315" stroke="#0F1315" stroke-miterlimit="10" stroke-linecap="round" stroke-linejoin="round"/>
<path d="M221.386 41.9499C221.386 41.9499 227.609 43.5786 232.012 47.7943C236.416 52.0101 237.565 55.8425 235.171 56.4174C232.778 56.9924 221.098 58.6211 217.365 56.7047C213.631 54.7883 204.728 48.8481 200.708 47.4109C196.687 45.9737 194.868 44.6323 195.538 44.1531C196.208 43.6747 216.312 41.2792 221.386 41.9499Z" fill="#0F1315"/>
<path d="M257.069 47.1472C258.047 49.1052 258.145 52.1406 257.949 53.413C257.754 54.686 257.949 56.8397 257.949 56.8397C257.949 56.8397 261.899 76.3666 262.912 81.2486C262.04 83.5682 258.757 86.2156 257.669 86.8855C256.424 87.6519 228.758 93.0176 211.334 92.7299C193.911 92.4427 166.244 91.4843 165.67 91.3885C165.095 91.2928 165 91.2928 163.947 90.3348C162.894 89.3768 154.756 67.2441 151.597 60.537C148.438 53.8303 146.619 51.2432 149.395 48.9438C152.172 46.6444 163.851 50.2853 166.627 51.1475C169.404 52.0097 195.156 60.3455 198.219 60.6328C201.283 60.9201 216.026 60.9201 216.026 60.9201L247.426 58.7164C247.426 58.7164 252.787 54.9798 253.745 51.2428C254.702 47.5062 251.297 43.8175 251.297 43.8175C251.982 44.3079 256.09 45.1891 257.069 47.1472Z" fill="#A6A6A6" stroke="#0F1315" stroke-miterlimit="10" stroke-linecap="round" stroke-linejoin="round"/>
<path d="M149.395 48.9442C152.171 46.6448 163.85 50.2857 166.627 51.1479C169.403 52.0101 195.155 60.3459 198.219 60.6332C201.282 60.9205 216.801 61.3497 216.801 61.3497L247.425 58.7172C247.425 58.7172 252.787 54.9806 253.744 51.2436C254.701 47.5071 251.297 43.8184 251.297 43.8184C251.981 44.3079 256.09 45.1891 257.068 47.1472C258.046 49.1052 258.144 52.1405 257.949 53.413C257.883 53.8431 257.862 54.3735 257.862 54.8878L257.764 54.9802C257.764 54.9802 254.701 61.5912 249.627 62.5496C244.553 63.5076 211.429 67.3403 202.909 66.4777C194.389 65.6154 157.436 58.3338 157.436 58.3338C157.436 58.3338 156.67 57.3758 155.521 57.0881C154.504 56.8335 150.94 56.4286 149.338 55.807C147.781 52.4117 147.392 50.6026 149.395 48.9442Z" fill="#D9D9D9" stroke="#0F1315" stroke-miterlimit="10" stroke-linecap="round" stroke-linejoin="round"/>
<path d="M252.144 61.5644C251.372 62.0254 250.532 62.3787 249.627 62.5496C244.701 63.4799 213.329 67.1199 203.714 66.5408C203.02 65.4834 201.243 63.0276 198.316 60.6411C201.567 60.9205 216.801 61.3493 216.801 61.3493L243.061 59.0231C246.848 58.7573 250.375 56.8578 252.533 53.7325C252.706 53.4828 252.867 53.2294 253.014 52.9727C252.631 54.4561 251.854 57.7176 251.95 59.4499C251.993 60.232 252.066 60.9519 252.144 61.5644Z" fill="#0F1315" stroke="#0F1315" stroke-miterlimit="10" stroke-linecap="round" stroke-linejoin="round"/>
<path d="M201.505 63.6925C202.106 63.7536 202.888 63.794 203.906 63.794C208.107 63.794 247.378 60.4698 248.941 59.9811C250.239 59.5749 251.602 58.2946 252.027 57.8719C251.958 58.4609 251.925 59.0062 251.949 59.4503C251.949 59.4503 251.09 60.4698 249.722 60.9589C248.48 61.403 209.697 64.4268 202.582 64.9786C202.272 64.5844 201.915 64.1527 201.505 63.6925Z" fill="#BABABA" stroke="#0F1315" stroke-miterlimit="10" stroke-linecap="round" stroke-linejoin="round"/>
<path d="M149.499 55.8074L155.682 57.0886L157.597 58.3342C157.597 58.3342 157.321 60.4528 159.355 61.8516C161.387 63.2504 160.377 63.9009 169.906 65.554C179.435 67.207 204.846 75.7269 204.846 75.7269C204.846 75.7269 213.105 85.2642 214.629 86.1541C216.154 87.0444 216.535 87.1715 217.171 87.1715C217.806 87.1715 250.713 83.1023 252.492 82.848C254.271 82.5938 253.89 83.6108 254.271 82.5938C254.652 81.5763 255.668 65.2997 256.05 63.2653C256.297 61.9429 257.275 59.338 258.019 57.4084C258.259 59.5143 261.922 77.231 262.711 81.4282C261.838 83.7478 258.917 86.216 257.829 86.8863C256.585 87.6528 228.918 93.0185 211.495 92.7308C194.072 92.4435 166.405 91.4851 165.83 91.3894C165.256 91.2936 165.16 91.2936 164.107 90.3356C163.054 89.3777 154.917 67.245 151.758 60.5379C150.876 58.6681 150.101 57.1195 149.499 55.8074Z" fill="white"/>
<path d="M150.601 56.0687L155.521 57.0881L157.436 58.3338C157.436 58.3338 157.387 59.7776 158.503 61.0538C159.962 62.7225 160.322 63.4675 167.138 65.0335C168.176 68.9653 170.603 78.7086 169.491 79.9229C168.093 81.4488 164.154 85.1367 164.154 85.1367L150.601 56.0687Z" fill="#0F1315" stroke="#0F1315" stroke-miterlimit="10" stroke-linecap="round" stroke-linejoin="round"/>
<path d="M155.836 66.8789L168.668 70.9481L157.106 68.7866L155.836 66.8789Z" fill="#999999" stroke="#0F1315" stroke-miterlimit="10" stroke-linecap="round" stroke-linejoin="round"/>
<path d="M158.758 73.4915L169.065 76.4063L159.901 75.3988L158.758 73.4915Z" fill="#999999" stroke="#0F1315" stroke-miterlimit="10" stroke-linecap="round" stroke-linejoin="round"/>
<path d="M150.959 56.143L155.521 57.0882L155.681 57.1323C156.274 57.297 156.808 57.6293 157.218 58.0895L157.436 58.3338C157.436 58.3338 157.493 59.7776 158.503 61.0538C159.878 62.7923 160.322 63.4676 167.138 65.0335C167.285 65.5891 167.46 66.2635 167.648 67.011C165.958 66.6383 157.899 64.7611 155.515 62.375C153.668 60.5272 151.884 57.7065 150.959 56.143Z" fill="#BABABA" stroke="#0F1315" stroke-miterlimit="10" stroke-linecap="round" stroke-linejoin="round"/>
<path d="M257.921 59.9588C257.921 59.9588 256.524 63.0106 256.397 65.2997C256.27 67.5888 256.016 73.8196 256.016 73.8196L261.098 76.8714L257.921 59.9588Z" fill="#0F1315" stroke="#0F1315" stroke-miterlimit="10" stroke-linecap="round" stroke-linejoin="round"/>
<path d="M252.585 63.0106L253.474 80.4318" stroke="white" stroke-miterlimit="10" stroke-linecap="round" stroke-linejoin="round"/>
<path d="M206.591 67.9698L215.993 85.8994" stroke="white" stroke-miterlimit="10" stroke-linecap="round" stroke-linejoin="round"/>
<path opacity="0.49" d="M213.591 72.6226C227.694 72.3684 251.097 69.5766 251.097 69.5766L251.06 70.6402L251.568 76.6168L251.695 78.1427C251.695 78.1427 227.246 81.8735 217.081 81.4917L216.374 79.9229L214.214 73.8192L213.591 72.6226Z" fill="white"/>
<path opacity="0.3" d="M0.861952 47.0494C0.861952 47.0494 1.0669 41.2515 1.98821 36.2602C3.25841 34.0169 5.23382 31.6341 8.25797 30.2031C15.2461 26.8971 22.9964 35.2894 25.4102 38.4688C27.8244 41.6478 29.7302 41.5206 29.7302 35.6712C29.7302 29.8218 22.742 24.6084 22.742 24.6084C22.742 24.6084 101.77 49.4049 102.66 49.532C103.549 49.6591 103.931 54.6183 107.234 55.2543C110.537 55.8904 110.537 47.7518 122.862 44.7C135.186 41.6482 145.605 59.0693 147.765 62.3754C149.925 65.6815 150.814 64.4098 150.814 64.4098L152.212 62.3754C152.212 62.3754 165.426 94.0384 167.331 97.3445C168.176 98.8089 171.188 100.472 174.282 101.871C172.796 101.873 171.782 101.845 171.471 101.78C169.613 101.389 147.113 98.4514 147.113 98.4514C147.113 98.4514 148.874 84.2546 147.406 76.3246C145.939 68.3945 141.244 56.7431 136.743 52.5331C132.243 48.3231 127.156 45.386 120.211 47.8336C113.265 50.2811 109.254 58.1138 109.352 68.6879C109.45 79.2621 113.461 93.8501 113.461 93.8501L94.8738 90.0318L43.4174 78.3809C43.4174 78.3809 25.2218 76.4228 25.2218 76.1289C25.2218 75.835 27.6673 65.3591 28.0587 57.6243C28.4501 49.8894 22.9717 39.1197 19.0588 34.4202C15.1459 29.7206 9.76532 30.7975 6.53702 33.4411C3.30873 36.0848 1.93915 45.2878 1.93915 45.2878L0.861952 47.0494Z" fill="black"/>
<path opacity="0.35" d="M37.7345 36.5611C37.7345 36.5611 48.4071 66.0625 49.4236 66.8252C50.4402 67.5884 68.228 72.1661 68.228 72.1661C68.228 72.1661 51.9648 67.5884 50.3132 65.045C48.6611 62.5021 37.7345 36.5611 37.7345 36.5611Z" fill="white"/>
<path d="M43.4162 78.3796C43.4162 78.3796 25.2206 76.4215 25.2206 76.1277C25.2206 75.8338 27.6661 65.3579 28.0575 57.623C28.0616 57.5442 28.0612 57.4633 28.0641 57.3841C30.4354 57.8794 34.5066 58.8221 35.8288 59.7041C37.7345 60.9758 41.5463 64.6632 51.7108 68.224C61.8753 71.7843 101.644 80.5585 101.644 80.5585L104.947 77.3795L110.214 78.3301C111.419 86.4244 113.46 93.8489 113.46 93.8489L94.873 90.0306L43.4162 78.3796Z" fill="#5E5E5E" stroke="#0F1315" stroke-miterlimit="10" stroke-linecap="round" stroke-linejoin="round"/>
<path d="M97.9585 88.5699C96.942 88.9513 95.6713 88.5699 95.6713 88.5699C95.6713 88.5699 51.0749 78.3969 48.6607 77.1253C46.2465 75.8536 37.7341 61.1029 35.8279 59.7041C37.7336 60.9758 41.5455 64.6632 51.71 68.224C61.8745 71.7843 101.643 80.5585 101.643 80.5585L104.946 77.3795C104.946 77.3795 98.9751 88.1885 97.9585 88.5699Z" fill="#0F1315" stroke="#0F1315" stroke-miterlimit="10" stroke-linecap="round" stroke-linejoin="round"/>
<path d="M147.976 85.9176L163.116 88.082C165.11 92.6747 166.749 96.3341 167.331 97.344C168.175 98.8085 171.187 100.471 174.282 101.871C174.101 101.871 173.929 101.871 173.762 101.87C173.754 101.87 173.746 101.87 173.738 101.87C173.407 101.869 173.106 101.865 172.837 101.86C172.823 101.86 172.81 101.86 172.796 101.859C172.682 101.857 172.575 101.855 172.474 101.852C172.454 101.851 172.434 101.85 172.414 101.85C172.195 101.843 172.009 101.834 171.856 101.824C171.836 101.822 171.819 101.821 171.801 101.819C171.747 101.815 171.698 101.811 171.653 101.806C171.637 101.804 171.62 101.803 171.606 101.8C171.553 101.794 171.506 101.787 171.471 101.78C169.612 101.388 147.112 98.451 147.112 98.451C147.112 98.451 147.868 92.3527 147.976 85.9176Z" fill="#0F1315" stroke="#0F1315" stroke-miterlimit="10" stroke-linecap="round" stroke-linejoin="round"/>
<path d="M104.473 70.7096C104.651 73.0527 104.82 74.4548 104.82 74.4548" stroke="#0F1315" stroke-miterlimit="10" stroke-linecap="round" stroke-linejoin="round"/>
<path d="M109.521 34.908C109.521 34.908 105.074 40.7575 104.311 52.3292C103.92 58.2612 104.064 63.9261 104.296 68.0387" stroke="#0F1315" stroke-miterlimit="10" stroke-linecap="round" stroke-linejoin="round"/>
<path d="M46.5979 27.8253C45.5792 29.6265 44.7222 32.0918 44.7222 35.2894C44.7222 43.1732 53.2351 64.2823 55.6489 67.3341" stroke="#0F1315" stroke-miterlimit="10" stroke-linecap="round" stroke-linejoin="round"/>
<path d="M49.9317 23.9723C49.9317 23.9723 48.8961 24.6546 47.7488 26.1095" stroke="#0F1315" stroke-miterlimit="10" stroke-linecap="round" stroke-linejoin="round"/>
<path d="M132.573 35.2159C130.562 34.8032 128.438 34.4276 126.194 34.0982" stroke="#0F1315" stroke-miterlimit="10" stroke-linecap="round" stroke-linejoin="round"/>
<path d="M164.36 50.3554C164.36 50.3554 157.256 41.0385 135.707 35.9098" stroke="#0F1315" stroke-miterlimit="10" stroke-linecap="round" stroke-linejoin="round"/>
<path opacity="0.3" d="M222.864 29.6207C223.967 29.9745 224.943 30.4074 225.709 30.9411C230.913 34.5716 242.426 47.6722 244.161 50.8288C244.161 50.8288 231.386 39.6224 224.29 35.8342C217.192 32.046 205.71 28.2513 205.71 28.2513C206.066 28.3404 216.247 28.6735 222.864 29.6207Z" fill="black"/>
<path opacity="0.61" d="M194.798 55.88C194.798 55.88 166.725 36.7815 140.073 34.8874C140.073 34.8874 155.055 35.3608 172.403 41.2012C189.751 47.0411 194.798 55.88 194.798 55.88Z" fill="white"/>
<path opacity="0.3" d="M167.138 65.0335C167.51 65.2225 168.441 65.3278 169.745 65.554C179.274 67.207 204.685 75.7269 204.685 75.7269C204.685 75.7269 212.944 85.2642 214.469 86.1541C215.993 87.0444 216.374 87.1715 217.01 87.1715C217.645 87.1715 250.553 83.1023 252.331 82.848C254.11 82.5937 253.729 83.6108 254.11 82.5937C254.491 81.5763 255.508 65.2997 255.889 63.2653C256.137 61.9429 257.243 58.9566 257.987 57.0266C258.098 57.5723 258.446 59.2959 258.913 61.5999L255.979 86.1351L217.324 91.3559L170.034 78.177L167.138 65.0335Z" fill="black"/>
<path opacity="0.24" d="M130.579 3.57857C152.297 2.69736 160.123 4.85148 160.123 4.85148C160.123 4.85148 163.351 6.22221 168.438 8.66979C173.525 11.1174 198.666 26.6849 199.351 27.5657C200.036 28.4469 199.448 29.0342 198.666 29.3281C198.505 29.3888 196.24 29.5568 192.726 29.7863C167.829 23.3074 125.613 12.3226 99.6308 5.56718C103.478 5.05909 113.775 4.26043 130.579 3.57857Z" fill="white" stroke="#0F1315" stroke-miterlimit="10" stroke-linecap="round" stroke-linejoin="round"/>
<path d="M182.645 93.1922L201.068 100.674L175.169 101.075C175.169 101.075 169.428 98.6702 168.36 97.4679C167.292 96.2655 165.957 92.7914 165.957 92.7914L182.645 93.1922Z" fill="#0F1315" stroke="#0F1315" stroke-miterlimit="10" stroke-linecap="round" stroke-linejoin="round"/>
<path opacity="0.24" d="M221.386 41.9499C221.386 41.9499 227.609 43.5786 232.012 47.7944C235.127 50.776 236.605 53.56 236.361 55.1412L200.018 43.3961C206.41 42.5616 217.752 41.4695 221.386 41.9499Z" fill="white" stroke="#0F1315" stroke-miterlimit="10" stroke-linecap="round" stroke-linejoin="round"/>
<path d="M154.596 55.9345C154.596 55.9345 152.603 52.5682 155.718 51.6952C158.832 50.8222 191.721 60.1738 191.721 60.1738L167.553 52.3189C167.553 52.3189 153.101 48.3289 150.735 49.2018C148.367 50.0748 148.492 52.0696 150.112 55.3113L154.596 55.9345Z" fill="white"/>
<path d="M157.212 52.3184C157.212 52.3184 163.939 53.316 164.562 53.9393C165.185 54.5625 165.435 57.6796 164.562 57.9293C163.69 58.1786 160.078 58.1786 158.583 57.5554C157.088 56.9321 156.589 55.8099 156.589 54.9369C156.589 54.0644 156.589 51.9445 157.212 52.3184Z" fill="white"/>
<path d="M256.378 47.9549L254.883 57.0567L257.949 53.4134C257.949 53.4134 256.387 56.4616 255.098 58.0387C253.809 59.6158 252.519 60.9064 252.519 60.9064C252.519 60.9064 252.734 58.2537 252.877 56.3898C253.02 54.5258 254.883 50.511 254.596 48.6471C254.31 46.7831 253.235 45.2774 253.235 45.2774C253.235 45.2774 256.583 46.0439 256.378 47.9549Z" fill="white"/>
<path d="M167.138 65.0335C167.138 65.0335 173.47 66.2795 178.291 67.5141" stroke="#0F1315" stroke-miterlimit="10" stroke-linecap="round" stroke-linejoin="round"/>
<path d="M183.898 69.085L204.685 75.7269C204.685 75.7269 214.507 87.2644 216.19 87.1521" stroke="#0F1315" stroke-miterlimit="10" stroke-linecap="round" stroke-linejoin="round"/>
<path d="M251.172 82.7754L220.114 86.7026" stroke="#0F1315" stroke-miterlimit="10" stroke-linecap="round" stroke-linejoin="round"/>
<path d="M257.457 58.2942C257.457 58.2942 256.177 61.9263 255.889 63.2649C255.6 64.6034 254.362 80.5453 254.362 80.5453" stroke="#0F1315" stroke-miterlimit="10" stroke-linecap="round" stroke-linejoin="round"/>
<path d="M155.318 3.07349C157.539 3.4755 159.692 4.1846 161.726 5.16322C163.139 5.84342 165.271 6.79851 168.438 8.08215C176.166 11.2153 198.568 26.0973 200.525 26.8802C202.481 27.6636 205.318 28.1531 205.71 28.251C206.101 28.3488 218.329 28.7405 224.688 29.9156C231.047 31.0902 238.09 34.909 241.71 36.9649C245.33 39.0207 250.612 43.329 251.297 43.8185C251.982 44.308 256.09 45.1892 257.069 47.1473C258.047 49.1054 258.145 52.1407 257.949 53.4132C257.754 54.6861 257.949 56.8398 257.949 56.8398C257.949 56.8398 262.841 81.023 263.134 82.2959C263.427 83.5688 265.482 88.0722 264.699 89.0513C263.916 90.0303 261.471 92.0862 258.438 92.5757C255.405 93.0652 246.21 92.3801 246.21 92.3801L216.666 96.1005C216.666 96.1005 207.96 100.8 204.047 100.996C200.134 101.192 173.329 102.171 171.471 101.78C169.612 101.388 147.112 98.4507 147.112 98.4507C147.112 98.4507 148.873 84.2543 147.406 76.3239C145.938 68.3934 141.243 56.7424 136.743 52.5324C132.242 48.3224 127.155 45.3853 120.21 47.8329C113.264 50.2804 109.253 58.1131 109.351 68.6872C109.449 79.2614 113.46 93.8494 113.46 93.8494L94.8729 90.0311L43.4166 78.3802C43.4166 78.3802 25.2209 76.4221 25.2209 76.1282C25.2209 75.8343 27.6665 65.3584 28.0578 57.6236C28.4492 49.8887 22.9708 39.119 19.058 34.4195C15.1451 29.7199 9.76447 30.7968 6.53618 33.4404C3.30789 36.0841 1.93831 45.2875 1.93831 45.2875L0.862344 47.0499C0.862344 47.0499 1.15598 38.7277 2.62331 33.4408C4.09064 28.154 5.36248 23.5523 8.68851 20.1257C12.0145 16.699 16.0256 15.9157 18.8625 15.8178C21.6994 15.72 27.7646 14.4471 28.5474 14.1532C29.3301 13.8594 69.341 3.67692 69.341 3.67692C69.341 3.67692 88.5149 -0.435262 112.189 -0.239208C134.39 -0.0563619 137.147 -0.21692 155.318 3.07349Z" stroke="#0F1315" stroke-miterlimit="10" stroke-linecap="round" stroke-linejoin="round"/>
</g>
<defs>
<clipPath id="clip0_55_130">
<rect width="266" height="103" fill="white" transform="matrix(-1 0 0 1 266 0)"/>
</clipPath>
</defs>
</svg>
