<svg width="129" height="50" viewBox="0 0 129 50" fill="none" xmlns="http://www.w3.org/2000/svg">
<g clip-path="url(#clip0_21_106)">
<path d="M76.8852 45.6323L3.00539 27.6261L0.939796 21.9839C0.939796 21.9839 0.8452 18.2696 2.5056 14.8038C4.166 11.3377 10.3798 12.3199 13.2244 15.2422C16.069 18.1642 18.2566 20.5021 18.2566 20.5021L52.0044 26.8225C52.0044 26.8225 56.4674 21.2326 61.7178 21.2326C66.9682 21.2326 71.1976 28.2457 73.0936 33.9437C74.9892 39.6418 76.8852 45.6323 76.8852 45.6323Z" fill="#0F1315" stroke="#0F1315" stroke-miterlimit="10" stroke-linecap="round" stroke-linejoin="round"/>
<path d="M13.2244 15.242C16.7908 15.242 19.9958 20.4752 19.9958 27.3152C19.9958 34.1551 17.1048 39.6999 13.5384 39.6999L6.62959 40.0115V15.242H13.2244Z" fill="#0F1315" stroke="#0F1315" stroke-miterlimit="10" stroke-linecap="round" stroke-linejoin="round"/>
<path d="M6.62938 40.0117C3.06306 40.0117 0.171985 34.4668 0.171985 27.6269C0.171985 20.787 3.06306 15.2422 6.62938 15.2422C10.1957 15.2422 13.0868 20.787 13.0868 27.6269C13.0868 34.4668 10.1957 40.0117 6.62938 40.0117Z" fill="#5E5E5E" stroke="#0F1315" stroke-miterlimit="10" stroke-linecap="round" stroke-linejoin="round"/>
<path d="M6.18079 38.8548C3.19536 38.8548 0.775189 33.9785 0.775189 27.9633C0.775189 21.9481 3.19536 17.0719 6.18079 17.0719C9.16622 17.0719 11.5864 21.9481 11.5864 27.9633C11.5864 33.9785 9.16622 38.8548 6.18079 38.8548Z" fill="#0F1315" stroke="#0F1315" stroke-miterlimit="10" stroke-linecap="round" stroke-linejoin="round"/>
<path d="M7.372 17.3403C7.584 17.4365 7.7916 17.5565 7.9934 17.7012L7.0876 19.0839C7.0876 19.0839 5.25641 20.5241 5.33281 21.269C5.40901 22.014 5.9432 22.8583 6.172 23.1562C6.4008 23.4542 7.65981 24.4476 7.65981 24.4476L8.0032 25.8383C8.0032 25.8383 6.40101 25.0437 6.09581 24.3484C5.79061 23.6531 4.26461 19.6303 4.34101 18.935C4.41741 18.2398 4.608 17.9418 4.608 17.9418L5.15941 17.269C5.21861 17.2462 5.2778 17.2237 5.3376 17.2049L7.372 17.3403ZM4.8366 19.8288L6.56501 18.019C6.83241 18.1105 7.0492 18.1899 7.0492 18.1899L6.5914 17.9911L6.56501 18.0188C6.19681 17.8925 5.7322 17.7427 5.5996 17.7427C5.3706 17.7427 4.9892 18.0903 4.8366 18.7359C4.684 19.3818 4.8366 19.8288 4.8366 19.8288Z" fill="#999999" stroke="#0F1315" stroke-miterlimit="10" stroke-linecap="round" stroke-linejoin="round"/>
<path d="M8.53699 37.1618C8.53699 37.1618 7.12559 36.6154 6.93479 36.4665C6.74399 36.3174 6.89659 37.2115 7.16359 37.6088C7.43059 38.0061 7.65958 38.1552 7.65958 38.1552L8.53699 37.1618Z" fill="white" stroke="#0F1315" stroke-miterlimit="10" stroke-linecap="round" stroke-linejoin="round"/>
<path d="M2.40301 20.1761L2.43321 20.2758C2.43321 20.2758 3.158 19.9282 3.158 20.2262C3.158 20.5241 3.654 21.269 3.7684 21.3684C3.8828 21.4678 4.9892 23.0571 4.9892 23.0571L6.744 25.8383L2.3568 21.716C2.3568 21.716 2.39501 21.0208 2.01341 22.8583C1.63201 24.6958 1.70821 25.7389 1.70821 25.8878C1.70821 26.0368 3.76821 26.881 3.53941 27.0797C3.31041 27.2783 3.34861 27.6756 3.00521 27.6261C2.66181 27.5764 1.136 27.2288 1.136 27.2288L1.8226 29.1657V31.2517C1.8226 31.2517 3.92081 29.5133 5.10341 29.2154C6.28601 28.9175 7.5068 29.1657 7.5068 29.1657L7.12541 31.5496C7.12541 31.5496 8.15541 29.9603 8.34621 29.7618C8.53701 29.5632 8.84221 29.8115 8.84221 29.8115L9.3382 30.4073C9.3382 30.4073 9.52901 32.4436 9.83421 32.7912C9.99021 32.969 10.2554 33.1202 10.4778 33.2262C10.6728 32.5789 10.9788 31.2517 10.9788 31.2517C11.1314 30.5067 11.055 30.1094 11.055 30.1094L9.796 30.457C9.796 30.457 8.88041 29.2154 8.84221 29.0663C8.80401 28.9172 8.804 28.0234 8.9184 27.5764C9.0328 27.1294 9.3762 26.8812 9.3762 26.8812L8.80401 25.441L9.071 25.2919L9.71961 27.0797L9.6814 28.9173L11.1692 28.3709C11.2074 25.4903 10.6352 23.5534 10.6352 23.5534L9.60521 23.4043C9.60521 23.4043 9.22381 23.3546 9.10921 23.454C8.99481 23.5534 8.34621 25.54 8.34621 25.54L8.19361 25.0433C8.19361 25.0433 8.65141 23.3049 9.03281 22.113C9.41421 20.921 9.9866 21.3183 9.9866 21.3183C9.6432 20.2754 8.88021 19.2324 8.88021 19.2324L8.19361 20.3249L7.1636 19.7289L7.3544 18.9342L7.99321 17.7006C10.087 19.2021 11.5862 23.2288 11.5862 27.9627C11.5862 29.9397 11.3224 31.7906 10.8654 33.3889L10.8664 33.3907C10.8602 33.4126 10.8534 33.4338 10.8472 33.4554C10.8412 33.4761 10.836 33.4977 10.83 33.5184H10.8286C9.88641 36.7119 8.1586 38.8544 6.1808 38.8544C3.1954 38.8544 0.775201 33.978 0.775201 27.9629C0.775201 24.9108 1.39921 22.1534 2.40301 20.1761ZM9.14741 36.3174C9.30001 36.1189 9.9866 34.7281 9.9866 34.7281C9.9866 34.7281 9.10921 33.7348 8.88021 33.3871C8.65141 33.0395 8.57501 30.7053 8.57501 30.7053C8.57501 30.7053 7.23981 33.0892 7.01081 33.8838C6.78201 34.6785 6.93461 34.9764 7.16341 35.324C7.39261 35.6719 8.99481 36.5162 9.14741 36.3174ZM1.7084 33.1886C1.7084 33.1886 2.4332 31.8475 2.8528 32.096C3.2724 32.3442 3.3868 32.6919 3.7684 33.0397C4.15 33.3873 5.1418 33.0894 5.1418 33.0894C5.1418 33.0894 4.11181 36.0692 3.95921 36.5162C3.80661 36.9632 4.18801 37.5591 4.41701 37.7578C4.64581 37.9566 4.95101 37.8075 5.21821 37.8075C5.48521 37.8075 6.0574 37.9566 6.0574 37.9566L6.93481 38.2545C6.93481 38.2545 6.2862 36.864 6.21 36.417C6.1338 35.97 6.13381 34.3807 6.13381 34.3807L5.06561 36.9137L4.3408 36.5661C4.3408 36.5661 6.3626 31.5003 6.4772 31.3512C6.5916 31.2022 6.7824 30.3581 6.7824 30.1096C6.7824 29.8614 6.97321 29.464 6.97321 29.464C6.97321 29.464 5.56161 29.5137 4.56981 30.2587C3.578 31.0036 1.8994 31.8976 1.785 32.0962C1.6702 32.2946 1.7084 33.1886 1.7084 33.1886Z" fill="#999999" stroke="#0F1315" stroke-miterlimit="10" stroke-linecap="round" stroke-linejoin="round"/>
<path d="M4.417 27.6261L6.477 26.5336L7.31619 26.9309C7.31619 26.9309 6.32439 27.527 5.63759 27.7752C4.95099 28.0235 4.417 27.6261 4.417 27.6261Z" fill="#999999" stroke="#0F1315" stroke-miterlimit="10" stroke-linecap="round" stroke-linejoin="round"/>
<path d="M70.5782 24.0749C75.3392 24.0749 79.199 29.7712 79.199 36.7981C79.199 43.8248 75.3394 49.5213 70.5782 49.5213H61.774V24.0749H70.5782Z" fill="#0F1315" stroke="#0F1315" stroke-miterlimit="10" stroke-linecap="round" stroke-linejoin="round"/>
<path d="M61.774 49.5213C57.0129 49.5213 53.1532 43.8249 53.1532 36.7981C53.1532 29.7713 57.0129 24.0749 61.774 24.0749C66.5351 24.0749 70.3948 29.7713 70.3948 36.7981C70.3948 43.8249 66.5351 49.5213 61.774 49.5213Z" fill="#5E5E5E" stroke="#0F1315" stroke-miterlimit="10" stroke-linecap="round" stroke-linejoin="round"/>
<path d="M61.175 48.3327C57.1895 48.3327 53.9586 43.3232 53.9586 37.1437C53.9586 30.9642 57.1895 25.9547 61.175 25.9547C65.1605 25.9547 68.3914 30.9642 68.3914 37.1437C68.3914 43.3232 65.1605 48.3327 61.175 48.3327Z" fill="#0F1315" stroke="#0F1315" stroke-miterlimit="10" stroke-linecap="round" stroke-linejoin="round"/>
<path d="M62.7652 26.2306C63.0482 26.3294 63.3252 26.4526 63.5946 26.6013L62.3852 28.0216C62.3852 28.0216 59.9406 29.5013 60.0424 30.2665C60.1442 31.0319 60.8572 31.8993 61.1628 32.2054C61.4684 32.5116 63.149 33.532 63.149 33.532L63.6074 34.9606C63.6074 34.9606 61.4684 34.1443 61.061 33.43C60.6536 32.7157 58.6164 28.5831 58.7182 27.8688C58.82 27.1545 59.0748 26.8483 59.0748 26.8483L59.8108 26.1571C59.8898 26.1336 59.9688 26.1106 60.0486 26.0912L62.7652 26.2306ZM59.3806 28.787L61.688 26.9277C62.045 27.0218 62.3344 27.1034 62.3344 27.1034L61.7232 26.8992L61.688 26.9277C61.1966 26.798 60.5762 26.6442 60.3992 26.6442C60.0936 26.6442 59.5844 27.0014 59.3806 27.6646C59.1768 28.3278 59.3806 28.787 59.3806 28.787Z" fill="#999999"/>
<path d="M61.688 26.9277L59.3806 28.787C59.3806 28.787 59.1768 28.3278 59.3806 27.6646C59.5844 27.0014 60.0936 26.6442 60.3992 26.6442C60.5762 26.6442 61.1966 26.798 61.688 26.9277ZM61.688 26.9277C62.045 27.0218 62.3344 27.1034 62.3344 27.1034L61.7232 26.8992L61.688 26.9277ZM62.7652 26.2306C63.0482 26.3294 63.3252 26.4526 63.5946 26.6013L62.3852 28.0216C62.3852 28.0216 59.9406 29.5013 60.0424 30.2665C60.1442 31.0319 60.8572 31.8993 61.1628 32.2054C61.4684 32.5116 63.149 33.532 63.149 33.532L63.6074 34.9606C63.6074 34.9606 61.4684 34.1443 61.061 33.43C60.6536 32.7157 58.6164 28.5831 58.7182 27.8688C58.82 27.1545 59.0748 26.8483 59.0748 26.8483L59.8108 26.1571C59.8898 26.1336 59.9688 26.1106 60.0486 26.0912L62.7652 26.2306Z" stroke="#0F1315" stroke-miterlimit="10" stroke-linecap="round" stroke-linejoin="round"/>
<path d="M64.3206 46.5934C64.3206 46.5934 62.4362 46.0322 62.1816 45.8791C61.927 45.726 62.1306 46.6445 62.4872 47.0526C62.8438 47.4607 63.1492 47.6138 63.1492 47.6138L64.3206 46.5934Z" fill="white" stroke="#0F1315" stroke-miterlimit="10" stroke-linecap="round" stroke-linejoin="round"/>
<path d="M56.1318 29.1437L56.172 29.2463C56.172 29.2463 57.1396 28.889 57.1396 29.1952C57.1396 29.5013 57.8016 30.2667 57.9544 30.3687C58.1072 30.4707 59.5842 32.1034 59.5842 32.1034L61.927 34.9606L56.0702 30.7257C56.0702 30.7257 56.1212 30.0114 55.6118 31.8992C55.1026 33.7871 55.2044 34.8584 55.2044 35.0115C55.2044 35.1645 57.9546 36.0319 57.649 36.2361C57.3434 36.44 57.3944 36.8484 56.936 36.7973C56.4776 36.7462 54.4404 36.3892 54.4404 36.3892L55.3572 38.3789V40.5218C55.3572 40.5218 58.1584 38.736 59.7372 38.43C61.316 38.1239 62.9458 38.3789 62.9458 38.3789L62.4364 40.828C62.4364 40.828 63.8116 39.1952 64.0662 38.9913C64.3208 38.7871 64.7282 39.0423 64.7282 39.0423L65.3902 39.6547C65.3902 39.6547 65.6448 41.7464 66.0522 42.1037C66.2604 42.2862 66.6144 42.4417 66.9114 42.5505C67.1718 41.8853 67.58 40.522 67.58 40.522C67.7838 39.7566 67.6818 39.3485 67.6818 39.3485L66.0012 39.7055C66.0012 39.7055 64.779 38.43 64.728 38.277C64.677 38.1239 64.677 37.2054 64.8298 36.7464C64.9826 36.2872 65.441 36.0321 65.441 36.0321L64.677 34.5524L65.0336 34.3994L65.8994 36.2361L65.8484 38.1239L67.8346 37.5627C67.8856 34.6033 67.1216 32.6135 67.1216 32.6135L65.7466 32.4605C65.7466 32.4605 65.2372 32.4094 65.0846 32.5115C64.9318 32.6135 64.066 34.6544 64.066 34.6544L63.8622 34.1443C63.8622 34.1443 64.4734 32.3585 64.9826 31.1341C65.492 29.9094 66.2558 30.3178 66.2558 30.3178C65.7974 29.2462 64.7788 28.1749 64.7788 28.1749L63.862 29.2973L62.487 28.685L62.7416 27.8688L63.5944 26.6015C66.3894 28.1441 68.391 32.2807 68.391 37.1439C68.391 39.175 68.0388 41.0764 67.4286 42.7184L67.43 42.7202C67.4216 42.7426 67.4128 42.7645 67.4044 42.7867C67.3964 42.808 67.3896 42.8302 67.3814 42.8512H67.3794C66.1214 46.132 63.8148 48.3329 61.1746 48.3329C57.189 48.3329 53.9582 43.3235 53.9582 37.1439C53.9584 34.008 54.7914 31.1751 56.1318 29.1437ZM65.1356 45.726C65.3392 45.5218 66.256 44.0933 66.256 44.0933C66.256 44.0933 65.0846 43.0728 64.779 42.7156C64.4734 42.3585 64.3716 39.9604 64.3716 39.9604C64.3716 39.9604 62.589 42.4094 62.2836 43.2257C61.978 44.042 62.1818 44.3481 62.4874 44.7054C62.7928 45.0628 64.9318 45.9302 65.1356 45.726ZM55.2044 42.5118C55.2044 42.5118 56.172 41.1343 56.7322 41.3894C57.2924 41.6444 57.4452 42.0017 57.9546 42.3587C58.4638 42.7158 59.788 42.4098 59.788 42.4098C59.788 42.4098 58.4128 45.4712 58.2092 45.9304C58.0054 46.3896 58.5148 47.0019 58.8204 47.2059C59.126 47.4101 59.5334 47.257 59.89 47.257C60.2466 47.257 61.0104 47.4101 61.0104 47.4101L62.1818 47.7162C62.1818 47.7162 61.316 46.2876 61.2142 45.8284C61.1124 45.3692 61.1124 43.7366 61.1124 43.7366L59.6864 46.3387L58.7188 45.9815C58.7188 45.9815 61.418 40.7773 61.5708 40.6242C61.7236 40.4711 61.9782 39.6038 61.9782 39.3487C61.9782 39.0936 62.2328 38.6855 62.2328 38.6855C62.2328 38.6855 60.3484 38.7366 59.0242 39.5018C57.7 40.2672 55.4592 41.1854 55.3064 41.3896C55.1534 41.5934 55.2044 42.5118 55.2044 42.5118Z" fill="#999999" stroke="#0F1315" stroke-miterlimit="10" stroke-linecap="round" stroke-linejoin="round"/>
<path d="M58.8204 36.7973L61.5706 35.6749L62.691 36.083C62.691 36.083 61.3668 36.6953 60.4502 36.9504C59.5334 37.2056 58.8204 36.7973 58.8204 36.7973Z" fill="#999999" stroke="#0F1315" stroke-miterlimit="10" stroke-linecap="round" stroke-linejoin="round"/>
<path d="M75.3236 1.49202C76.4006 1.68717 77.4444 2.03139 78.4308 2.50645C79.1162 2.83665 80.1502 3.30028 81.686 3.92341C85.434 5.44436 96.2982 12.6686 97.247 13.0487C98.1958 13.429 99.5716 13.6666 99.7614 13.7141C99.9512 13.7616 105.881 13.9517 108.965 14.5222C112.049 15.0924 115.465 16.9461 117.22 17.9441C118.976 18.9421 121.537 21.0335 121.87 21.2711C122.202 21.5088 124.194 21.9366 124.669 22.8871C125.143 23.8376 125.19 25.311 125.096 25.9288C125.001 26.5467 125.096 27.5922 125.096 27.5922C125.096 27.5922 127.468 39.3316 127.61 39.9495C127.752 40.5674 128.749 42.7536 128.369 43.2288C127.989 43.7041 126.803 44.7021 125.333 44.9397C123.862 45.1773 119.402 44.8447 119.402 44.8447L105.075 46.6508C105.075 46.6508 100.853 48.9321 98.955 49.0273C97.0574 49.1223 84.0582 49.5975 83.1568 49.4076C82.2554 49.2174 71.3438 47.7916 71.3438 47.7916C71.3438 47.7916 72.1978 40.9002 71.4862 37.0504C70.7746 33.2007 68.4974 27.5449 66.315 25.5012C64.1326 23.4575 61.6656 22.0317 58.2972 23.2199C54.9288 24.408 52.9836 28.2103 53.0312 33.3433C53.0786 38.4764 55.0238 45.558 55.0238 45.558L46.0098 43.7045L21.0554 38.0486C21.0554 38.0486 12.2312 37.0981 12.2312 36.9555C12.2312 36.8128 13.4172 31.7274 13.607 27.9727C13.7968 24.2179 11.14 18.9898 9.24239 16.7085C7.3448 14.4272 4.7354 14.9499 3.1698 16.2332C1.6042 17.5166 0.940002 21.9842 0.940002 21.9842L0.418198 22.8398C0.418198 22.8398 0.560608 18.7999 1.27221 16.2334C1.9838 13.667 2.6006 11.4332 4.2136 9.76977C5.8266 8.10636 7.7718 7.72608 9.1476 7.67859C10.5234 7.63111 13.4648 7.01319 13.8444 6.87053C14.224 6.72787 33.6278 1.78495 33.6278 1.78495C33.6278 1.78495 42.9264 -0.211259 54.4074 -0.116087C65.1742 -0.0273264 66.5112 -0.105267 75.3236 1.49202Z" fill="#0047FF" fill-opacity="0.5"/>
<path d="M80.992 48.2322C80.6452 47.7112 78.9116 42.1534 78.9116 42.1534L82.639 42.6743L120.432 40.8508L127.282 38.3687C127.458 39.2305 127.581 39.823 127.61 39.9494C127.752 40.5673 128.748 42.7535 128.369 43.2289C127.989 43.7042 126.803 44.7022 125.333 44.9398C123.862 45.1774 119.402 44.8448 119.402 44.8448L105.075 46.6509C105.075 46.6509 100.853 48.9322 98.955 49.0274C97.1108 49.1198 84.7824 49.5712 83.2624 49.4221C82.1704 48.9509 81.146 48.4634 80.992 48.2322Z" fill="#5E5E5E" stroke="#0F1315" stroke-miterlimit="10" stroke-linecap="round" stroke-linejoin="round"/>
<path d="M122.8 39.9927L126.645 39.2718L127.422 40.6338L127.875 42.4499C127.875 42.4499 127.875 42.4499 127.228 42.7741C126.58 43.0985 126.321 43.812 125.739 44.2011C125.156 44.5902 123.991 44.8496 122.631 44.6551C121.272 44.4605 119.459 44.3307 119.459 44.3307L105.474 46.0819L104.179 45.8224L102.431 43.8118L117.459 40.9941L120.432 40.8506L122.8 39.9927Z" fill="#0F1315" stroke="#0F1315" stroke-miterlimit="10" stroke-linecap="round" stroke-linejoin="round"/>
<path d="M39.2672 0.856982C43.0566 0.350066 48.4362 -0.166065 54.4068 -0.116576C65.1742 -0.0274146 66.511 -0.105556 75.3234 1.49193C76.4004 1.68708 77.4442 2.0313 78.4306 2.50636C79.116 2.83656 80.15 3.30019 81.6858 3.92332C84.9902 5.26434 93.8252 11.0378 96.5204 12.6461C96.7008 12.7845 97.6576 13.5042 98.3854 13.7615C99.192 14.0466 99.5714 14.2842 99.2394 14.4269C98.9074 14.5696 71.723 16.2804 70.7268 16.2804C69.7306 16.2804 58.1546 16.1378 58.1546 16.1378C58.1546 16.1378 57.3006 16.1853 56.3992 15.4724C55.4978 14.7595 50.801 7.20244 48.761 4.77866C46.721 2.35469 42.8308 1.26151 39.9842 0.928913C39.7312 0.89946 39.4952 0.876817 39.2672 0.856982Z" fill="#0F1315" stroke="#0F1315" stroke-miterlimit="10" stroke-linecap="round" stroke-linejoin="round"/>
<path d="M77.6536 2.35489C77.6536 2.35489 73.8582 1.3092 63.3262 1.73698C52.794 2.16475 47.528 2.6875 47.4806 2.87764C47.4332 3.06778 51.7504 8.01071 53.9802 10.9097C56.21 13.809 56.969 15.0923 57.5858 15.4249C58.2026 15.7575 68.877 15.7575 70.2054 15.7575C71.5338 15.7575 95.9664 14.3792 96.346 14.2366C96.7256 14.0939 97.0102 13.8088 96.678 13.381C96.346 12.9532 84.1534 5.39639 81.6864 4.20824C79.219 3.0203 77.6536 2.35489 77.6536 2.35489Z" fill="#0F1315" stroke="#696969" stroke-miterlimit="10" stroke-linecap="round" stroke-linejoin="round"/>
<path d="M13.844 6.87005C14.0212 6.80353 18.3428 5.69113 22.9016 4.52382C24.4134 4.52442 26.8942 4.42764 28.8832 3.87584C31.967 3.0203 38.0396 1.6895 42.3094 2.92533C46.5792 4.16116 49.9 9.53166 49.9 9.53166L53.9326 16.1855C53.9326 16.1855 49.6154 17.041 42.9734 15.9953C36.3314 14.9496 23.4272 11.3852 21.15 10.1494C18.8728 8.91374 18.683 7.53526 18.683 7.53526C18.683 7.53526 12.4168 7.48837 11.9114 7.30143C12.8484 7.12592 13.657 6.94038 13.844 6.87005Z" fill="#5E5E5E" stroke="#0F1315" stroke-miterlimit="10" stroke-linecap="round" stroke-linejoin="round"/>
<path d="M22.6682 8.62861C22.6682 8.62861 22.2412 8.67609 22.5734 8.05838C22.9056 7.44046 26.2738 4.969 32.1568 4.11365C38.0396 3.25811 40.8386 3.25811 43.021 4.20863C45.2034 5.15914 48.9986 9.72179 48.9986 9.72179L52.8888 15.8529C52.8888 15.8529 47.6228 16.0905 42.3566 15.3301C37.0906 14.5697 25.657 10.9576 24.2338 10.1021C22.8106 9.24652 22.6682 8.62861 22.6682 8.62861Z" fill="#0F1315" stroke="#0F1315" stroke-miterlimit="10" stroke-linecap="round" stroke-linejoin="round"/>
<path d="M50.8874 12.6986L52.8888 15.8527C52.8888 15.8527 51.756 15.9036 50.0172 15.8827L50.8874 12.6986Z" fill="#5E5E5E" stroke="#0F1315" stroke-miterlimit="10" stroke-linecap="round" stroke-linejoin="round"/>
<path d="M27.5548 4.87405C27.5548 4.87405 22.7632 5.87206 19.0152 7.53566" stroke="#0F1315" stroke-miterlimit="10" stroke-linecap="round" stroke-linejoin="round"/>
<path d="M2.56921 12.2784C2.98621 11.3451 3.50322 10.5018 4.21342 9.76927C4.30842 9.6713 4.40481 9.57853 4.50201 9.48917C5.19461 9.76587 6.25342 10.2531 6.25342 10.387C6.25342 10.5771 5.39942 10.7673 4.16602 11.3375C3.53882 11.6276 2.97381 11.9909 2.56921 12.2784Z" fill="#0F1315" stroke="#0F1315" stroke-miterlimit="10" stroke-linecap="round" stroke-linejoin="round"/>
<path d="M46.8066 18.5541C46.8066 18.5541 47.6142 18.8851 47.6142 19.2897C47.6142 19.6942 47.6142 19.8046 47.2104 19.8781C46.8066 19.9517 44.1634 19.8413 43.6494 19.7311C43.1354 19.6207 42.7316 19.253 42.8418 18.922C42.952 18.591 42.9152 18.4439 43.2456 18.2969C43.576 18.1498 44.457 18.2969 45.2646 18.3704C46.0724 18.4437 46.8066 18.5541 46.8066 18.5541Z" fill="#0F1315" stroke="#0F1315" stroke-miterlimit="10" stroke-linecap="round" stroke-linejoin="round"/>
<path d="M107.364 20.364C107.364 20.364 110.382 21.1546 112.517 23.2011C114.653 25.2476 115.21 27.108 114.049 27.3871C112.889 27.6662 107.224 28.4568 105.414 27.5265C103.603 26.5963 99.2854 23.7127 97.3356 23.015C95.3856 22.3173 94.5036 21.6662 94.8286 21.4335C95.1536 21.2013 104.903 20.0384 107.364 20.364Z" fill="#0F1315"/>
<path d="M124.669 22.887C125.143 23.8375 125.19 25.311 125.096 25.9287C125.001 26.5466 125.096 27.5921 125.096 27.5921C125.096 27.5921 127.011 37.0712 127.503 39.4411C127.079 40.5671 125.487 41.8522 124.96 42.1774C124.356 42.5495 110.939 45.1542 102.489 45.0145C94.0396 44.8751 80.6222 44.4099 80.3436 44.3634C80.065 44.3169 80.0186 44.3169 79.508 43.8518C78.9974 43.3868 75.051 32.6428 73.519 29.3869C71.987 26.1312 71.1048 24.8754 72.4512 23.7592C73.7976 22.6429 79.4616 24.4103 80.808 24.8289C82.1544 25.2474 94.6432 29.294 96.129 29.4334C97.6146 29.5729 104.764 29.5729 104.764 29.5729L119.992 28.5031C119.992 28.5031 122.592 26.6892 123.057 24.8752C123.521 23.0613 121.87 21.2707 121.87 21.2707C122.202 21.5087 124.194 21.9365 124.669 22.887Z" fill="#A6A6A6" stroke="#0F1315" stroke-miterlimit="10" stroke-linecap="round" stroke-linejoin="round"/>
<path d="M72.4508 23.7593C73.7972 22.6431 79.4612 24.4105 80.8076 24.8291C82.154 25.2476 94.6428 29.2941 96.1286 29.4336C97.6142 29.573 105.14 29.7814 105.14 29.7814L119.992 28.5035C119.992 28.5035 122.592 26.6896 123.056 24.8756C123.52 23.0617 121.869 21.2711 121.869 21.2711C122.201 21.5087 124.194 21.9365 124.668 22.887C125.143 23.8375 125.19 25.311 125.095 25.9287C125.063 26.1374 125.053 26.3949 125.053 26.6446L125.006 26.6894C125.006 26.6894 123.52 29.8986 121.06 30.3639C118.599 30.8289 102.535 32.6895 98.4032 32.2707C94.2712 31.8522 76.3504 28.3174 76.3504 28.3174C76.3504 28.3174 75.979 27.8523 75.4218 27.7127C74.9286 27.5891 73.2 27.3925 72.4232 27.0908C71.6682 25.4426 71.4798 24.5644 72.4508 23.7593Z" fill="#D9D9D9" stroke="#0F1315" stroke-miterlimit="10" stroke-linecap="round" stroke-linejoin="round"/>
<path d="M122.28 29.8856C121.906 30.1094 121.499 30.2809 121.06 30.3639C118.671 30.8155 103.457 32.5825 98.7934 32.3014C98.4572 31.788 97.5952 30.5959 96.1758 29.4374C97.7526 29.573 105.14 29.7812 105.14 29.7812L117.875 28.652C119.712 28.5229 121.423 27.6009 122.469 26.0837C122.553 25.9625 122.631 25.8395 122.702 25.7149C122.516 26.435 122.14 28.0182 122.186 28.8592C122.207 29.2388 122.243 29.5883 122.28 29.8856Z" fill="#0F1315" stroke="#0F1315" stroke-miterlimit="10" stroke-linecap="round" stroke-linejoin="round"/>
<path d="M97.7222 30.9187C98.014 30.9483 98.393 30.968 98.8868 30.968C100.924 30.968 119.969 29.3543 120.727 29.117C121.357 28.9199 122.017 28.2983 122.224 28.0932C122.19 28.3791 122.174 28.6438 122.186 28.8594C122.186 28.8594 121.769 29.3542 121.106 29.5917C120.503 29.8073 101.695 31.2751 98.2446 31.543C98.0944 31.3517 97.9214 31.1421 97.7222 30.9187Z" fill="#BABABA" stroke="#0F1315" stroke-miterlimit="10" stroke-linecap="round" stroke-linejoin="round"/>
<path d="M72.5014 27.091L75.5 27.7129L76.4286 28.3176C76.4286 28.3176 76.295 29.346 77.281 30.0251C78.2668 30.7041 77.7766 31.0199 82.3978 31.8223C87.0192 32.6248 99.3426 36.7606 99.3426 36.7606C99.3426 36.7606 103.348 41.3904 104.087 41.8224C104.827 42.2546 105.011 42.3163 105.32 42.3163C105.628 42.3163 121.587 40.3409 122.449 40.2175C123.312 40.0941 123.127 40.5877 123.312 40.0941C123.497 39.6002 123.99 31.6989 124.174 30.7113C124.295 30.0694 124.769 28.8049 125.13 27.8682C125.246 28.8904 127.022 37.4908 127.405 39.5282C126.982 40.6543 125.565 41.8524 125.038 42.1778C124.434 42.5499 111.017 45.1546 102.567 45.0149C94.1174 44.8755 80.7 44.4103 80.4214 44.3638C80.1428 44.3173 80.0964 44.3173 79.5858 43.8522C79.0752 43.3872 75.1288 32.6432 73.5968 29.3873C73.1694 28.4797 72.7932 27.7279 72.5014 27.091Z" fill="#0047FF" fill-opacity="0.5"/>
<path d="M73.0356 27.2178L75.422 27.7127L76.3506 28.3174C76.3506 28.3174 76.3268 29.0183 76.868 29.6378C77.5754 30.4478 77.7502 30.8095 81.0558 31.5697C81.5592 33.4783 82.736 38.2081 82.1966 38.7975C81.5188 39.5383 79.6086 41.3285 79.6086 41.3285L73.0356 27.2178Z" fill="#0F1315" stroke="#0F1315" stroke-miterlimit="10" stroke-linecap="round" stroke-linejoin="round"/>
<path d="M75.5744 32.4655L81.7978 34.4408L76.1906 33.3916L75.5744 32.4655Z" fill="#999999" stroke="#0F1315" stroke-miterlimit="10" stroke-linecap="round" stroke-linejoin="round"/>
<path d="M76.9916 35.6755L81.99 37.0904L77.5462 36.6013L76.9916 35.6755Z" fill="#999999" stroke="#0F1315" stroke-miterlimit="10" stroke-linecap="round" stroke-linejoin="round"/>
<path d="M73.2094 27.2539L75.422 27.7127L75.4992 27.7341C75.7872 27.8141 76.046 27.9754 76.245 28.1988L76.3506 28.3174C76.3506 28.3174 76.3784 29.0183 76.868 29.6378C77.5348 30.4817 77.7502 30.8095 81.0558 31.5697C81.127 31.8394 81.2118 32.1667 81.3032 32.5296C80.4836 32.3487 76.575 31.4374 75.4188 30.2791C74.5234 29.3821 73.658 28.0128 73.2094 27.2539Z" fill="#BABABA" stroke="#0F1315" stroke-miterlimit="10" stroke-linecap="round" stroke-linejoin="round"/>
<path d="M125.082 29.1062C125.082 29.1062 124.404 30.5877 124.343 31.6989C124.281 32.8101 124.158 35.8348 124.158 35.8348L126.623 37.3162L125.082 29.1062Z" fill="#0F1315" stroke="#0F1315" stroke-miterlimit="10" stroke-linecap="round" stroke-linejoin="round"/>
<path d="M122.494 30.5877L122.926 39.0446" stroke="white" stroke-miterlimit="10" stroke-linecap="round" stroke-linejoin="round"/>
<path d="M100.189 32.995L104.749 41.6987" stroke="white" stroke-miterlimit="10" stroke-linecap="round" stroke-linejoin="round"/>
<path opacity="0.49" d="M103.583 35.2537C110.423 35.1303 121.772 33.7751 121.772 33.7751L121.755 34.2914L122.001 37.1926L122.063 37.9334C122.063 37.9334 110.206 39.7444 105.276 39.5591L104.933 38.7975L103.886 35.8346L103.583 35.2537Z" fill="white"/>
<path opacity="0.3" d="M0.418015 22.8395C0.418015 22.8395 0.517403 20.025 0.964203 17.602C1.58021 16.5131 2.53821 15.3564 4.00481 14.6617C7.39381 13.0568 11.1524 17.1308 12.323 18.6742C13.4938 20.2173 14.418 20.1556 14.418 17.3161C14.418 14.4766 11.029 11.9458 11.029 11.9458C11.029 11.9458 49.3548 23.9829 49.7862 24.0447C50.2176 24.1064 50.4024 26.5137 52.0044 26.8225C53.6064 27.1312 53.6064 23.1805 59.5834 21.699C65.5602 20.2175 70.6128 28.6744 71.6604 30.2793C72.7078 31.8842 73.1392 31.2669 73.1392 31.2669L73.817 30.2793C73.817 30.2793 80.2252 45.6497 81.1494 47.2546C81.5588 47.9655 83.0196 48.7727 84.5204 49.4522C83.7996 49.4528 83.308 49.4395 83.1572 49.4079C82.2558 49.2177 71.3442 47.792 71.3442 47.792C71.3442 47.792 72.1982 40.9003 71.4866 37.0507C70.775 33.2012 68.4978 27.5452 66.3154 25.5015C64.133 23.4578 61.666 22.032 58.2976 23.2202C54.9292 24.4083 52.984 28.2106 53.0316 33.3437C53.079 38.4767 55.0242 45.5583 55.0242 45.5583L46.0102 43.7048L21.0558 38.049C21.0558 38.049 12.2316 37.0984 12.2316 36.9558C12.2316 36.8131 13.4176 31.7277 13.6074 27.9729C13.7972 24.2182 11.1404 18.9901 9.24281 16.7088C7.34521 14.4275 4.73581 14.9502 3.17021 16.2336C1.60461 17.5169 0.940414 21.9843 0.940414 21.9843L0.418015 22.8395Z" fill="black"/>
<path opacity="0.35" d="M18.2998 17.7481C18.2998 17.7481 23.4756 32.0692 23.9686 32.4394C24.4616 32.8099 33.088 35.0321 33.088 35.0321C33.088 35.0321 25.201 32.8099 24.4 31.5753C23.5988 30.3409 18.2998 17.7481 18.2998 17.7481Z" fill="white"/>
<path d="M21.0552 38.0484C21.0552 38.0484 12.231 37.0978 12.231 36.9552C12.231 36.8125 13.417 31.7271 13.6068 27.9724C13.6088 27.9341 13.6086 27.8948 13.61 27.8564C14.76 28.0968 16.7344 28.5544 17.3756 28.9826C18.2998 29.5999 20.1484 31.3899 25.0778 33.1185C30.0072 34.8468 49.2934 39.1061 49.2934 39.1061L50.8954 37.5629L53.4496 38.0243C54.0342 41.9536 55.0238 45.5577 55.0238 45.5577L46.0098 43.7042L21.0552 38.0484Z" fill="#5E5E5E" stroke="#0F1315" stroke-miterlimit="10" stroke-linecap="round" stroke-linejoin="round"/>
<path d="M47.5062 42.9951C47.0132 43.1802 46.397 42.9951 46.397 42.9951C46.397 42.9951 24.7694 38.0568 23.5986 37.4395C22.4278 36.8221 18.2996 29.6616 17.3752 28.9826C18.2994 29.5999 20.148 31.3899 25.0774 33.1184C30.0068 34.8468 49.293 39.1061 49.293 39.1061L50.895 37.5629C50.895 37.5629 47.9992 42.81 47.5062 42.9951Z" fill="#0F1315" stroke="#0F1315" stroke-miterlimit="10" stroke-linecap="round" stroke-linejoin="round"/>
<path d="M71.763 41.7076L79.105 42.7583C80.072 44.9877 80.8668 46.7641 81.1492 47.2544C81.5586 47.9653 83.0194 48.7725 84.5202 49.452C84.4326 49.452 84.3488 49.452 84.2682 49.4516C84.2642 49.4516 84.2602 49.4516 84.2564 49.4516C84.0958 49.4508 83.9498 49.4492 83.8196 49.4468C83.8126 49.4466 83.8062 49.4466 83.7994 49.4464C83.7444 49.4452 83.6926 49.444 83.6436 49.4426C83.6338 49.4424 83.6238 49.442 83.6142 49.4418C83.5082 49.4383 83.4178 49.4341 83.3436 49.4289C83.3342 49.4283 83.326 49.4275 83.3172 49.4269C83.2908 49.4249 83.267 49.4227 83.2454 49.4203C83.2376 49.4195 83.2294 49.4187 83.2224 49.4177C83.1968 49.4145 83.174 49.4113 83.157 49.4077C82.2556 49.2175 71.344 47.7918 71.344 47.7918C71.344 47.7918 71.7104 44.8314 71.763 41.7076Z" fill="#0F1315" stroke="#0F1315" stroke-miterlimit="10" stroke-linecap="round" stroke-linejoin="round"/>
<path d="M50.6656 34.325C50.7518 35.4625 50.8336 36.1431 50.8336 36.1431" stroke="#0F1315" stroke-miterlimit="10" stroke-linecap="round" stroke-linejoin="round"/>
<path d="M53.1134 16.9456C53.1134 16.9456 50.9568 19.7852 50.587 25.4025C50.3974 28.2821 50.467 31.0321 50.5798 33.0285" stroke="#0F1315" stroke-miterlimit="10" stroke-linecap="round" stroke-linejoin="round"/>
<path d="M22.5982 13.5074C22.1042 14.3818 21.6886 15.5786 21.6886 17.1308C21.6886 20.9579 25.817 31.205 26.9876 32.6865" stroke="#0F1315" stroke-miterlimit="10" stroke-linecap="round" stroke-linejoin="round"/>
<path d="M24.215 11.6371C24.215 11.6371 23.7128 11.9683 23.1564 12.6745" stroke="#0F1315" stroke-miterlimit="10" stroke-linecap="round" stroke-linejoin="round"/>
<path d="M64.2928 17.0951C63.3176 16.8947 62.2874 16.7124 61.1994 16.5525" stroke="#0F1315" stroke-miterlimit="10" stroke-linecap="round" stroke-linejoin="round"/>
<path d="M79.7084 24.4444C79.7084 24.4444 76.2632 19.9216 65.8128 17.4319" stroke="#0F1315" stroke-miterlimit="10" stroke-linecap="round" stroke-linejoin="round"/>
<path opacity="0.3" d="M108.081 14.379C108.615 14.5507 109.089 14.7609 109.46 15.02C111.984 16.7823 117.567 23.1418 118.409 24.6742C118.409 24.6742 112.214 19.2342 108.772 17.3952C105.33 15.5563 99.7616 13.7142 99.7616 13.7142C99.9344 13.7575 104.872 13.9192 108.081 14.379Z" fill="black"/>
<path opacity="0.61" d="M94.4696 27.1262C94.4696 27.1262 80.8556 17.8551 67.93 16.9356C67.93 16.9356 75.1958 17.1655 83.609 20.0006C92.0222 22.8355 94.4696 27.1262 94.4696 27.1262Z" fill="white"/>
<path opacity="0.3" d="M81.0558 31.5697C81.2362 31.6614 81.6874 31.7125 82.3198 31.8223C86.941 32.6248 99.2646 36.7606 99.2646 36.7606C99.2646 36.7606 103.27 41.3904 104.009 41.8224C104.749 42.2546 104.933 42.3163 105.242 42.3163C105.55 42.3163 121.509 40.3409 122.371 40.2175C123.234 40.094 123.049 40.5877 123.234 40.094C123.419 39.6002 123.912 31.6989 124.096 30.7113C124.217 30.0693 124.753 28.6197 125.114 27.6828C125.168 27.9477 125.337 28.7844 125.563 29.9028L124.14 41.8132L105.394 44.3475L82.46 37.95L81.0558 31.5697Z" fill="black"/>
<path opacity="0.24" d="M63.326 1.73716C73.8582 1.30939 77.6534 2.35508 77.6534 2.35508C77.6534 2.35508 79.219 3.02048 81.686 4.20863C84.153 5.39677 96.3456 12.9538 96.6776 13.3814C97.0098 13.8092 96.725 14.0943 96.3456 14.2369C96.2674 14.2664 95.1692 14.3479 93.4648 14.4593C81.3908 11.3143 60.9178 5.98183 48.3172 2.7025C50.183 2.45586 55.1768 2.06816 63.326 1.73716Z" fill="white" stroke="#0F1315" stroke-miterlimit="10" stroke-linecap="round" stroke-linejoin="round"/>
<path d="M88.576 45.239L97.5106 48.8711L84.9504 49.0657C84.9504 49.0657 82.1664 47.8982 81.6484 47.3145C81.1304 46.7309 80.483 45.0444 80.483 45.0444L88.576 45.239Z" fill="#0F1315" stroke="#0F1315" stroke-miterlimit="10" stroke-linecap="round" stroke-linejoin="round"/>
<path opacity="0.24" d="M107.364 20.364C107.364 20.364 110.382 21.1546 112.517 23.2011C114.028 24.6485 114.744 26 114.626 26.7676L97.0012 21.0661C100.101 20.6609 105.602 20.1308 107.364 20.364Z" fill="white" stroke="#0F1315" stroke-miterlimit="10" stroke-linecap="round" stroke-linejoin="round"/>
<path d="M74.9734 27.1527C74.9734 27.1527 74.0068 25.5185 75.5172 25.0948C77.0276 24.671 92.9776 29.2106 92.9776 29.2106L81.2568 25.3975C81.2568 25.3975 74.2484 23.4606 73.1006 23.8844C71.9526 24.3081 72.013 25.2765 72.7986 26.8501L74.9734 27.1527Z" fill="white"/>
<path d="M76.242 25.3973C76.242 25.3973 79.5044 25.8816 79.8066 26.1841C80.1086 26.4867 80.2296 27.9998 79.8066 28.121C79.3836 28.2421 77.6316 28.2421 76.9066 27.9395C76.1816 27.637 75.94 27.0922 75.94 26.6684C75.94 26.2449 75.94 25.2158 76.242 25.3973Z" fill="white"/>
<path d="M124.334 23.2791L123.609 27.6975L125.096 25.9289C125.096 25.9289 124.338 27.4086 123.713 28.1741C123.088 28.9397 122.462 29.5662 122.462 29.5662C122.462 29.5662 122.566 28.2785 122.636 27.3737C122.705 26.4688 123.609 24.5199 123.47 23.6151C123.331 22.7103 122.81 21.9793 122.81 21.9793C122.81 21.9793 124.433 22.3514 124.334 23.2791Z" fill="white"/>
<path d="M81.0558 31.5697C81.0558 31.5697 84.1266 32.1746 86.4646 32.7738" stroke="#0F1315" stroke-miterlimit="10" stroke-linecap="round" stroke-linejoin="round"/>
<path d="M89.1836 33.5364L99.2646 36.7606C99.2646 36.7606 104.028 42.3613 104.844 42.3068" stroke="#0F1315" stroke-miterlimit="10" stroke-linecap="round" stroke-linejoin="round"/>
<path d="M121.809 40.1822L106.747 42.0887" stroke="#0F1315" stroke-miterlimit="10" stroke-linecap="round" stroke-linejoin="round"/>
<path d="M124.857 28.2982C124.857 28.2982 124.236 30.0613 124.096 30.7111C123.956 31.3609 123.356 39.0997 123.356 39.0997" stroke="#0F1315" stroke-miterlimit="10" stroke-linecap="round" stroke-linejoin="round"/>
<path d="M75.3236 1.49202C76.4006 1.68717 77.4444 2.03139 78.4308 2.50645C79.1162 2.83665 80.1502 3.30028 81.686 3.92341C85.434 5.44436 96.2982 12.6686 97.247 13.0487C98.1958 13.429 99.5716 13.6666 99.7614 13.7141C99.9512 13.7616 105.881 13.9517 108.965 14.5222C112.049 15.0924 115.465 16.9461 117.22 17.9441C118.976 18.9421 121.537 21.0335 121.87 21.2711C122.202 21.5088 124.194 21.9365 124.669 22.8871C125.143 23.8376 125.19 25.311 125.096 25.9288C125.001 26.5467 125.096 27.5922 125.096 27.5922C125.096 27.5922 127.468 39.3316 127.61 39.9495C127.752 40.5674 128.749 42.7535 128.369 43.2288C127.989 43.7041 126.803 44.7021 125.333 44.9397C123.862 45.1773 119.402 44.8447 119.402 44.8447L105.075 46.6508C105.075 46.6508 100.853 48.9321 98.955 49.0273C97.0574 49.1223 84.0582 49.5975 83.1568 49.4076C82.2554 49.2174 71.3438 47.7916 71.3438 47.7916C71.3438 47.7916 72.1978 40.9002 71.4862 37.0504C70.7746 33.2007 68.4974 27.5449 66.315 25.5012C64.1326 23.4575 61.6656 22.0317 58.2972 23.2199C54.9288 24.408 52.9836 28.2103 53.0312 33.3433C53.0786 38.4764 55.0238 45.558 55.0238 45.558L46.0098 43.7045L21.0554 38.0487C21.0554 38.0487 12.2312 37.0981 12.2312 36.9555C12.2312 36.8128 13.4172 31.7274 13.607 27.9727C13.7968 24.2179 11.14 18.9898 9.2424 16.7085C7.3448 14.4272 4.7354 14.9499 3.1698 16.2332C1.6042 17.5166 0.940004 21.9842 0.940004 21.9842L0.418202 22.8398C0.418202 22.8398 0.560606 18.7999 1.27221 16.2334C1.98381 13.667 2.6006 11.4332 4.2136 9.76977C5.8266 8.10636 7.7718 7.72608 9.1476 7.67859C10.5234 7.63111 13.4648 7.01319 13.8444 6.87053C14.224 6.72787 33.6278 1.78495 33.6278 1.78495C33.6278 1.78495 42.9264 -0.211259 54.4074 -0.116087C65.1742 -0.0273264 66.5112 -0.105267 75.3236 1.49202Z" stroke="#0F1315" stroke-miterlimit="10" stroke-linecap="round" stroke-linejoin="round"/>
</g>
<defs>
<clipPath id="clip0_21_106">
<rect width="129" height="50" fill="white" transform="matrix(-1 0 0 1 129 0)"/>
</clipPath>
</defs>
</svg>
