<svg width="36" height="21" viewBox="0 0 36 21" fill="none" xmlns="http://www.w3.org/2000/svg">
<path opacity="0.36" d="M9.6532 8.37849C9.6532 8.37849 11.1113 5.54993 12.4721 5.32763C13.1607 5.21512 15.7346 5.08013 18.2008 5.0979C20.6084 5.11526 22.9135 5.28371 23.2615 5.32763C23.9662 5.41651 24.4927 5.67353 25.0112 6.42942C25.5295 7.18531 26.4044 8.50449 26.4044 8.50449L9.6532 8.37849Z" fill="url(#paint0_linear_8_1162)"/>
<path d="M28.378 11.9206C28.4801 11.868 28.5362 11.8376 28.5362 11.8376C28.5362 11.8376 28.4788 11.866 28.378 11.9206Z" fill="url(#paint1_linear_8_1162)"/>
<path d="M28.3779 11.9206C27.8493 12.193 26.0695 13.0681 24.2526 13.4845C22.085 13.9811 20.898 13.8243 18.9627 13.8243C18.8142 13.8243 18.6808 13.8243 18.5582 13.8243C18.5493 13.8243 18.5403 13.8243 18.5315 13.8243C17.7279 13.8243 17.4636 13.8243 17.3886 13.8243C17.3886 13.8243 17.36 13.8243 17.362 13.8243C17.2393 13.8243 17.1059 13.8243 16.9574 13.8243C15.0221 13.8243 13.8351 13.9811 11.6675 13.4845C9.85065 13.0682 8.07076 12.1931 7.54218 11.9206C8.25191 12.3049 11.1254 13.9895 11.4869 16.2554C12.1376 16.2554 15.5211 18.0983 17.3619 18.0983C17.3619 18.0983 17.844 18.0983 18.5582 18.0983C20.399 18.0983 23.7825 16.2554 24.4331 16.2554C24.7947 13.9895 27.6682 12.3049 28.3779 11.9206ZM20.8205 15.9678C20.0469 15.9678 19.2134 15.9678 18.5582 15.9678C17.8582 15.9678 17.3619 15.9678 17.3619 15.9678C16.7066 15.9678 15.873 15.9678 15.0995 15.9678C13.4996 15.9678 12.8029 14.504 12.8029 14.504H17.3619H18.5582H23.1171C23.1171 14.504 22.4204 15.9678 20.8205 15.9678Z" fill="url(#paint2_linear_8_1162)"/>
<path d="M30.162 8.4654C29.3363 7.52432 27.0655 8.4654 27.0655 8.4654C27.0655 8.4654 27.0604 8.46519 27.0512 8.46477C26.9896 8.33375 26.854 8.06011 26.6268 7.67249C25.3942 5.44068 24.2012 4.35698 23.7496 4.16092C23.298 3.96486 21.2594 3.87337 19.9176 3.87337C19.4302 3.87337 18.9599 3.87337 18.5584 3.87337C17.8545 3.87337 17.3621 3.87337 17.3621 3.87337C16.9605 3.87337 16.4903 3.87337 16.0029 3.87337C14.6611 3.87337 12.6225 3.96486 12.171 4.16092C11.7194 4.35698 10.5264 5.44068 9.29374 7.67249C9.06656 8.06011 8.93093 8.33375 8.8693 8.46477C8.86022 8.46519 8.85506 8.4654 8.85506 8.4654C8.85506 8.4654 6.58426 7.52432 5.75851 8.4654C4.93276 9.40647 5.44885 10.2168 9.39696 16.2554C9.96507 16.2554 10.2712 15.5801 9.90097 15.1436C8.92442 13.9921 7.50486 12.3257 7.25518 12.0729C6.86811 11.6807 7.15196 10.9488 8.08092 11.5239C9.00989 12.099 12.1839 13.2753 16.3642 13.2753C16.7537 13.2753 17.0844 13.2753 17.3621 13.2753C17.3621 13.2753 17.7138 13.2753 18.5584 13.2753C18.8362 13.2753 19.1669 13.2753 19.5563 13.2753C23.7367 13.2753 26.9106 12.099 27.8396 11.5239C28.7686 10.9488 29.0524 11.6807 28.6654 12.0729C28.4157 12.3258 26.9961 13.9921 26.0196 15.1436C25.6493 15.5801 25.9555 16.2554 26.5236 16.2554C30.4717 10.2168 30.9878 9.40647 30.162 8.4654ZM11.1903 5.55936C11.8741 4.7882 15.0223 4.9189 16.377 4.9189C16.7474 4.9189 17.0767 4.9189 17.362 4.9189C17.362 4.9189 17.8001 4.9189 18.5583 4.9189C18.8437 4.9189 19.173 4.9189 19.5433 4.9189C20.8981 4.9189 24.0462 4.7882 24.7301 5.55936C25.3245 6.22972 26.3768 7.9958 26.6418 8.44605C25.3317 8.38708 21.3635 8.21267 20.2271 8.21267C19.6536 8.21267 19.0575 8.21267 18.5583 8.21267C17.8672 8.21267 17.362 8.21267 17.362 8.21267C16.8627 8.21267 16.2668 8.21267 15.6932 8.21267C14.5568 8.21267 10.5885 8.38708 9.27857 8.44605C9.54353 7.9958 10.5957 6.22972 11.1903 5.55936ZM8.70158 10.314C8.56522 10.7942 8.04026 11.0629 7.52891 10.914C7.01767 10.7651 6.71369 10.2549 6.84994 9.77464C6.98619 9.29438 7.51126 9.02576 8.02261 9.17465C8.53395 9.32366 8.83793 9.83372 8.70158 10.314ZM25.6899 11.7877C25.6133 11.8282 23.7465 12.7787 17.9601 12.7787C12.1747 12.7787 10.2763 11.8289 10.1983 11.7884C10.0969 11.7358 10.0566 11.6098 10.1086 11.5071C10.1605 11.4045 10.2844 11.3637 10.3859 11.4159C10.4045 11.4253 12.3026 12.3604 17.9602 12.3604C23.6158 12.3604 25.4816 11.4259 25.4999 11.4166C25.6009 11.3639 25.7257 11.4043 25.7776 11.5064C25.8298 11.6088 25.7908 11.7345 25.6899 11.7877ZM28.3914 10.914C27.8801 11.0629 27.3551 10.7942 27.2188 10.314C27.0824 9.83372 27.3864 9.32355 27.8977 9.17465C28.4091 9.02576 28.934 9.29438 29.0704 9.77464C29.2067 10.2549 28.9027 10.7651 28.3914 10.914Z" fill="url(#paint3_linear_8_1162)"/>
<path d="M30.1618 8.46539C29.336 7.52431 27.0652 8.46539 27.0652 8.46539C27.0652 8.46539 21.5947 9.38827 20.227 9.38827C19.6534 9.38827 19.0573 9.38827 18.5582 9.38827C17.867 9.38827 17.3619 9.38827 17.3619 9.38827C16.8626 9.38827 16.2666 9.38827 15.693 9.38827C14.3254 9.38827 8.85482 8.46539 8.85482 8.46539C8.85482 8.46539 6.58401 7.52431 5.75827 8.46539C4.93252 9.40647 5.44861 10.2168 9.39671 16.2554C9.96483 16.2554 10.271 15.5801 9.90073 15.1436C8.92418 13.9921 7.50462 12.3257 7.25493 12.0728C6.86786 11.6807 7.15171 10.9488 8.08068 11.5239C9.00964 12.099 12.1836 13.2753 16.364 13.2753C16.7535 13.2753 17.0841 13.2753 17.3619 13.2753C17.3619 13.2753 17.7135 13.2753 18.5582 13.2753C18.8359 13.2753 19.1666 13.2753 19.5561 13.2753C23.7364 13.2753 26.9104 12.099 27.8394 11.5239C28.7683 10.9488 29.0522 11.6807 28.6651 12.0728C28.4154 12.3257 26.9959 13.9921 26.0193 15.1436C25.6491 15.5801 25.9552 16.2554 26.5233 16.2554C30.4714 10.2168 30.9875 9.40647 30.1618 8.46539ZM8.70143 10.3141C8.56508 10.7943 8.04011 11.063 7.52877 10.9141C7.01753 10.7652 6.71355 10.255 6.8498 9.77474C6.98605 9.29448 7.51112 9.02585 8.02246 9.17475C8.53381 9.32365 8.83779 9.83371 8.70143 10.3141ZM25.6897 11.7877C25.6131 11.8282 23.7463 12.7787 17.9599 12.7787C12.1745 12.7787 10.2761 11.8289 10.1982 11.7884C10.0967 11.7358 10.0565 11.6098 10.1085 11.5071C10.1603 11.4045 10.2843 11.3637 10.3858 11.4159C10.4043 11.4253 12.3024 12.3604 17.96 12.3604C23.6157 12.3604 25.4814 11.4259 25.4997 11.4166C25.6008 11.3639 25.7256 11.4043 25.7775 11.5064C25.8297 11.6088 25.7907 11.7345 25.6897 11.7877ZM28.3913 10.914C27.8799 11.0629 27.355 10.7942 27.2186 10.314C27.0823 9.83371 27.3862 9.32355 27.8976 9.17465C28.4089 9.02575 28.9339 9.29437 29.0702 9.77464C29.2066 10.2549 28.9025 10.7651 28.3913 10.914Z" fill="url(#paint4_linear_8_1162)"/>
<path d="M30.1618 8.46539C29.336 7.52431 27.0652 8.46539 27.0652 8.46539C27.0652 8.46539 21.5947 10.1776 20.227 10.1776C19.6534 10.1776 19.0573 10.1776 18.5582 10.1776C17.867 10.1776 17.3619 10.1776 17.3619 10.1776C16.8626 10.1776 16.2666 10.1776 15.693 10.1776C14.3254 10.1776 8.85482 8.46539 8.85482 8.46539C8.85482 8.46539 6.58401 7.52431 5.75827 8.46539C4.93252 9.40647 5.44861 10.2168 9.39671 16.2554C9.96483 16.2554 10.271 15.5801 9.90073 15.1436C8.92418 13.9921 7.50462 12.3257 7.25493 12.0728C6.86786 11.6807 7.15171 10.9488 8.08068 11.5239C9.00964 12.099 12.1836 13.2753 16.364 13.2753C16.7535 13.2753 17.0841 13.2753 17.3619 13.2753C17.3619 13.2753 17.7135 13.2753 18.5582 13.2753C18.8359 13.2753 19.1666 13.2753 19.5561 13.2753C23.7364 13.2753 26.9104 12.099 27.8394 11.5239C28.7683 10.9488 29.0522 11.6807 28.6651 12.0728C28.4154 12.3257 26.9959 13.9921 26.0193 15.1436C25.6491 15.5801 25.9552 16.2554 26.5233 16.2554C30.4714 10.2168 30.9875 9.40647 30.1618 8.46539ZM8.70143 10.3141C8.56508 10.7943 8.04011 11.063 7.52877 10.9141C7.01753 10.7652 6.71355 10.255 6.8498 9.77474C6.98605 9.29448 7.51112 9.02585 8.02246 9.17475C8.53381 9.32365 8.83779 9.83371 8.70143 10.3141ZM25.6897 11.7877C25.6131 11.8282 23.7463 12.7787 17.9599 12.7787C12.1745 12.7787 10.2761 11.8289 10.1982 11.7884C10.0967 11.7358 10.0565 11.6098 10.1085 11.5071C10.1603 11.4045 10.2843 11.3637 10.3858 11.4159C10.4043 11.4253 12.3024 12.3604 17.96 12.3604C23.6157 12.3604 25.4814 11.4259 25.4997 11.4166C25.6008 11.3639 25.7256 11.4043 25.7775 11.5064C25.8297 11.6088 25.7907 11.7345 25.6897 11.7877ZM28.3913 10.914C27.8799 11.0629 27.355 10.7942 27.2186 10.314C27.0823 9.83371 27.3862 9.32355 27.8976 9.17465C28.4089 9.02575 28.9339 9.29437 29.0702 9.77464C29.2066 10.2549 28.9025 10.7651 28.3913 10.914Z" fill="url(#paint5_linear_8_1162)"/>
<path d="M28.6951 6.70008C28.6613 6.54626 28.5308 6.42915 28.3754 6.42288C27.8354 6.40102 26.777 7.04179 26.7348 7.30467C26.7283 7.34503 26.7286 7.39281 26.7336 7.4451C26.9764 7.28762 27.5762 7.0008 27.9427 7.01576C28.0981 7.02203 28.2287 7.13914 28.2624 7.29295C28.3124 7.52007 28.3282 7.69134 28.3285 7.83627C28.3979 7.82634 28.4598 7.81923 28.5097 7.81567C28.5097 7.81567 28.7922 7.14123 28.6951 6.70008Z" fill="url(#paint6_linear_8_1162)"/>
<path d="M7.25219 6.70008C7.28605 6.54626 7.41651 6.42915 7.57196 6.42288C8.1119 6.40102 9.1703 7.04179 9.21251 7.30467C9.21902 7.34503 9.21871 7.39281 9.21375 7.4451C8.97088 7.28762 8.37108 7.0008 8.00465 7.01576C7.8492 7.02203 7.71863 7.13914 7.68488 7.29295C7.63492 7.52007 7.61913 7.69134 7.61882 7.83627C7.54946 7.82634 7.48753 7.81923 7.43767 7.81567C7.43767 7.81567 7.15517 7.14123 7.25219 6.70008Z" fill="url(#paint7_linear_8_1162)"/>
<path d="M7.54208 11.9206C7.44114 11.866 7.38385 11.8376 7.38385 11.8376C7.38385 11.8376 7.4401 11.868 7.54208 11.9206Z" fill="url(#paint8_linear_8_1162)"/>
<path opacity="0.39" d="M28.1552 10.8609C28.6289 10.8609 29.0129 10.5 29.0129 10.0549C29.0129 9.60976 28.6289 9.24892 28.1552 9.24892C27.6815 9.24892 27.2975 9.60976 27.2975 10.0549C27.2975 10.5 27.6815 10.8609 28.1552 10.8609Z" fill="url(#paint9_linear_8_1162)"/>
<path opacity="0.39" d="M7.77169 10.8609C8.24541 10.8609 8.62943 10.5 8.62943 10.0549C8.62943 9.60976 8.24541 9.24892 7.77169 9.24892C7.29797 9.24892 6.91394 9.60976 6.91394 10.0549C6.91394 10.5 7.29797 10.8609 7.77169 10.8609Z" fill="url(#paint10_linear_8_1162)"/>
<path d="M17.96 21C8.05681 21 0 16.2897 0 10.5C0 4.71029 8.05681 0 17.96 0C27.8632 0 35.92 4.71029 35.92 10.5C35.92 16.2897 27.8632 21 17.96 21ZM17.96 0.209128C8.17066 0.209128 0.206437 4.82552 0.206437 10.5C0.206437 16.1745 8.17066 20.7909 17.96 20.7909C27.7493 20.7909 35.7136 16.1745 35.7136 10.5C35.7136 4.82563 27.7493 0.209128 17.96 0.209128Z" fill="url(#paint11_linear_8_1162)"/>
<path d="M17.8911 19.5361C13.3217 19.5361 9.01704 18.6218 5.7701 16.9615C2.4153 15.2461 0.567688 12.9297 0.567688 10.439C0.567688 7.94843 2.4153 5.63203 5.7701 3.91655C9.01715 2.25629 13.3218 1.34198 17.8911 1.34198C22.4605 1.34198 26.7651 2.25629 30.0122 3.91655C33.367 5.63203 35.2146 7.94833 35.2146 10.439C35.2146 12.9298 33.367 15.2461 30.0122 16.9615C26.7652 18.6218 22.4606 19.5361 17.8911 19.5361ZM17.8911 2.4009C13.5093 2.4009 9.39843 3.26888 6.31592 4.84508C3.34127 6.36607 1.70309 8.35278 1.70309 10.439C1.70309 12.5254 3.34137 14.512 6.31592 16.033C9.39843 17.6092 13.5093 18.4772 17.8911 18.4772C22.2731 18.4772 26.3838 17.6091 29.4664 16.033C32.441 14.512 34.0792 12.5254 34.0792 10.439C34.0792 8.35278 32.441 6.36607 29.4664 4.84508C26.3838 3.26888 22.2731 2.4009 17.8911 2.4009Z" fill="url(#paint12_linear_8_1162)"/>
<path d="M17.8911 20.3295C13.3217 20.3295 9.01704 19.3364 5.7701 17.533C2.4153 15.6696 0.567688 13.1536 0.567688 10.4482C0.567688 7.74285 2.4153 5.22673 5.7701 3.3635C9.01715 1.56009 13.3218 0.56694 17.8911 0.56694C22.4605 0.56694 26.7651 1.56009 30.0122 3.3635C33.367 5.22683 35.2146 7.74285 35.2146 10.4482C35.2146 13.1536 33.367 15.6697 30.0122 17.533C26.7652 19.3364 22.4606 20.3295 17.8911 20.3295ZM17.8911 1.71714C13.5093 1.71714 9.39843 2.66 6.31592 4.37202C3.34127 6.02413 1.70309 8.18213 1.70309 10.4482C1.70309 12.7145 3.34137 14.8723 6.31592 16.5243C9.39843 18.2364 13.5093 19.1793 17.8911 19.1793C22.2731 19.1793 26.3838 18.2364 29.4664 16.5243C32.441 14.8722 34.0792 12.7143 34.0792 10.4482C34.0792 8.18213 32.441 6.02413 29.4664 4.37202C26.3838 2.66 22.2731 1.71714 17.8911 1.71714Z" fill="url(#paint13_linear_8_1162)"/>
<path d="M33.8556 9.07972C33.8556 9.07972 32.1009 8.57279 31.1978 10.0549C30.2946 11.537 27.2975 17.5381 27.2975 17.5381C27.2975 17.5381 30.9078 16.2896 32.7202 13.9942C34.6726 11.5216 34.1169 9.6199 33.8556 9.07972Z" fill="url(#paint14_linear_8_1162)"/>
<path d="M33.8556 9.07971C33.8556 9.07971 32.4192 9.37876 31.516 10.8609C30.6128 12.3429 27.2975 17.5381 27.2975 17.5381C27.2975 17.5381 30.9077 16.2896 32.7201 13.9942C34.6726 11.5216 34.1169 9.61989 33.8556 9.07971Z" fill="url(#paint15_linear_8_1162)"/>
<path d="M1.91618 9.07972C1.91618 9.07972 3.6709 8.57279 4.57406 10.0549C5.47722 11.537 8.47437 17.5381 8.47437 17.5381C8.47437 17.5381 4.8641 16.2896 3.05159 13.9942C1.09921 11.5216 1.65494 9.6199 1.91618 9.07972Z" fill="url(#paint16_linear_8_1162)"/>
<path d="M1.91618 9.0797C1.91618 9.0797 3.01918 8.95695 3.92234 10.439C4.8255 11.9211 8.47437 17.5381 8.47437 17.5381C8.47437 17.5381 4.8641 16.2896 3.05159 13.9942C1.09921 11.5216 1.65494 9.61988 1.91618 9.0797Z" fill="url(#paint17_linear_8_1162)"/>
<defs>
<linearGradient id="paint0_linear_8_1162" x1="18.0288" y1="8.50449" x2="18.0288" y2="5.09635" gradientUnits="userSpaceOnUse">
<stop stop-color="white" stop-opacity="0"/>
<stop offset="0.9124" stop-color="white" stop-opacity="0.9124"/>
<stop offset="1" stop-color="white"/>
</linearGradient>
<linearGradient id="paint1_linear_8_1162" x1="28.378" y1="11.8791" x2="28.5362" y2="11.8791" gradientUnits="userSpaceOnUse">
<stop offset="0.0216" stop-color="#5E5E5E"/>
<stop offset="0.227" stop-color="#CCCCCC"/>
<stop offset="0.2308" stop-color="#BEBEBE"/>
<stop offset="0.243" stop-color="#949494"/>
<stop offset="0.254" stop-color="#777777"/>
<stop offset="0.2635" stop-color="#646464"/>
<stop offset="0.2703" stop-color="#5E5E5E"/>
<stop offset="0.5514" stop-color="#CCCCCC"/>
<stop offset="0.5905" stop-color="#BEBEBE"/>
<stop offset="0.7168" stop-color="#949494"/>
<stop offset="0.8315" stop-color="#777777"/>
<stop offset="0.9298" stop-color="#646464"/>
<stop offset="1" stop-color="#5E5E5E"/>
</linearGradient>
<linearGradient id="paint2_linear_8_1162" x1="7.54209" y1="15.0095" x2="28.3779" y2="15.0095" gradientUnits="userSpaceOnUse">
<stop offset="0.0216" stop-color="#5E5E5E"/>
<stop offset="0.3838" stop-color="white"/>
<stop offset="0.3846" stop-color="#F3F3F3"/>
<stop offset="0.3884" stop-color="#BEBEBE"/>
<stop offset="0.392" stop-color="#959595"/>
<stop offset="0.3953" stop-color="#777777"/>
<stop offset="0.398" stop-color="#646464"/>
<stop offset="0.4" stop-color="#5E5E5E"/>
<stop offset="0.6757" stop-color="white"/>
<stop offset="0.692" stop-color="#F3F3F3"/>
<stop offset="0.7687" stop-color="#BEBEBE"/>
<stop offset="0.8404" stop-color="#959595"/>
<stop offset="0.9051" stop-color="#777777"/>
<stop offset="0.9604" stop-color="#646464"/>
<stop offset="1" stop-color="#5E5E5E"/>
</linearGradient>
<linearGradient id="paint3_linear_8_1162" x1="5.42307" y1="10.0643" x2="30.4973" y2="10.0643" gradientUnits="userSpaceOnUse">
<stop offset="0.0216" stop-color="#5E5E5E"/>
<stop offset="0.3838" stop-color="white"/>
<stop offset="0.3846" stop-color="#F3F3F3"/>
<stop offset="0.3884" stop-color="#BEBEBE"/>
<stop offset="0.392" stop-color="#959595"/>
<stop offset="0.3953" stop-color="#777777"/>
<stop offset="0.398" stop-color="#646464"/>
<stop offset="0.4" stop-color="#5E5E5E"/>
<stop offset="0.6757" stop-color="white"/>
<stop offset="0.692" stop-color="#F3F3F3"/>
<stop offset="0.7687" stop-color="#BEBEBE"/>
<stop offset="0.8404" stop-color="#959595"/>
<stop offset="0.9051" stop-color="#777777"/>
<stop offset="0.9604" stop-color="#646464"/>
<stop offset="1" stop-color="#5E5E5E"/>
</linearGradient>
<linearGradient id="paint4_linear_8_1162" x1="5.42293" y1="12.1512" x2="30.4971" y2="12.1512" gradientUnits="userSpaceOnUse">
<stop stop-color="#5E5E5E"/>
<stop offset="0.062" stop-color="#646464"/>
<stop offset="0.1487" stop-color="#777777"/>
<stop offset="0.2501" stop-color="#959595"/>
<stop offset="0.3624" stop-color="#BEBEBE"/>
<stop offset="0.4825" stop-color="#F3F3F3"/>
<stop offset="0.5081" stop-color="white"/>
<stop offset="0.9784" stop-color="#5E5E5E"/>
</linearGradient>
<linearGradient id="paint5_linear_8_1162" x1="5.42293" y1="12.1512" x2="30.4971" y2="12.1512" gradientUnits="userSpaceOnUse">
<stop offset="0.0216" stop-color="#5E5E5E"/>
<stop offset="0.2378" stop-color="white"/>
<stop offset="0.2395" stop-color="#F3F3F3"/>
<stop offset="0.2471" stop-color="#BEBEBE"/>
<stop offset="0.2543" stop-color="#959595"/>
<stop offset="0.2608" stop-color="#777777"/>
<stop offset="0.2663" stop-color="#646464"/>
<stop offset="0.2703" stop-color="#5E5E5E"/>
<stop offset="0.6757" stop-color="white"/>
<stop offset="0.692" stop-color="#F3F3F3"/>
<stop offset="0.7687" stop-color="#BEBEBE"/>
<stop offset="0.8404" stop-color="#959595"/>
<stop offset="0.9051" stop-color="#777777"/>
<stop offset="0.9604" stop-color="#646464"/>
<stop offset="1" stop-color="#5E5E5E"/>
</linearGradient>
<linearGradient id="paint6_linear_8_1162" x1="27.2203" y1="7.93814" x2="28.626" y2="6.55052" gradientUnits="userSpaceOnUse">
<stop offset="0.0216" stop-color="#5E5E5E"/>
<stop offset="0.4811" stop-color="white"/>
<stop offset="0.5072" stop-color="#F3F3F3"/>
<stop offset="0.6299" stop-color="#BEBEBE"/>
<stop offset="0.7446" stop-color="#959595"/>
<stop offset="0.8481" stop-color="#777777"/>
<stop offset="0.9367" stop-color="#646464"/>
<stop offset="1" stop-color="#5E5E5E"/>
</linearGradient>
<linearGradient id="paint7_linear_8_1162" x1="8.72706" y1="7.93814" x2="7.32135" y2="6.55052" gradientUnits="userSpaceOnUse">
<stop offset="0.0216" stop-color="#5E5E5E"/>
<stop offset="0.4811" stop-color="white"/>
<stop offset="0.5072" stop-color="#F3F3F3"/>
<stop offset="0.6299" stop-color="#BEBEBE"/>
<stop offset="0.7446" stop-color="#959595"/>
<stop offset="0.8481" stop-color="#777777"/>
<stop offset="0.9367" stop-color="#646464"/>
<stop offset="1" stop-color="#5E5E5E"/>
</linearGradient>
<linearGradient id="paint8_linear_8_1162" x1="7.3839" y1="11.8791" x2="7.54211" y2="11.8791" gradientUnits="userSpaceOnUse">
<stop offset="0.0216" stop-color="#5E5E5E"/>
<stop offset="0.227" stop-color="#CCCCCC"/>
<stop offset="0.2308" stop-color="#BEBEBE"/>
<stop offset="0.243" stop-color="#949494"/>
<stop offset="0.254" stop-color="#777777"/>
<stop offset="0.2635" stop-color="#646464"/>
<stop offset="0.2703" stop-color="#5E5E5E"/>
<stop offset="0.5514" stop-color="#CCCCCC"/>
<stop offset="0.5905" stop-color="#BEBEBE"/>
<stop offset="0.7168" stop-color="#949494"/>
<stop offset="0.8315" stop-color="#777777"/>
<stop offset="0.9298" stop-color="#646464"/>
<stop offset="1" stop-color="#5E5E5E"/>
</linearGradient>
<linearGradient id="paint9_linear_8_1162" x1="28.1552" y1="10.8609" x2="28.1552" y2="9.24883" gradientUnits="userSpaceOnUse">
<stop stop-color="white" stop-opacity="0"/>
<stop offset="0.8549" stop-color="white" stop-opacity="0.8549"/>
<stop offset="1" stop-color="white"/>
</linearGradient>
<linearGradient id="paint10_linear_8_1162" x1="7.77173" y1="10.8609" x2="7.77173" y2="9.24883" gradientUnits="userSpaceOnUse">
<stop stop-color="white" stop-opacity="0"/>
<stop offset="0.8549" stop-color="white" stop-opacity="0.8549"/>
<stop offset="1" stop-color="white"/>
</linearGradient>
<linearGradient id="paint11_linear_8_1162" x1="0" y1="10.5" x2="35.92" y2="10.5" gradientUnits="userSpaceOnUse">
<stop stop-color="#5E5E5E"/>
<stop offset="0.0396" stop-color="#646464"/>
<stop offset="0.0949" stop-color="#777777"/>
<stop offset="0.1596" stop-color="#959595"/>
<stop offset="0.2313" stop-color="#BEBEBE"/>
<stop offset="0.308" stop-color="#F3F3F3"/>
<stop offset="0.3243" stop-color="white"/>
<stop offset="0.7297" stop-color="#5E5E5E"/>
<stop offset="0.7337" stop-color="#646464"/>
<stop offset="0.7392" stop-color="#777777"/>
<stop offset="0.7457" stop-color="#959595"/>
<stop offset="0.7529" stop-color="#BEBEBE"/>
<stop offset="0.7605" stop-color="#F3F3F3"/>
<stop offset="0.7622" stop-color="white"/>
<stop offset="0.9784" stop-color="#5E5E5E"/>
</linearGradient>
<linearGradient id="paint12_linear_8_1162" x1="0.567688" y1="10.439" x2="35.2147" y2="10.439" gradientUnits="userSpaceOnUse">
<stop offset="0.0108" stop-color="#5E5E5E"/>
<stop offset="0.4973" stop-color="#3D3D3D"/>
<stop offset="1" stop-color="#5E5E5E"/>
</linearGradient>
<linearGradient id="paint13_linear_8_1162" x1="0.567688" y1="10.4482" x2="35.2147" y2="10.4482" gradientUnits="userSpaceOnUse">
<stop offset="0.0216" stop-color="#5E5E5E"/>
<stop offset="0.2378" stop-color="white"/>
<stop offset="0.2395" stop-color="#F3F3F3"/>
<stop offset="0.2471" stop-color="#BEBEBE"/>
<stop offset="0.2543" stop-color="#959595"/>
<stop offset="0.2608" stop-color="#777777"/>
<stop offset="0.2663" stop-color="#646464"/>
<stop offset="0.2703" stop-color="#5E5E5E"/>
<stop offset="0.6757" stop-color="white"/>
<stop offset="0.692" stop-color="#F3F3F3"/>
<stop offset="0.7687" stop-color="#BEBEBE"/>
<stop offset="0.8404" stop-color="#959595"/>
<stop offset="0.9051" stop-color="#777777"/>
<stop offset="0.9604" stop-color="#646464"/>
<stop offset="1" stop-color="#5E5E5E"/>
</linearGradient>
<linearGradient id="paint14_linear_8_1162" x1="26.899" y1="17.1344" x2="34.4493" y2="9.68116" gradientUnits="userSpaceOnUse">
<stop stop-color="#5E5E5E"/>
<stop offset="0.0923" stop-color="#646464"/>
<stop offset="0.2215" stop-color="#777777"/>
<stop offset="0.3724" stop-color="#959595"/>
<stop offset="0.5398" stop-color="#BEBEBE"/>
<stop offset="0.7187" stop-color="#F3F3F3"/>
<stop offset="0.7568" stop-color="white"/>
<stop offset="0.9784" stop-color="#5E5E5E"/>
</linearGradient>
<linearGradient id="paint15_linear_8_1162" x1="27.1611" y1="17.4" x2="34.7115" y2="9.94673" gradientUnits="userSpaceOnUse">
<stop offset="0.0216" stop-color="#5E5E5E"/>
<stop offset="0.4811" stop-color="white"/>
<stop offset="0.5072" stop-color="#F3F3F3"/>
<stop offset="0.6299" stop-color="#BEBEBE"/>
<stop offset="0.7446" stop-color="#959595"/>
<stop offset="0.8481" stop-color="#777777"/>
<stop offset="0.9367" stop-color="#646464"/>
<stop offset="1" stop-color="#5E5E5E"/>
</linearGradient>
<linearGradient id="paint16_linear_8_1162" x1="8.87285" y1="17.1344" x2="1.32247" y2="9.68116" gradientUnits="userSpaceOnUse">
<stop stop-color="#5E5E5E"/>
<stop offset="0.0923" stop-color="#646464"/>
<stop offset="0.2215" stop-color="#777777"/>
<stop offset="0.3724" stop-color="#959595"/>
<stop offset="0.5398" stop-color="#BEBEBE"/>
<stop offset="0.7187" stop-color="#F3F3F3"/>
<stop offset="0.7568" stop-color="white"/>
<stop offset="0.9784" stop-color="#5E5E5E"/>
</linearGradient>
<linearGradient id="paint17_linear_8_1162" x1="8.62943" y1="17.381" x2="1.07904" y2="9.92774" gradientUnits="userSpaceOnUse">
<stop offset="0.0216" stop-color="#5E5E5E"/>
<stop offset="0.4811" stop-color="white"/>
<stop offset="0.5072" stop-color="#F3F3F3"/>
<stop offset="0.6299" stop-color="#BEBEBE"/>
<stop offset="0.7446" stop-color="#959595"/>
<stop offset="0.8481" stop-color="#777777"/>
<stop offset="0.9367" stop-color="#646464"/>
<stop offset="1" stop-color="#5E5E5E"/>
</linearGradient>
</defs>
</svg>
