<svg width="131" height="37" viewBox="0 0 131 37" fill="none" xmlns="http://www.w3.org/2000/svg">
<path d="M129.42 25.5892C127.345 28.2977 124.424 28.3541 119.81 27.9388C119.06 29.4715 117.65 30.6152 116.096 31.3242C114.542 32.0333 112.839 32.3485 111.147 32.5862C108.245 32.9854 105.261 33.1589 102.363 32.8165C101.113 34.49 98.8306 35.38 96.7281 35.0611C95.6705 34.9033 94.6776 34.476 93.8075 33.8514C86.4084 37.9224 74.741 35.3033 67.6438 31.9274C66.6913 32.8581 65.536 33.5956 64.3487 34.2161C58.7277 37.1211 51.8408 37.4602 45.964 35.1179C44.1458 34.3936 42.3693 33.3455 40.9516 31.99C38.5163 33.8057 35.4304 34.7793 32.3742 35.1109C25.5535 35.8567 18.463 33.652 13.2652 29.1682C12.1849 28.2384 11.1405 27.133 10.8336 25.7396C10.8196 25.6732 10.8101 25.6028 10.7965 25.536C8.15557 25.3853 5.52948 24.9584 2.97591 24.2626C1.64638 23.9 0.0919058 23.1782 0.00250183 21.7976C-0.0139782 21.4877 0.0515302 21.1849 0.182134 20.9101C0.375774 20.4973 0.711554 20.1438 1.10955 19.8917C1.28753 19.7709 1.48117 19.6758 1.67769 19.6012C2.59851 19.2588 3.62275 19.3202 4.60125 19.3882C4.25146 17.9227 5.10553 16.3653 6.3403 15.4911C6.84129 15.1318 7.39625 14.8652 7.98088 14.6741C8.82548 14.3779 9.72653 14.2283 10.6131 14.1195C13.2273 13.8118 16.1171 13.9312 18.1359 15.6242C19.8877 11.0967 23.475 8.31692 27.3511 7.79121C31.2276 7.26591 35.2339 8.84428 38.0227 11.5907C38.4788 12.0459 38.9126 12.5375 39.2871 13.0677C39.6455 12.8633 40.0196 12.6845 40.4057 12.5267C43.0882 11.4382 46.3846 11.5948 48.6333 13.4121C49.967 14.4961 50.8095 16.0143 51.4708 17.6199C51.5894 17.7484 50.2171 8.55217 58.9671 5.03411C62.7344 3.51877 67.1251 4.05725 70.6041 6.14239C73.6314 2.71331 77.8985 0.455138 82.4046 0.0620895C89.1202 -0.52295 96.0269 3.07216 99.3975 8.9135C100.6 8.12864 102.253 8.24029 103.614 8.94605C104.971 9.6518 106.013 10.9426 106.42 12.4188C108.748 10.3802 112.007 10.3497 114.481 11.7843C115.041 12.1119 115.557 12.5119 116.013 12.9672C117.584 14.5142 118.523 16.7168 118.455 18.928C120.765 17.0575 124.195 16.7452 126.826 18.0916C127.02 18.1901 127.213 18.2968 127.398 18.4155C128.046 18.825 128.635 19.3433 129.102 19.9431C129.49 20.4413 129.802 20.9979 129.996 21.5994C130.434 22.9289 130.265 24.4768 129.42 25.5892Z" fill="white"/>
<path d="M129.42 25.5892C127.345 28.2977 124.423 28.3541 119.81 27.9388C119.06 29.4715 117.649 30.6152 116.096 31.3242C114.542 32.0333 112.838 32.3485 111.147 32.5862C108.245 32.9854 105.26 33.1589 102.363 32.8165C101.113 34.49 98.8304 35.38 96.728 35.0611C95.6704 34.9033 94.6775 34.476 93.8073 33.8514C86.4082 37.9224 74.7408 35.3033 67.6437 31.9274C66.6911 32.8581 65.5359 33.5956 64.3485 34.2161C58.7276 37.1211 51.8406 37.4601 45.9638 35.1179C44.1456 34.3936 42.3691 33.3455 40.9514 31.99C38.5161 33.8057 35.4302 34.7793 32.374 35.1109C25.5533 35.8566 18.4628 33.652 13.265 29.1682C12.1847 28.2383 11.1403 27.1329 10.8334 25.7396C10.8194 25.6732 10.8099 25.6028 10.7963 25.536C8.15539 25.3852 5.5293 24.9584 2.97572 24.2625C1.6462 23.9 0.0917227 23.1782 0.00231873 21.7975C-0.0141613 21.4877 0.0513471 21.1849 0.181951 20.9101C0.375591 20.4973 0.711371 20.1438 1.10936 19.8916C1.69399 20.8429 3.0264 21.2339 4.19359 21.4375C6.74017 21.8857 9.44701 22.1506 11.7592 21.2492C14.1347 22.9895 16.8416 24.2811 19.6893 25.0338C21.3134 25.4615 23.0018 25.7144 24.6712 25.5216C26.3361 25.3325 27.9874 24.6647 29.1641 23.5984C30.9052 25.845 33.8312 26.8116 36.6378 27.2578C38.7151 27.5882 40.8505 27.6982 42.9121 27.294C44.9775 26.8899 46.974 25.939 48.5623 24.3779C52.0313 25.9925 55.9915 26.7778 59.7308 25.9583C63.4701 25.143 66.9177 22.5552 67.9073 18.7356C70.2941 19.9938 72.8386 21.1182 75.5339 21.2504C78.2296 21.379 81.1251 20.3234 82.453 17.7418C85.4808 20.4936 89.0586 22.7971 93.0772 23.5556C97.0959 24.3182 101.593 23.3187 104.487 20.2348C107.929 22.5206 111.973 23.8905 116.094 24.1748C118.425 24.3338 120.845 24.134 122.929 23.0747C124.886 22.0851 126.489 20.2361 126.826 18.0928C127.02 18.1913 127.214 18.298 127.399 18.4167C128.047 18.8262 128.636 19.3445 129.103 19.9444C129.491 20.4425 129.803 20.9991 129.997 21.6006C130.434 22.9289 130.264 24.4768 129.42 25.5892Z" fill="#B9D4D9"/>
<path d="M97.4848 29.1114C99.0825 29.8505 100.955 29.6886 102.51 28.9169C100.829 28.7921 99.1567 28.9507 97.4848 29.1114Z" fill="white"/>
<path d="M96.8297 27.2203C95.5348 26.8343 94.5064 26.7774 93.1988 26.6089C94.4034 27.4967 95.9633 27.7584 97.4214 27.5108C97.9714 27.4716 97.0349 27.306 96.8297 27.2203Z" fill="white"/>
<path d="M102.613 26.868C101.748 26.8425 100.895 27.0159 100.048 27.175C100.985 27.4918 102 27.4102 102.908 27.0337C103.561 26.8095 102.906 26.9018 102.613 26.868Z" fill="white"/>
<path d="M29.8958 31.468C28.6487 31.3893 27.4024 31.5224 26.1556 31.5022C28.3178 32.5903 31.2393 32.9697 33.315 31.5067C32.184 31.6983 31.0312 31.5319 29.8958 31.468Z" fill="white"/>
<path d="M23.8402 29.7722C24.9168 30.281 26.1701 30.2992 27.3031 29.9737C26.1573 29.6812 25.0849 29.6577 23.8402 29.7722Z" fill="white"/>
<path d="M60.5646 32.2372C59.5866 32.3176 58.2607 32.7399 57.1648 33.1069C58.6563 33.4015 60.2153 33.0122 61.4801 32.1927C61.7792 32.0411 60.7278 32.2335 60.5646 32.2372Z" fill="white"/>
</svg>
