<svg width="83" height="39" viewBox="0 0 83 39" fill="none" xmlns="http://www.w3.org/2000/svg">
<path d="M82.2409 24.9978C81.3468 27.956 78.9655 30.498 75.4388 31.2561C75.789 32.4509 75.1092 33.724 74.2687 34.6469C71.6442 37.5103 67.5119 38.4043 63.6391 38.6844C60.1865 38.9234 56.7175 38.7957 53.2979 38.3013C51.3162 38.0129 49.3138 37.5885 47.5464 36.678C41.2963 38.8699 34.2923 38.7874 27.5932 38.4414C19.1925 38.0005 10.5405 37.1724 3.10804 33.2337C1.28288 32.2614 -0.702961 30.2961 0.244639 28.4627C0.668999 27.6346 1.4724 27.2679 2.39528 27.1649C1.68252 25.966 1.39412 24.5405 1.8432 23.2509C1.95444 22.9378 2.10276 22.6412 2.27992 22.3692C2.3994 22.188 2.53536 22.0149 2.67956 21.8542C3.46236 20.9767 4.59125 20.3546 5.76133 20.0332C7.48349 19.5594 9.31277 19.6253 11.105 19.7036C11.0638 18.8302 11.2533 17.9938 11.657 17.314C11.896 16.8938 12.2174 16.5312 12.6129 16.2552C13.647 15.5383 15.122 15.4518 16.2467 16.0409C16.0613 15.5012 16.1314 14.9821 16.2508 14.5C16.8771 11.9168 18.97 9.71673 21.5904 8.88037C24.2189 8.03989 27.2801 8.59608 29.4184 10.2935C29.9663 6.58552 31.8286 3.29776 34.9309 1.56324C36.8055 0.512643 39.0097 0.0923986 41.1851 0.0141186C44.6747 -0.113601 48.2591 0.619761 51.2049 2.43668C54.1548 4.24948 56.4085 7.1994 56.9482 10.5119C59.3502 9.05752 62.1106 9.0534 64.1376 10.2812C66.1646 11.513 67.3512 13.9109 67.0628 16.1851C70.0786 13.1075 74.7384 12.749 78.1168 14.7102C79.2827 15.39 80.2056 16.2181 80.9101 17.1533C80.9101 17.1574 80.9101 17.1574 80.9101 17.1574C81.1903 17.5282 81.4375 17.9155 81.6476 18.311C82.7518 20.3999 82.9042 22.8142 82.2409 24.9978Z" fill="white"/>
<path d="M82.2409 24.9978C81.3468 27.956 78.9655 30.498 75.4388 31.2561C75.789 32.4509 75.1092 33.724 74.2687 34.6468C71.6442 37.5102 67.5119 38.4043 63.6391 38.6844C60.1865 38.9234 56.7175 38.7957 53.2979 38.3013C51.3162 38.0129 49.3138 37.5885 47.5464 36.678C41.2963 38.8698 34.2923 38.7874 27.5932 38.4414C19.1925 38.0005 10.5405 37.1724 3.10804 33.2337C1.28288 32.2614 -0.702961 30.2961 0.244639 28.4627C0.668999 27.6346 1.4724 27.2679 2.39528 27.1649C1.68252 25.966 1.39412 24.5405 1.8432 23.2509C1.95444 22.9378 2.10276 22.6412 2.27992 22.3692C2.3994 22.188 2.53536 22.0149 2.67956 21.8542C2.74548 22.5629 3.08745 23.2633 3.58597 23.7824C4.36877 24.6023 5.47292 25.0349 6.57708 25.2903C9.53524 25.9701 12.7447 25.4716 15.3568 23.9225C17.2644 27.1979 20.754 29.5051 24.5156 29.983C28.2771 30.4568 32.2282 29.089 34.8897 26.3904C41.2551 35.1536 63.3548 34.3832 68.41 25.6941C72.1592 26.2874 76.5017 26.7158 79.2868 24.1326C80.8648 22.6618 81.5611 20.4946 81.6476 18.311C82.7518 20.3999 82.9042 22.8142 82.2409 24.9978Z" fill="#B9D4D9"/>
<path d="M25.7112 20.7315C27.3563 22.141 30.1702 21.8427 31.4833 20.1197C32.8124 21.7751 35.0508 22.6486 37.1499 22.3317C39.2491 22.0145 41.1295 20.5185 41.9102 18.5446C40.4043 19.9557 38.2698 20.6685 36.2184 20.4452C34.1671 20.2219 32.2356 19.0666 31.0684 17.3651C30.1645 19.402 27.8021 20.6804 25.7112 20.7315Z" fill="#B9D4D9"/>
<path d="M14.1958 33.2357C12.7134 32.9766 11.2047 32.8864 9.73383 32.5638C12.568 34.8059 16.4634 35.393 19.9181 34.4833C18.0179 34.0424 16.1219 33.5575 14.1958 33.2357Z" fill="white"/>
<path d="M19.415 32.0121C19.4583 32.0179 19.4982 32.0232 19.4731 32.0191C18.0344 31.7797 16.5681 31.9046 15.1203 31.7678C17.4053 33.1546 20.3408 33.4162 22.884 32.675C21.7819 32.4707 20.5756 32.1489 19.415 32.0121Z" fill="white"/>
<path d="M26.3972 35.009C25.6308 34.8928 24.8505 34.974 24.0834 34.8957C25.5311 35.7415 27.4012 36.0518 29.0101 35.5104C28.1321 35.3827 27.276 35.131 26.3972 35.009Z" fill="white"/>
<path d="M70.0259 35.0333C70.0176 35.0354 70.009 35.0354 70.0003 35.0374C69.9995 35.0193 69.9925 35.0131 69.9851 35.0086C69.988 35.023 69.9917 35.0304 69.9958 35.0382C69.4013 35.18 68.7705 35.0897 68.1896 35.1664C65.8857 35.1927 63.6844 35.9034 61.4472 36.3402C64.2809 37.1881 67.455 36.5692 69.9872 35.1128C69.9958 35.0827 69.9991 35.0642 69.9999 35.0498C70.0168 35.0741 70.0366 35.0531 70.0259 35.0333Z" fill="white"/>
<path d="M69.2575 32.7121C67.7393 32.8407 66.2882 33.3256 64.8487 33.7965C66.8819 34.1623 69.0552 33.7343 70.7341 32.511C70.2331 32.5782 69.4928 32.6771 69.2575 32.7121Z" fill="white"/>
</svg>
