<svg width="85" height="29" viewBox="0 0 85 29" fill="none" xmlns="http://www.w3.org/2000/svg">
<path d="M84.6743 22.7163C84.2664 23.8658 83.257 24.698 82.2188 25.3325C77.7774 28.0352 72.2278 28.1382 67.0737 27.4502C65.5987 27.2524 64.0084 26.9022 62.6735 26.2389C58.6112 28.575 45.4066 29.0611 39.9641 26.7992C35.1231 28.8386 18.0168 29.572 12.2736 27.203C12.0676 27.3019 11.841 27.376 11.6267 27.4378C8.70976 28.2536 5.59504 28.3442 2.63688 27.7015C1.42148 27.4378 -0.0122806 26.7416 7.93612e-05 25.4932C0.00831936 24.9205 0.354399 24.3932 0.803479 24.0388C1.53684 23.462 2.43088 23.3178 3.362 23.4085C3.362 23.322 3.36612 23.2395 3.37024 23.1571L3.3826 23.0212C3.48972 22.0983 4.03356 21.2743 4.70512 20.6316C4.97704 20.3761 5.26956 20.1454 5.5868 19.9436C7.11532 18.963 9.09292 18.6663 10.9098 19.2514C10.4154 16.9318 10.914 14.4186 12.1829 12.4287C12.8916 11.3122 13.8433 10.3604 14.9928 9.69299C18.1981 7.83487 22.7301 8.53527 25.0414 11.4316C25.5194 9.20683 27.6206 7.43935 29.8948 7.34871C32.169 7.25807 34.4021 8.85251 35.3868 11.4358C35.0324 8.46935 36.4374 5.44939 38.6622 3.45943C40.8911 1.46535 43.8492 0.42711 46.8198 0.10575C48.7026 -0.10025 50.6308 -0.0260875 52.4436 0.513632C55.1216 1.31703 57.47 3.16691 58.8708 5.58535C59.7689 7.13035 60.2716 8.89783 60.288 10.8177C60.5394 10.5912 60.8154 10.3893 61.1162 10.2245C62.484 9.47051 64.1444 9.51583 65.6976 9.67651C67.6175 9.87427 69.5992 10.2492 71.1525 11.3904C72.7057 12.5358 73.7028 14.6411 73.023 16.4498C75.2601 15.9265 77.625 15.9636 79.8457 16.5528C80.9498 16.8453 82.0375 17.2944 82.9357 17.9866C83.1952 18.1843 83.4383 18.4027 83.6608 18.6457C84.6537 19.7293 85.1646 21.332 84.6743 22.7163Z" fill="white"/>
<path d="M84.6743 22.7163C84.2664 23.8658 83.257 24.698 82.2188 25.3325C77.7774 28.0352 72.2278 28.1382 67.0737 27.4502C65.5987 27.2524 64.0084 26.9022 62.6735 26.2389C58.6112 28.575 45.4066 29.0611 39.9641 26.7992C35.1231 28.8386 18.0168 29.572 12.2736 27.203C12.0676 27.3019 11.841 27.376 11.6267 27.4378C8.70976 28.2536 5.59504 28.3442 2.63688 27.7015C1.42148 27.4378 -0.0122806 26.7416 7.93612e-05 25.4932C0.00831936 24.9205 0.354399 24.3932 0.803479 24.0388C1.53684 23.462 2.43088 23.3178 3.362 23.4085C3.362 23.322 3.36612 23.2396 3.37024 23.1572L3.3826 23.0212C3.48972 22.0983 4.03356 21.2743 4.70512 20.6316C4.97704 20.3762 5.26956 20.1454 5.5868 19.9436C5.62388 20.3144 5.78044 20.6852 6.01528 20.9777C6.44788 21.5174 7.10296 21.8346 7.76216 22.053C10.848 23.0542 14.4984 21.9541 16.513 19.4121C19.7184 21.7646 24.5594 21.5421 27.534 18.9053C28.6094 20.7222 30.7064 21.6575 32.7335 22.259C35.0613 22.9512 37.5374 23.3549 39.9229 22.8935C42.3084 22.4279 44.595 20.99 45.7486 18.5675C47.7385 20.3968 50.5648 21.2743 53.2428 20.8994C55.9167 20.5245 58.3928 18.8971 59.8019 16.5899C61.0873 19.7087 64.6552 21.159 67.9389 21.9376C71.2514 22.7246 74.7492 23.1489 78.0452 22.3043C80.2742 21.7316 82.5978 20.1578 82.9357 17.9866C83.1952 18.1843 83.4383 18.4027 83.6608 18.6458C84.6537 19.7293 85.1646 21.332 84.6743 22.7163Z" fill="#B9D4D9"/>
<path d="M30.882 15.784C31.6866 17.0138 33.485 17.4621 34.7725 16.7543C35.5483 17.6376 36.8263 18.0467 37.9708 17.7773C39.1154 17.5082 40.077 16.5726 40.3777 15.4359C40.0724 15.9447 39.4841 16.2187 38.9036 16.3423C37.2849 16.6863 35.4931 15.9974 34.5216 14.6576C33.796 15.7543 32.298 16.2685 30.882 15.784Z" fill="#B9D4D9"/>
<path d="M55.609 25.0894C54.3198 25.1475 53.064 25.5142 51.7786 25.571C54.0743 26.5178 57.5923 26.4474 59.2131 24.6539C58.0414 25.0223 56.8272 25.0688 55.609 25.0894Z" fill="white"/>
<path d="M55.5303 23.7603C57.0798 24.1356 58.8666 23.9255 60.0627 22.7966C58.5572 23.1439 57.0114 23.2968 55.5303 23.7603Z" fill="white"/>
<path d="M64.5704 23.5984C63.6665 23.6041 62.7872 23.8299 61.9505 24.1608C62.8944 24.3045 63.8609 24.1163 64.6985 23.6631C64.9527 23.5465 64.6981 23.6058 64.5704 23.5984Z" fill="white"/>
</svg>
